<svg xmlns="http://www.w3.org/2000/svg" viewBox="0 0 135.14 119.05"><defs><style>.cls-1{fill:#2b2b2b;}.cls-2{fill:#383b8e;}.cls-3{fill:#fcca00;}.cls-4{fill:#4e474c;}.cls-5{fill:#fefefe;}.cls-6{fill:#de2219;}.cls-7{fill:#99aba9;}.cls-8{fill:#eab029;}.cls-9{fill:#f9d700;}.cls-10{fill:#bc7d22;}.cls-11{fill:#f5a015;}.cls-12{fill:#1d1717;}</style></defs><title>Ativo 2</title><g id="Camada_2" data-name="Camada 2"><g id="Camada_1-2" data-name="Camada 1"><path class="cls-1" d="M44.87,84.31a3.26,3.26,0,0,1-2.76-1,3.34,3.34,0,0,1-.32-3,5.47,5.47,0,0,1,2-3c-.06-1.38-.06-2.77,0-4.14v-.41l0-.11a7.65,7.65,0,0,0-.18-2.52l-.07-.24v-.62a11,11,0,0,0-2.11-6.54c-1.82-2.68-3.58-5.31-5.34-8l-2.2-3.3a2.58,2.58,0,0,1-.58-.27l-.65-.28v-.35a2.35,2.35,0,0,1-.27-.55,4.12,4.12,0,0,1-1.28-4.25,7.57,7.57,0,0,1,1.78-3.38,33.29,33.29,0,0,1,3.9-4.24l0-.09h-.12v-.48a4.14,4.14,0,0,1,0-1.54l0-.23a3.87,3.87,0,0,1,.13-.73l.29-1.7.66.33A4,4,0,0,1,39.59,33l.21,0,.27-.06a5.09,5.09,0,0,1,.13-1.1l-1.06-2.14h1.62A7.94,7.94,0,0,1,43.24,26a19.39,19.39,0,0,1,10.45-4.82c2.45-.42,5-1,7.51-1.54,3.26-.73,6.64-1.48,10-1.95l1.6-.22c2.83-.4,5.76-.82,8.72-1,1.12-.08,2.26-.21,3.47-.35l2.3-.26c3.1-.28,5.63-.47,8-.58a31.75,31.75,0,0,0,4.51-.44,6.26,6.26,0,0,1,1-.11,2.66,2.66,0,0,1,2.06.87,2.73,2.73,0,0,1,.61,1.32c.11-.21.21-.42.31-.63.48-1,.93-1.88,1.28-2.8l0-.08,0-.08a2.51,2.51,0,0,0-.56-2.94c-.49-.5-.92-.93-1.36-1.36a4.5,4.5,0,0,1-.37-6.3c.1-.11.21-.22.32-.32a8.11,8.11,0,0,1,7.44-2.2c5.2,1,8.52,5,8.82,10.85h0l0,0a6.72,6.72,0,0,0,3.14.77h.24a7.65,7.65,0,0,1,.81-.05c2.57,0,4.44,1.43,5.93,2.58l.76.57A13.8,13.8,0,0,1,133.55,18a7.4,7.4,0,0,1,1.23,6.89,25,25,0,0,0-.77,3.87,34.58,34.58,0,0,1-.62,3.46c-.24,1-.53,1.92-.81,2.84-.22.73-.44,1.46-.63,2.19a6.82,6.82,0,0,1-6.6,5.1h0a6.06,6.06,0,0,1-.73,0h-.24a2.64,2.64,0,0,0-2.52,1.85l0,.15c-1.16,2.89-3.65,3.45-5.48,3.86l-.69.16-.1,0-.11,0a.73.73,0,0,0-.45.23,15.84,15.84,0,0,1-4.53,4c.06,2,.13,4,.19,6a3.74,3.74,0,0,1,1.61,2.16,4.31,4.31,0,0,1-1,3.51,73.72,73.72,0,0,1-11.7,13.38,42.1,42.1,0,0,1-9.51,6,8.68,8.68,0,0,1-3.9.71H44.87Z"/><path class="cls-1" d="M132,19.18a12.22,12.22,0,0,0-2.73-2.64c-1.85-1.35-3.56-3-6.16-2.72a8.64,8.64,0,0,1-4.48-1,1.59,1.59,0,0,1-1.1-1.69c-.24-4.57-2.63-8.14-7.24-9a6.19,6.19,0,0,0-5.67,1.71L104.4,4a2.49,2.49,0,0,0,.23,3.51c.46.45.91.9,1.36,1.36a4.51,4.51,0,0,1,1,5.27c-.87,2.3-2.25,4.39-3,6.76-.13.54-.52.62-1,.54-.26.41-.78.35-1.11.62l0,0-1.23.46s.11.1.13.15h0c0-.05-.12-.1-.12-.15-.4.15-.87.15-1.15.56a2.63,2.63,0,0,0-1.83.76h-.06a1.12,1.12,0,0,0-1.15.47s0,0-.05,0h0a1.33,1.33,0,0,0-1.16.44v0h0l0,0a4.38,4.38,0,0,0-2.17.92h-.07a4.5,4.5,0,0,1,2.21-.94,1.35,1.35,0,0,1,1.24-.44,1.15,1.15,0,0,1,1.2-.48,2.67,2.67,0,0,1,1.86-.77c.28-.41.75-.41,1.15-.56l1.23-.46c.33-.28.86-.21,1.13-.62-1.62-.67-1.59-2-1.4-3.44s-.46-1.38-1.4-1.2a32.79,32.79,0,0,1-4.75.46c-2.63.13-5.26.34-7.87.58-2,.19-3.91.48-5.84.61-3.43.21-6.79.74-10.17,1.21-5.93.81-11.69,2.49-17.57,3.49a17.73,17.73,0,0,0-9.44,4.37,6,6,0,0,0-2.12,4.11h0a2.78,2.78,0,0,0-.22,1.9,3,3,0,0,1-.48,2.2v0a1.15,1.15,0,0,0-1.41-.84C39.6,35,38.68,35,38.68,36H40.9L41,36l0,0,.09.09s0,0,0,0l0,0-.09-.09H38.68l0,.28h0c-.15.87.34,1.62.46,2.44l.23.36c.32.86.75,1,1.22,1-.48.07-.92-.1-1.22-1l-.23-.37a34.4,34.4,0,0,0-4.63,4.87,5.76,5.76,0,0,0-1.37,2.59,2.13,2.13,0,0,0,1.31,2.62l9-2.89,0,0-9,2.87-.08.37h0c0,.23.18.31.39.33a.34.34,0,0,0-.13-.23.26.26,0,0,1,.15.24l.49.21a1.05,1.05,0,0,1,.61-.54l4.1-1.32-4.07,1.32a1.05,1.05,0,0,0-.61.54c2.62,3.91,5.22,7.83,7.86,11.73a13,13,0,0,1,2.5,7.72v.37a9,9,0,0,1,.23,3.22v.4c.33,1.42.1,2.86.33,4.4h-.06c-.19-1.46.06-3-.27-4.4a44.84,44.84,0,0,0,0,4.92h0c-.82.82-1.78,1.25-2.11,2.62s-.21,1.56,1.14,1.56H84.76c1.46,0,3,.16,4.46-.53a39.5,39.5,0,0,0,9-5.65,71.89,71.89,0,0,0,11.4-13c1.18-1.67.93-2.39-1-3.38a.14.14,0,0,0,0-.06c-.08-2.42-.15-4.85-.23-7.29,0-.49,0-.93.51-1.23a13.36,13.36,0,0,0,4.48-3.84,2.86,2.86,0,0,1,1.73-.94c1.86-.46,3.91-.62,4.79-2.82a4.66,4.66,0,0,1,4.88-3.23A4.8,4.8,0,0,0,130,36.72c.43-1.66,1-3.3,1.43-5,.61-2.47.66-5,1.43-7.47A5.42,5.42,0,0,0,132,19.18ZM105.55,5.53c0,.29.23.61.72,1.1C105.76,6.14,105.52,5.83,105.55,5.53ZM98.33,19.28h0c.2-.56.76-.42,1.2-.48.29-.66,1-.4,1.41-.66a.15.15,0,0,1-.06.05c-.41.21-1.06,0-1.34.62h0l0,0c-.43.05-.92-.07-1.16.46ZM96.67,20a2,2,0,0,0,1.12-.45h0a2.07,2.07,0,0,1-1.14.45ZM39,39.68h0l.09,0Zm.74.78c-.27-.06-.27-.6-.59-.75.35.15.34.69.62.75a1.45,1.45,0,0,0,.35,0A1.69,1.69,0,0,1,39.71,40.46ZM42.83,47c.2-.08.41-.16.38.19C43.22,46.88,43,46.9,42.83,47Zm72.84-20c-.63-.12-1.48.78-1.87-.23C114.2,27.65,115,26.79,115.67,26.91Zm-4.3,7.44-.12-.11-.15-.2A4,4,0,0,0,111.37,34.35Zm-3.51-17.67a9.61,9.61,0,0,0,1.22-5.3,9.61,9.61,0,0,1-1.22,5.3c-.88,1.92-2,3.74-2.67,5.74A60.78,60.78,0,0,1,107.86,16.68ZM105.1,29.56a15.17,15.17,0,0,1,1.22,4.09,15.17,15.17,0,0,0-1.22-4.09,10.44,10.44,0,0,1-.41-1.31A10.44,10.44,0,0,0,105.1,29.56Zm-32.66.79v-.27c.22-1,1.15-1,1.86-1.17s1.06.22,1.32.84a13.48,13.48,0,0,1,.85,2.43l.49.34a1.43,1.43,0,0,1,1.71.92.94.94,0,0,1,0,.53,1,1,0,0,0,0-.53c-.19-.82-1-.92-1.71-.92.38,1.14-.22,1.41-1.23,1.7-.81.24-1.56.48-2.16,0,.62.52,1.41.26,2.15,0,.93-.27,1.6-.56,1.24-1.7l-.47-.31a13.8,13.8,0,0,0-.85-2.41c-.26-.62-.57-1-1.32-.84s-1.64.17-1.86,1.17v.27h0a.42.42,0,0,0,.08.45l-.06.3.05-.31A.44.44,0,0,1,72.44,30.35ZM78,34.7a3.42,3.42,0,0,1-.42.23,4.74,4.74,0,0,1-2,.65,4.74,4.74,0,0,0,2-.65A3.55,3.55,0,0,0,78,34.7Zm-4-.58c-.19-.17-.26-.56-.44-.83C73.71,33.53,73.78,33.92,74,34.12Zm-.08-3.51A1.81,1.81,0,0,0,75.16,30l0,0A1.75,1.75,0,0,1,73.87,30.61Zm-.45,2.57,0,0h0Zm-.7-1.48,0-.09-.25-.08h0l.25.07a.68.68,0,0,0,0-.54.68.68,0,0,1,0,.59Zm-.35-.14Zm4.24,12h0a2,2,0,0,1,.34,0l-.31,0h0l-8.42-.06c-.42,0-.86.05-1.28.05h0a11.3,11.3,0,0,1,1.3,0Zm-8,8.86c.2-.56.89-.6,1.2-1.07-.31.47-1,.51-1.2,1.07A4.53,4.53,0,0,0,71,51.08l.46-.18c-.9.6-1.65,1.51-2.82,1.6,0,.72-.78.84-1.12,1.31-.63.85-1.33,1.65-2,2.47a.49.49,0,0,1,0-.13c.65-.8,1.33-1.58,1.94-2.41.34-.47,1.12-.59,1.12-1.31-.62.09-1,.6-1.38,1-.77.72-1.23,1.77-2.23,2.24.36-.19.46-.14.48,0-.07,0-.19,0-.41.11s-.47-.09-.55-.09c-2.65,1.33-3.29-1.1-4.53-2.41a.91.91,0,0,1-.15-.23,1.25,1.25,0,0,0,.08.12c1.24,1.31,1.88,3.74,4.53,2.41.08,0,.34.15.55.09,1-.47,1.45-1.54,2.23-2.29A3,3,0,0,1,68.56,52.38Zm-1-7.72h0Zm0,.05h0a.54.54,0,0,1,.09.25c.13,0,.3,0,.27-.19l0,0c.11.25-.08.26-.22.26s-.06-.08-.1-.12S67.59,44.8,67.55,44.71Zm1.11,1.75a8.34,8.34,0,0,1,.7,1.62l0,0A7.94,7.94,0,0,0,68.66,46.46Zm0,3.83s0,.06,0,.09a2.08,2.08,0,0,0,0-.25A.92.92,0,0,1,68.7,50.29Zm1.51.94h0c-.33-.55-.06-1.18-.17-1.72a4.57,4.57,0,0,0-.17-1,3.22,3.22,0,0,1,.24,1.1C70.19,50.16,70,50.71,70.21,51.23ZM59.69,56.34a4.93,4.93,0,0,1-1.27,3.35c-.26.3-.88.48-.82,1-.09-.55.55-.72.82-1a4.94,4.94,0,0,0,1.27-3.31Zm-.37-12.93h-.08a2,2,0,0,1,1.42-1.16A2.06,2.06,0,0,0,59.32,43.41ZM57.87,62c.13.16.3.28.42.43.46.62.94.67,1.55,0h0c-.61.69-1.09.61-1.55,0-.12-.15-.29-.27-.42-.43-.4-.49-1-.92-1.13-1.49v0C56.88,61,57.48,61.52,57.87,62ZM58,67.69c-.6,0-1.21,0-1.82,0-1.43-.12-1.56-.24-2.22-1.91l.14,0c.66,1.65.79,1.77,2.21,1.89C56.87,67.67,57.43,67.69,58,67.69Zm-2.47,5.55a68.31,68.31,0,0,0,12.78.54h0a67.88,67.88,0,0,1-12.74-.53c-.89-.14-1.3.15-1.54,1.06H54C54.21,73.39,54.62,73.1,55.52,73.24Zm5.59-3.11a19.05,19.05,0,0,0-3.63,2.47l.1.45h0l-.07-.45a18.44,18.44,0,0,1,3.6-2.48,2.9,2.9,0,0,1,2.26-.42A2.91,2.91,0,0,0,61.11,70.13ZM58,66a34.63,34.63,0,0,0,13.26-2.75A34.45,34.45,0,0,1,58,66Zm7.17-17.43v0a1.18,1.18,0,0,0,0,.21C65.21,48.71,65.19,48.65,65.18,48.58Zm.85,1v-.05h.15a.58.58,0,0,0,.51-.62h0a.49.49,0,0,1,0,.17A.57.57,0,0,1,66,49.59Zm3.19-8.44c.6.12.82.63,1.17,1.08h0c-.33-.44-.55-.93-1.12-1Zm-.12.14s-.12,0-.12,0v-.07l.06,0ZM69,41.13h0l0,0v0c-1.73-.28-3.39-.9-5.16-1.07a11.33,11.33,0,0,0-2.4,0,11.42,11.42,0,0,1,2.48,0c1.75.17,3.38.77,5.08,1.06Zm-2.15-1.94-.21,0h0A.56.56,0,0,1,66.84,39.19Zm-1.08-.3L66,39l-.2-.13a6.54,6.54,0,0,0-.59-.3A6.54,6.54,0,0,1,65.76,38.89Zm-5.16-.4a3.79,3.79,0,0,1,4.25-.56,3.81,3.81,0,0,0-4.18.6l.06,0c-.49.7-1.35,1-1.75,1.8l0,0a.16.16,0,0,0-.14.21s.06,0,.12,0-.14.07-.2,0,0-.21.14-.21c.39-.81,1.27-1.11,1.77-1.81h0Zm-1.3.65h.06A11.9,11.9,0,0,0,57,42.05h0A12,12,0,0,1,59.3,39.14Zm-4,13.1a.22.22,0,0,1,0,.08s0,0,0,0a.48.48,0,0,0,0-.12,1.08,1.08,0,0,0-.09-.42A.91.91,0,0,1,55.26,52.24Zm-.33,2.44a1.53,1.53,0,0,0,2.1-.55,1.31,1.31,0,0,1-.19.27,1.54,1.54,0,0,1-2.18.11,2.22,2.22,0,0,1-.73-.89,2,2,0,0,0,.73.86A1.35,1.35,0,0,0,54.93,54.68Zm-1.06-3.43h0l.14,0Zm.51-9.57.07,0c-3,.38-6,.79-8.38,2.62C48.48,42.48,51.4,42.05,54.38,41.68Zm-.63,10a5.65,5.65,0,0,0,0,1A5.65,5.65,0,0,1,53.75,51.65Zm-1-10.45c0,.53-.46.35-.73.35a13.09,13.09,0,0,0-5.69,2A3.6,3.6,0,0,0,45,45.06c-.68-1.46.6-3.77,2.42-4.2S50.93,41,52.7,41.2ZM47.38,31.1c.13,0,.33-.09.4.12a.26.26,0,0,1,0,.21s0,0,0,0a.26.26,0,0,0,0-.21c-.07-.21-.27-.12-.4-.12a38.68,38.68,0,0,0-4.8.51h-.06A38,38,0,0,1,47.38,31.1ZM42,39.65c.42-.07.55-.24.56-.43,0,.2-.13.36-.56.44a7.9,7.9,0,0,0-.9.3A7.41,7.41,0,0,1,42,39.65Zm-1,1.9a5.09,5.09,0,0,0,2.53-.79c.4-.21.82-.43.73-1s-.18-1.21-1-1.21a.92.92,0,0,0-.38.07.74.74,0,0,1,.38-.07l-.88-.36a.69.69,0,0,0,0,.2.51.51,0,0,1,0-.21l.91.37c.79,0,.87.57,1,1.21s-.33.84-.73,1A5,5,0,0,1,41,41.55Zm3,6.15a.49.49,0,0,0,.24-.62A.46.46,0,0,1,44,47.7Zm4.78.91,0,0v0l0,0Zm.72-2.25-.08-.07.08.07Zm-4-.1a1.33,1.33,0,0,1-1,0v.06c.07.24-.09.32-.27.32l-.08.24a.66.66,0,0,1,.07.15.7.7,0,0,0-.08-.14l-.41.59s0-.06,0-.09l.35-.51.08-.24.27-.32v-.06c0-.06.07-.1.1-.15l-.06.1a1.33,1.33,0,0,0,1,0c1.38-.35,2.77-.67,4.13-1,0,0,0,0,0,.07C48.24,45.6,46.87,45.92,45.5,46.26Zm5.68,10.58a12.12,12.12,0,0,1,5.54-.54c.89.09,1-.28,1.09-.91v0a1,1,0,0,1-1.3.56,8,8,0,0,0-4,.12,1.68,1.68,0,0,1-.94-.07L51.47,56a1.76,1.76,0,0,0,1,.08,8,8,0,0,1,4-.12l0,0a1,1,0,0,0,1.26-.63c-.09-.36.18-.66.3-1a13.73,13.73,0,0,0,.42-3h.24c-.13-1.18-.69-2.27-.49-3.49-.12,0-.22.18-.36.17.12,0,.21-.16.32-.16V47a5.39,5.39,0,0,1,1-3.52h0a5.39,5.39,0,0,0-1,3.52l1-3.52h0s0,0,0,0h0l-1,3.55v.87c-.2,1.21.36,2.32.49,3.48a1.12,1.12,0,0,1,.48,1.06.75.75,0,0,1,.42.4.68.68,0,0,0-.35-.29s-.07,0-.11-.08h0a1.12,1.12,0,0,0-.48-1.06h-.24a13.73,13.73,0,0,1-.42,3c.61-.52.5-1.31.65-1.94.08-.33.17-.31.26-.21s-.12,0-.18.28c-.16.66,0,1.43-.65,2-.12.3-.39.6-.3,1-.09.63-.2,1-1.09.91a12.3,12.3,0,0,0-5.61.55Zm12.12,19c-3.3-.27-6.62-.42-9.92-.75-.6,0-.82-.16-.67-.85a18,18,0,0,0-.07-9h0a18,18,0,0,1,.11,9c-.15.69.07.85.67.85,3.3.33,6.62.48,9.92.75a8,8,0,0,0,6.27-2A7.83,7.83,0,0,1,63.3,75.81Zm8.13-8.54a12.22,12.22,0,0,0-6.83,2.25c-.21.17-.41.55-.76.43.33.09.53-.27.73-.44a12.22,12.22,0,0,1,6.83-2.25c.31,0,.63-.1.87.12A1.35,1.35,0,0,0,71.43,67.27Zm2.65-4.18a1.4,1.4,0,0,0,.22-1.19A1.35,1.35,0,0,1,74.08,63.09Zm-1.5-1.18c.86-.43,1.79-.92,2.83-1.48h0C74.37,61,73.44,61.48,72.58,61.91Zm5.16-17.8h-.21c-.13.08-.26.23-.39.23-2.9,0-5.8.17-8.69-.11a.79.79,0,0,0-.87.37l-.06,0h0l-.05,0a.79.79,0,0,1,.92-.45c2.89.28,5.79.11,8.69.11.13,0,.26-.13.38-.22h.22a5.82,5.82,0,0,1,.61.72l0,.08A6.34,6.34,0,0,0,77.74,44.11Zm.51-.32a.25.25,0,0,1-.13,0,.42.42,0,0,0,.13,0,1.74,1.74,0,0,0,.69-.21A1.93,1.93,0,0,1,78.25,43.79Zm2.21-1.65c-.18.17-.36.37-.54.57.18-.2.36-.4.54-.58q1-1,2.16-1.89C81.89,40.86,81.17,41.49,80.46,42.14Zm3.62-4c-2,1.69-4,3.55-6.17,5.05a.08.08,0,0,1,0,0v0a.76.76,0,0,1-.34.16.72.72,0,0,0,.28-.16c2.17-1.5,4.17-3.36,6.17-5,2.39-1.92,4.7-3.87,7-5.87,3.1-2.67,7-4,10.43-6a2.12,2.12,0,0,1,1.12-.35,28.27,28.27,0,0,0,.88-3.4c.07-.24.23-.53,0-.74h0c.26.21.09.52,0,.78a28.27,28.27,0,0,1-.88,3.4c.54.42.16,1,.24,1.48a9.71,9.71,0,0,0,.4,2,4.29,4.29,0,0,1-.16,3.94,7.9,7.9,0,0,0,1,8.67c.49.64.45.92-.21,1.26.3-.26.24-.56-.14-1.06a7.9,7.9,0,0,1-1-8.67,4.29,4.29,0,0,0,.16-3.94,9.71,9.71,0,0,1-.4-2,1.83,1.83,0,0,0-1.82-.21l-.31.14a.83.83,0,0,0,.11-.15,1.4,1.4,0,0,0-.66.19,1.35,1.35,0,0,1,.68-.2l.5-.21a1.83,1.83,0,0,1,1.82.21c-.08-.48.3-1.06-.24-1.48a2,2,0,0,0-1.07.33c-3.43,2-7.33,3.34-10.43,6C88.73,34.27,86.42,36.24,84.08,38.16Zm14.44-9.7a.42.42,0,0,1,.35-.1l0,0a.45.45,0,0,0,.44-.21.33.33,0,0,0-.24,0,.54.54,0,0,1,.29-.06h0A1.41,1.41,0,0,0,100,28a1.47,1.47,0,0,1-.94.41.43.43,0,0,1-.37.2.31.31,0,0,0,.15-.15A.59.59,0,0,0,98.52,28.46Zm-.45.23a.39.39,0,0,1,.33-.12l-.05.06a.34.34,0,0,0,.2,0,.41.41,0,0,1-.37.18.4.4,0,0,0,.13-.13A.63.63,0,0,0,98.07,28.69Zm-2.35,1.2a.38.38,0,0,1,.41-.15,3.81,3.81,0,0,0,1.29-.6v0l.42-.26-.19,0c.06-.12.17-.14.3-.14a.22.22,0,0,0-.07.09.37.37,0,0,0,.21,0,.42.42,0,0,1-.39.15l-.42.26a4,4,0,0,1-1.43.71.35.35,0,0,0,.11-.1A.36.36,0,0,0,95.72,29.89Zm-1.49.75A2.26,2.26,0,0,1,95.59,30a.35.35,0,0,0-.13.11.57.57,0,0,0,.26,0,.5.5,0,0,1-.31.12l0,0A2.34,2.34,0,0,0,94.23,30.64Zm-.66.43c.08-.16.23-.17.39-.17l-.17.17a2.12,2.12,0,0,0,.45-.11,2.66,2.66,0,0,1-.55.16s0,0,.06-.06Zm-.45.24a.32.32,0,0,1,.35-.2.31.31,0,0,0-.16.16.38.38,0,0,0,.24,0,.41.41,0,0,1-.3.09s0,0,0,0Zm0,.18a.27.27,0,0,1-.12,0l0,0ZM108,59.13a3.6,3.6,0,0,1-.52,1.63,29.38,29.38,0,0,1-9,9.84c-1.57,1.16-3.25,2.18-4.87,3.28a1.08,1.08,0,0,1-.18.11c1.55-1,3.15-2,4.65-3.14,3.65-2.69,6.9-5.75,9-9.84a3.48,3.48,0,0,0,.57-1.68V52a11.77,11.77,0,0,1-7.94.85c-3.8-1-7.45-2.33-8-7.09,0-.31-.27-.61-.27-.92-.22-1.49-.44-3.1.56-4.49.16-.21.32-.47.54-.44a2.23,2.23,0,0,0-.19.24c-1,1.39-.78,2.95-.56,4.49.05.31.27.61.27.92.54,4.76,4.19,6.09,8,7.09a11.77,11.77,0,0,0,7.94-.85Zm-1.42-15a1,1,0,0,0-1.09,0c-2.86,2-5.73,1.62-8.73.21-1.25-.58-2.32-1.5-3.65-2V46a2.62,2.62,0,0,0,.06.57,2.43,2.43,0,0,1-.07-.61V42.33c1.33.49,2.4,1.41,3.65,2,3,1.41,5.87,1.79,8.73-.21a1,1,0,0,1,1.09,0c1.76.84,3.54,1.65,5.43,2.53C110,45.72,108.24,44.91,106.53,44.11Zm-1-2.94.11.11-.11-.11Zm9.24,3.72a11.8,11.8,0,0,1-1.33,0,11.1,11.1,0,0,0,1.29,0,4,4,0,0,0,3.4-1.72c-7.79-.44-11.15-2.34-13.1-7.67,1.95,5.33,5.32,7.23,13.14,7.67A4,4,0,0,1,114.78,44.89Zm1.48-10.24a9,9,0,0,1-3.23-1.2,2.13,2.13,0,0,1-.34-.25,2.13,2.13,0,0,0,.34.25,9,9,0,0,0,3.23,1.2,20.13,20.13,0,0,0,2.68.28A20.13,20.13,0,0,1,116.26,34.65Zm.49-6.18c.93-.1,1.87-.17,2.8-.21h0C118.62,28.3,117.68,28.37,116.75,28.47Zm2.9,7.13a10.14,10.14,0,0,0,1.37-.48c-.39-.06-.79-.1-1.19-.13.4,0,.8.07,1.19.13A10.14,10.14,0,0,1,119.65,35.6Zm0-19.76c-.41.15-.85.2-1.28.32-2.6.69-3.32,1.78-3,4.46,0,.39.15.6.41.63-.27,0-.37-.23-.42-.63-.31-2.68.41-3.77,3-4.46.43-.12.87-.17,1.28-.32a8.56,8.56,0,0,1,3-.55A8.79,8.79,0,0,0,119.69,15.84Zm3.8,22.91a2.93,2.93,0,0,0-.66,0,2.93,2.93,0,0,1,.66,0,6.35,6.35,0,0,0,1,0A6.35,6.35,0,0,1,123.49,38.75Zm4.76-5.33a1.67,1.67,0,0,1,.16.24v0A1.92,1.92,0,0,0,128.25,33.42Zm1.25-1.2h0a4.79,4.79,0,0,0-.05-5.41A4.79,4.79,0,0,1,129.5,32.22Zm.93-6.4h0c1.36-2.48,1.19-4.53-.2-6.29C131.62,21.29,131.79,23.34,130.43,25.82Z"/><path class="cls-1" d="M70.22,119.05a30.8,30.8,0,0,1-9-1.14,16.91,16.91,0,0,1-3.45-1.38l-2.13,0-.1-1.92a24,24,0,0,1,0-3.06h-.63a34.8,34.8,0,0,1-4.32-.27,15.86,15.86,0,0,1-3.1-.85l-.94-.38-.24,0V110l-.08,0v-1.52a12.82,12.82,0,0,1,3.31-9.37A17.67,17.67,0,0,1,57.08,94a4.65,4.65,0,0,1,1.38-.43l.28,0a.77.77,0,0,0-.33.24l.51,0v.39l1.13.18-.5-1.63c-1-3.19.13-5.79,3.17-7.33.25-.12.5-.24.75-.34a19.29,19.29,0,0,1,1-3.35l.5-1.27H78.28l0,0h6.61l0,2A14.06,14.06,0,0,1,84.53,86,3.71,3.71,0,0,0,85,88.43a4.37,4.37,0,0,1,.88-.08,4.53,4.53,0,0,1,4.34,3.18v0A16.09,16.09,0,0,1,91,95.37a16.71,16.71,0,0,0,.42,2.44A47.51,47.51,0,0,1,92.83,106c0,.11,0,.22,0,.33l0,0v1.23c.53,4.08-1.91,6.17-4.38,7.68A23.16,23.16,0,0,1,77,118.83l-1.83.08c-1.6.07-3.25.14-4.89.14ZM65.1,93.94c.59.21,1.18.45,1.75.69A6.58,6.58,0,0,0,65.1,93.94Z"/><path class="cls-1" d="M90.87,107.62c-.45-.22-.75.14-1.08.31-2.84,1.41-5.66,2.85-8.49,4.29-1.35.82-2.9.73-4.36,1a32,32,0,0,1-7.11.67h0a32.22,32.22,0,0,0,7.07-.67c1.47-.27,3-.18,4.37-1l-.36-.06c-1.22.2-2.43.42-3.65.59-2.52.36-5,1-7.59.79a37.11,37.11,0,0,1-10.93-2.93,1.1,1.1,0,0,1-.79-1.15,12.33,12.33,0,0,1,.62-4.69,12.69,12.69,0,0,0-.58,4.66,1.1,1.1,0,0,0,.79,1.15,37.11,37.11,0,0,0,10.93,2.93c2.59.21,5.07-.43,7.59-.79,1.22-.17,2.43-.39,3.65-.59a23,23,0,0,0-1.63-7.48C78,101.38,75.8,98.9,72.21,98l-.25-.4c-.78,0-1-.33-1.13-.73.09.38.36.66,1.12.69l.25.4c3.59.93,5.75,3.41,7.12,6.69A22.62,22.62,0,0,1,81,112.13l.31,0c2.83-1.44,5.65-2.88,8.49-4.29.33-.17.63-.53,1.08-.31-.37-.43,0-.9,0-1.36a44.3,44.3,0,0,0-1.36-7.82c-.59-2-.42-4.17-1.19-6.17a.25.25,0,0,0,0-.07,2.55,2.55,0,0,0-3.2-1.67,6.87,6.87,0,0,1,1.51,4.27A1.16,1.16,0,0,1,85.75,96a12.88,12.88,0,0,1-3.13.69c-.25,0-.74.07-.38-.44v0c.94-.19,1.88-.33,2.84-.48a1.14,1.14,0,0,0,1-.73,6.73,6.73,0,0,0-1.24-3.84,5.8,5.8,0,0,1-2.27-5.78,12,12,0,0,0,.32-3H75.65c-.44,1.54-.06,3.09-.06,4.64V89l0,0V87c.06-1.55-.38-3.1.06-4.64H72.75a12.76,12.76,0,0,0-.63,3.92,12.82,12.82,0,0,1,.63-3.93H66.32a18.33,18.33,0,0,0-1.07,4c-.54.23-1.1.43-1.63.69-2.17,1.1-2.88,2.67-2.17,5a8.27,8.27,0,0,1,8.85,3l.46.07c3.38-.66,6.69-.66,9.69,1.34a3.3,3.3,0,0,1,1,.93,3.5,3.5,0,0,0-1-.9c-3-2-6.31-2-9.69-1.34a.08.08,0,0,1,0,0l-.46-.07c.23,2.08.23,2.08-1.9,2.2h-.35v.39h0a11.3,11.3,0,0,0-3.12.81c-.31.22-.64.43-1,.63.33-.2.66-.41,1-.63h0a11.28,11.28,0,0,1,3.08-.8v-.39c-2.43-1.07-4.8-2.31-7.56-2.22-.34,0-.34-.27-.34-.49-.35,1.07-1.45.73-2.18,1.15.33,0,.65-.05,1-.05-.31,0-.61,0-.92.05a16,16,0,0,0-7,4.63,10.82,10.82,0,0,0-2.79,7.89h0v.27a12.76,12.76,0,0,0,2.62.73,31.46,31.46,0,0,0,5.82.21c.61,0,1.17.14,1,.87a23.79,23.79,0,0,0-.16,4.13h.7c-.83-1.19-.27-2.47-.43-3.84l.05,0c.15,1.36-.4,2.64.42,3.82A14.66,14.66,0,0,0,61.78,116c5,1.49,10,1,15.1.84a21,21,0,0,0,10.56-3.25c2.37-1.45,3.85-3,3.43-5.84ZM82.15,95.25a9,9,0,0,0,.14-1.56,8.9,8.9,0,0,1-.14,1.63.22.22,0,0,1,0,.08A.76.76,0,0,0,82.15,95.25Zm-11-2.2a11.25,11.25,0,0,0-.06-4A10.8,10.8,0,0,1,71.18,93.05Zm-9.54,7.65c-.13.1-.27.19-.4.3s-.08.27-.26.13h0s.17-.13.25-.13Zm-.6.12a.46.46,0,0,0-.07.3C60.83,101,60.93,100.9,61,100.82ZM57.57,108c0,.92-.28,1.15-1.16,1.15a27.51,27.51,0,0,1-7.07-.57,27.42,27.42,0,0,0,7.06.54c.88,0,1.16-.23,1.16-1.15a7.78,7.78,0,0,1,1.3-4.58c.17,0,.23.12.25.2,0-.07-.09-.12-.24-.17A7.78,7.78,0,0,0,57.57,108Z"/><path class="cls-1" d="M56.33,116.56a26.61,26.61,0,0,1-5.12-.5,9.83,9.83,0,0,1-1.86-.59c-2.43-1-3.22-2.19-3.22-4.84a17.32,17.32,0,0,1,.1-2.24l.31-2.56,2.41.94a11.24,11.24,0,0,0,2.22.62,30,30,0,0,0,3.73.23c.55,0,1.1,0,1.65,0h.1a3,3,0,0,1,2.54,1.07,2.58,2.58,0,0,1,.44,2.16,20.81,20.81,0,0,0-.11,3.62l.12,2-2,.1Q57,116.56,56.33,116.56Z"/><path class="cls-1" d="M57.65,110.44c.2-.73-.36-.87-1-.87a31.46,31.46,0,0,1-5.82-.21,12.76,12.76,0,0,1-2.62-.73,16.64,16.64,0,0,0-.08,2c0,1.8.28,2.28,2,3a7.15,7.15,0,0,0,1.47.46,23.55,23.55,0,0,0,5.92.44A24.32,24.32,0,0,1,57.65,110.44Z"/><path class="cls-1" d="M22.85,70.71l-4.61,5.16-.71-4.06a44.1,44.1,0,0,1-.59-4.72,1.31,1.31,0,0,0-.27.06,4.37,4.37,0,0,1-5-2,32.88,32.88,0,0,1-2.43-4.05,34.91,34.91,0,0,0-1.9-3.26c-1.71-2.44-.81-4.71,0-6.31Q5.09,43.88,2.82,36.33c-.36-1.21-.72-2.41-1.07-3.62-.5-1.68-1-3.36-1.5-5a3.51,3.51,0,0,1,.91-3.91C7.89,17.11,13.73,11.29,19,6c.08-.09.22-.22.5-.47L23,2.43l1.16,26.76L29.86,24l2.93.88-.12,1.61Q32,35.26,31.29,44.09a6.15,6.15,0,0,1,2,2.72l3.17,1.36,3,4.41q2.61,3.91,5.23,7.8a14.88,14.88,0,0,1,2.84,8.85v5l-3.43-3.58A3.3,3.3,0,0,1,43.22,68s0-.09,0-.14a13,13,0,0,0-1.32-3.62,60,60,0,0,1-4.51,4.23,8.75,8.75,0,0,1-3.52,1.71c-.54.15-1.15.3-1.77.45-.48,5.75-1.56,18.77-1.56,18.77l-3.75.7Zm10.3-16.39a3.91,3.91,0,0,1,.2,2.19l0,.25c-.09,1.25-.2,2.49-.31,3.73a.25.25,0,0,0,0,.08c.66-.07,1.46-.5,2.69-2.34a15.36,15.36,0,0,0,1.06-1.7,15.75,15.75,0,0,0-1-1.58l0-.09c-.29-.43-.59-.83-.89-1.22a21.51,21.51,0,0,1-1.4-2C33.28,52.49,33.19,53.41,33.15,54.32Z"/><path class="cls-1" d="M45.5,69.22A13,13,0,0,0,43,61.5c-2.64-3.9-5.24-7.82-7.86-11.73l-.49-.21c.6,1.59,1.79,2.79,2.7,4.18,1.88,2.79,1.9,2.76,0,5.6-1.57,2.34-3.4,4-6.5,2.86a3.33,3.33,0,0,0-.17,1.5,22.86,22.86,0,0,0-.3,3.87,6.08,6.08,0,0,0,2.13,0,6.4,6.4,0,0,1-2.14.07v0a22.62,22.62,0,0,1,.3-3.85,3.33,3.33,0,0,1,.17-1.5c.16-1.87.35-3.73.48-5.59,0-.6.29-1.25-.2-1.78v0a30.24,30.24,0,0,1,.37-3.91c.55-2.54.09-4.48-2.26-5.79l0,0q.75-9.42,1.47-18.82l-.3-.09-8.06,7.36c-.39-9-.77-17.78-1.16-26.84-.44.39-.59.51-.72.65-5.91,6-11.91,11.93-17.91,17.86A1.5,1.5,0,0,0,2.13,27c.88,2.92,1.73,5.85,2.6,8.77q2.38,7.92,4.75,15.92c-.78,1.61-1.72,3.2-.46,5C10.65,59,11.68,61.73,13.39,64a2.35,2.35,0,0,0,2.73,1.18c.53-.15,1.09-.19,1.63-.32a.91.91,0,0,1,1.09.48h0a45.6,45.6,0,0,0,.65,6.07L24,66.4l4.35,21.39.32-.06q.78-9.35,1.55-18.68c1.07-.27,2.15-.51,3.2-.8A6.51,6.51,0,0,0,36.1,67a56.1,56.1,0,0,0,5.6-5.41c.4-.47.54-.47.84,0a14.67,14.67,0,0,1,2.67,6.07C45.27,68.15,45.05,68.75,45.5,69.22ZM30.42,47.11a1.87,1.87,0,0,1,.5,1.32,1.86,1.86,0,0,0-.5-1.3A9.44,9.44,0,0,0,20,44.76c-.56.27-.95.54-.68,1.27A3.92,3.92,0,0,0,24,48.45,3.93,3.93,0,0,1,19.33,46c-.32-.73.12-1,.68-1.27A9.43,9.43,0,0,1,30.42,47.11Zm.16,3.62c-.93-.49-1.82-.95-2.69-1.42C28.76,49.78,29.65,50.24,30.58,50.73ZM28.66,34.32c.1-.06.24,0,.42.11v0q-.37,5-.76,10l0,0c.26-3.34.51-6.67.76-10C28.88,34.32,28.76,34.29,28.66,34.32Zm-8.88-25a1.55,1.55,0,0,0-.32.35A1.36,1.36,0,0,1,19.78,9.35Zm-.2,34.85a23.6,23.6,0,0,1,5-.78,24.21,24.21,0,0,0-4.87.78c-1,.22-1.3,1.1-.93,2.1a4.53,4.53,0,0,0,5.52,2.79,3,3,0,0,1,2.7.54c-.52,1.14-1,2.29-1.55,3.43.5-1.13,1-2.26,1.51-3.39a3,3,0,0,0-2.7-.54,4.52,4.52,0,0,1-5.56-2.83C18.28,45.32,18.58,44.42,19.58,44.2Zm3.79,13.73a1.47,1.47,0,0,0,.14-.69,1.55,1.55,0,0,0-1.29-1.47,2.14,2.14,0,0,1,.34.09,1.55,1.55,0,0,1,.85,2,3.36,3.36,0,0,1-1.52,1.63A3.47,3.47,0,0,0,23.37,57.93Zm-1.44-2.18h0l.15,0ZM18,44.49c-.2,1.12.32,2.21.19,3.37h0C18.24,46.72,17.71,45.62,18,44.49Zm.63,7.14c.45,0,.62-.24.56-.7.06.46-.08.67-.56.7s-1,.11-1.43.11C17.58,51.74,18.13,51.66,18.58,51.63ZM14.33,48l1.52-.22,1.25-1.4v0l-1.22,1.36L14.32,48Zm-.22,1.12c-2.54.38-3.32,2.46-4.32,4.38C10.78,51.58,11.57,49.49,14.11,49.12ZM11.83,55q.2-.37.42-.72-.23.34-.42.72c-.4.69-.75,1.4-1.2,2.26C11.08,56.39,11.43,55.68,11.83,55Zm7.46,6.2h-.64c-.21.79.15,1.58,0,2.36h0c.14-.78-.22-1.57,0-2.36l0,0h.61s0,.06,0,.09S19.29,61.21,19.29,61.19Zm-7-4.9a4.68,4.68,0,0,0-.67,1.8,4.89,4.89,0,0,1,.67-1.84c1.77-3.11,3.9-4.15,7.55-3.7a2,2,0,0,1,1.49,1.78v0a2,2,0,0,0-1.49-1.77C16.18,52.14,14.05,53.18,12.28,56.29Zm10.56,3.8-.82.46c-.72,1.65-1.44,3.29-2.17,4.94.09,1.19.18,2.37.29,3.75l0,0-.29-3.78s0,0,0-.07Q20.88,63,22,60.54l0,0,.82-.46c1.19-.64,1.79-1.33,1.86-2.21C24.6,58.74,24,59.43,22.84,60.09Zm5.47,21.66H28L24.58,64.94a.47.47,0,0,0-.42-.16.43.43,0,0,1,.43.13v0l3.47,16.8h.27Zm0-24.18-.11-.3.51-6.65-.64-.31v0l.66.32a7.19,7.19,0,0,1,1.14.7,6.55,6.55,0,0,0-1.14-.69l-.52,6.67h0l.1.29a8.53,8.53,0,0,0,.83-.62A7.87,7.87,0,0,1,28.33,57.57ZM29.68,56h0c.64,0,.9-.53,1.23-.94C30.58,55.48,30.32,56,29.68,56Zm7.09,5.58a5.51,5.51,0,0,1-3.54,2.13,5.34,5.34,0,0,0,3.49-2.12,21,21,0,0,0,2.93-4h0A20.69,20.69,0,0,1,36.77,61.59Z"/><path class="cls-1" d="M67.24,99.16l-.85-.38a14.18,14.18,0,0,0-5.62-1.67h-.22a2.27,2.27,0,0,1-2.39-2.24l-.06-.46.14-.4a10.3,10.3,0,0,1,1.61-3.08l.4-.54.65-.18a10.08,10.08,0,0,1,2.78-.38,10.3,10.3,0,0,1,8.22,4.11l.32.43.06.54c.15,1.35.27,2.41-.52,3.35s-1.88,1-3.25,1.07h-.29l-.51,0Z"/><path class="cls-1" d="M68,97.33a2,2,0,0,1,.35,0c2.13-.12,2.13-.12,1.9-2.2a8.27,8.27,0,0,0-8.85-3,9.1,9.1,0,0,0-1.3,2.49c0,.22,0,.49.34.49C63.24,95,65.61,96.26,68,97.33Z"/><path class="cls-1" d="M44,73.67a6.45,6.45,0,0,1-.44-3.32c0-.25,0-.49,0-.74l3.94-.51A11,11,0,0,1,47.79,73L47,80.14Z"/><path class="cls-1" d="M45.57,69.59c0,1.08-.26,2.18.23,3.22A9,9,0,0,0,45.57,69.59Z"/><path class="cls-1" d="M45.35,42.19l1,3.58a2.23,2.23,0,0,1-.24,1.82,2.26,2.26,0,0,1-1.63,1l-5.36.89Z"/><path class="cls-1" d="M44.2,46.64c.18,0,.34-.08.27-.32Z"/><path class="cls-1" d="M43.14,45.91a4.61,4.61,0,0,1,.18-4,5.53,5.53,0,0,1,3.6-3,8.06,8.06,0,0,1,1.87-.21,17.77,17.77,0,0,1,3,.33q.57.1,1.14.18l1.73.24V41.2a2.28,2.28,0,0,1-2.33,2.37l-.29,0a11.1,11.1,0,0,0-4.71,1.68,1.5,1.5,0,0,0-.53.64l-1.78,4Z"/><path class="cls-1" d="M46.23,43.55a13.09,13.09,0,0,1,5.69-2c.27,0,.73.18.73-.35-1.77-.24-3.53-.75-5.28-.34s-3.1,2.74-2.42,4.2A3.61,3.61,0,0,1,46.23,43.55Z"/><path class="cls-2" d="M34.39,48.85a2.13,2.13,0,0,1-1.31-2.62,5.76,5.76,0,0,1,1.37-2.59,34.4,34.4,0,0,1,4.63-4.87l.23.37-.34.53c-.8.83-.39,1.37.48,1.67a5.07,5.07,0,0,0,4.14-.58c.4-.21.86-.41.73-1s-.21-1.21-1-1.21l-.91-.37a10.69,10.69,0,0,0-.75-2.39,3,3,0,0,0,.49-2.21,2.84,2.84,0,0,1,.22-1.92,4.27,4.27,0,0,0,1.29-.07c1.24-.11,2.48-.14,3.73-.16.09,0,.22.3.39.05a.26.26,0,0,0,0-.21c-.07-.21-.27-.14-.4-.12a40.19,40.19,0,0,0-5,.53,6,6,0,0,1,2.13-4.13A17.73,17.73,0,0,1,54,23.13c5.88-1,11.64-2.68,17.57-3.49,3.38-.47,6.74-1,10.17-1.21,1.93-.13,3.89-.42,5.84-.61,2.61-.24,5.24-.45,7.87-.58a32.79,32.79,0,0,0,4.75-.46c.94-.18,1.59-.22,1.4,1.2s-.22,2.77,1.4,3.44c-.27.41-.8.34-1.13.62l-1.23.46c-.4.15-.87.15-1.15.56a2.67,2.67,0,0,0-1.86.77,1.15,1.15,0,0,0-1.2.48,1.35,1.35,0,0,0-1.24.44,4.5,4.5,0,0,0-2.21.94,5.12,5.12,0,0,0,2.26-.89,1.61,1.61,0,0,0,1.19-.49,1.55,1.55,0,0,0,1.2-.48,3.87,3.87,0,0,0,1.92-.71,1.89,1.89,0,0,0,1.22-.46,1.75,1.75,0,0,0,1.19-.49l.78-.23c.26-.07.51-.38.76-.17s.07.52,0,.78a28.27,28.27,0,0,1-.88,3.4,2.12,2.12,0,0,0-1.12.35c-3.45,2-7.33,3.33-10.43,6-2.3,2-4.61,4-7,5.87-2,1.69-4,3.55-6.17,5-.38.33-.87.17-1.3.29h0a1.37,1.37,0,0,0-.91-.21H65.25a31.86,31.86,0,0,0-3.5-1,2.06,2.06,0,0,0-2.54,1.14,3,3,0,0,0-1.42-.11,65.93,65.93,0,0,0-12.46,2.16L45,45.24c2.6-2.63,6-3.11,9.45-3.54l-1.74-.57c-.57-.55-1.43-.29-2.4-.82,3.16-.38,5.94-1,9-1.19A12.16,12.16,0,0,0,57,42.06c4.51-2.82,8.93-1.25,13.38.17-.37-.47-.58-1-1.22-1.1H69a5.34,5.34,0,0,0-1.94-1.55c0-.35-.14-.49-.49-.36h0c-.11-.68-.79-.68-1.21-1a3.81,3.81,0,0,0-4.75.27l.06,0c-1.72.37-3.45.61-5.2.81-2.44.26-4.85.75-7.29.94-2.24.18-3.17.75-3.87,2.94-.2.66-.37,1.33-.51,2a1.06,1.06,0,0,1-.37.72ZM97.85,19.53c-.44,0-1-.06-1.2.48-.34.11-.79-.13-1.08.42A1.46,1.46,0,0,0,96.63,20a1.91,1.91,0,0,0,1.21-.48l.49-.23a1.94,1.94,0,0,0,1.2-.48,2.51,2.51,0,0,0,1.42-.67c-.45.26-1.12,0-1.41.66-.44.06-1-.08-1.2.48C98.16,19.33,98,19.3,97.85,19.53Zm-25.44,12c-1.3.62-2,1.86-2.93,2.9l2.92-2.91.27.09c.25.51.49,1,.73,1.53l-.24.53c-.84.78-.48,1.35.39,1.68a4.84,4.84,0,0,0,4-.42c.6-.31,1.3-.71,1.12-1.49A1.43,1.43,0,0,0,77,32.52l-.49-.34a13.48,13.48,0,0,0-.85-2.43c-.26-.62-.61-1-1.32-.84s-1.64.14-1.86,1.17v.27a.44.44,0,0,0,.1.5Z"/><path class="cls-3" d="M45.81,73.21v-.4a9,9,0,0,0-.23-3.22v-.37a13,13,0,0,0-2.5-7.72c-2.64-3.9-5.24-7.82-7.86-11.73a1.05,1.05,0,0,1,.61-.54L42.74,47c.22-.07.53-.18.47.23s.16.72.59.58.68-.44.35-.91l.08-.24c.18,0,.34-.08.27-.32v-.06a1.33,1.33,0,0,0,1,0c1.38-.35,2.77-.67,4.13-1,.22.45-.76.77,0,1.19-.29.7-.59,1.39-.88,2.09a5,5,0,0,0,.83,5.1,11.72,11.72,0,0,0,2,2.43c.27.42-.35.45-.43.82a12.3,12.3,0,0,1,5.61-.55c.89.08,1-.28,1.09-.91-.09-.4.18-.7.3-1,.61-.52.49-1.29.65-2s.33,0,.49,0c.4.13.42.55.65.8,1.24,1.31,1.88,3.74,4.53,2.41.08,0,.34.15.55.09.75-.41.39.27.49.5.67-.82,1.37-1.62,2-2.47.34-.47,1.08-.59,1.12-1.31h0c1.17-.09,1.92-1,2.82-1.6l-1.2.45c-.33-.55-.06-1.15-.17-1.72s0-1.2-.69-1.45a8.46,8.46,0,0,0-1.67-3.09c.14,0,.36,0,.25-.26a.25.25,0,0,0-.33-.12l-.06,0-.06-.06a.8.8,0,0,1,.93-.45c2.89.28,5.79.1,8.69.11.13,0,.26-.15.39-.23h.21a5.82,5.82,0,0,1,.61.72c2.22,4.1,4.71,8.11,5.86,12.68,1.47,5.78,1.23,11.72,1.22,17.62,0,.64-.43.65-.89.7-9.14.86-18.28,1.82-27.49,1.68-3.63,0-7.26,0-10.9.21C45.89,76.13,46.14,74.66,45.81,73.21Zm6.83-8a18,18,0,0,1,.07,9c-.15.69.07.8.67.85,3.3.33,6.62.48,9.92.75,4.12.34,6.74-1.53,8.54-5,.37-.7.76-1.4,1.07-2.14a48.81,48.81,0,0,0,2.5-7.37c.07-.27.31-.56,0-.87C67,64.88,66,65.13,52.64,65.2Zm7.2-2.77A2.62,2.62,0,0,1,57.68,61c-.36-.76.43-.93.74-1.28a4.93,4.93,0,0,0,1.27-3.35c-.58,1-.8,2.24-1.73,3.09-.42.38-1.31.54-1.22,1.11s.73,1,1.13,1.49c.13.16.3.28.42.43.46.59.94.67,1.55,0Z"/><path class="cls-4" d="M45.81,73.21c.33,1.45.08,2.94.27,4.4,3.64-.25,7.27-.26,10.9-.21,9.21.14,18.35-.82,27.49-1.68.46,0,.89-.06.89-.7,0-5.9.25-11.84-1.22-17.62C83,52.83,80.5,48.82,78.28,44.72a5.82,5.82,0,0,0-.61-.72c-.14-.62-.76-.22-1.06-.49.43-.12.92,0,1.3-.29,0,.23,0,.55.34.57.28.53.55,1.07.84,1.59,1.36,2.53,2.68,5.09,3.89,7.7,2.29,4.92,2.44,10.18,2.6,15.46.07,2.26.22,4.52.34,6.9a6.89,6.89,0,0,1,3.9-.56,5.47,5.47,0,0,0,3.74-1c1.62-1.1,3.3-2.12,4.87-3.28a29.38,29.38,0,0,0,9-9.84,3.6,3.6,0,0,0,.52-1.63V51.82a11.77,11.77,0,0,1-7.94.85c-3.81-1-7.46-2.33-8-7.09,0-.31-.22-.61-.27-.92-.22-1.54-.44-3.1.56-4.49.23-.33.49-.75.89-.16,1.36,2,3.58,2.7,5.66,3.58a5.76,5.76,0,0,0,4.87-.18c.82-.37.89-.65.37-1.33a7.9,7.9,0,0,1-1-8.67,4.29,4.29,0,0,0,.16-3.94,9.71,9.71,0,0,1-.4-2c-.08-.49.3-1.06-.24-1.48a28.27,28.27,0,0,0,.88-3.4c.09-.26.26-.57,0-.78s-.5.1-.76.17l-.78.23-.09-.13c.33-.28.86-.21,1.13-.62.48.08.87,0,1-.54.75-2.37,2.13-4.46,3-6.76a4.51,4.51,0,0,0-1-5.27c-.45-.46-.9-.91-1.36-1.36A2.49,2.49,0,0,1,104.4,4l.17-.18a6.19,6.19,0,0,1,5.67-1.71c4.61.86,7,4.43,7.24,9a1.59,1.59,0,0,0,1.1,1.69,8.64,8.64,0,0,0,4.48,1c2.6-.33,4.31,1.37,6.16,2.72A12.22,12.22,0,0,1,132,19.18a5.42,5.42,0,0,1,.92,5.07c-.77,2.44-.82,5-1.43,7.47-.41,1.7-1,3.34-1.43,5a4.8,4.8,0,0,1-5.18,3.58A4.66,4.66,0,0,0,120,43.53c-.88,2.2-2.93,2.36-4.79,2.82a2.86,2.86,0,0,0-1.73.94A13.47,13.47,0,0,1,109,51.13c-.54.3-.53.74-.51,1.23.08,2.44.15,4.87.23,7.29A24.92,24.92,0,0,1,102,68.43a56.56,56.56,0,0,1-8.41,6.19,3.87,3.87,0,0,1-1.87.77,41,41,0,0,0-6.8.75c-3.17.52-6.43.53-9.64.9a77.37,77.37,0,0,1-9,.82c-6.79.06-13.58.19-20.37.29A45.21,45.21,0,0,1,45.81,73.21Zm72.3-58.85a9,9,0,0,0-1.28-.21c-1,0-1.16-.47-1-1.35a13.16,13.16,0,0,0,0-2.51,6.93,6.93,0,0,0-6.08-6.54,4.58,4.58,0,0,0-3.31.77c-1.15.85-1.19,1.13-.17,2.11a8,8,0,0,1,2.81,4.75,9.61,9.61,0,0,1-1.22,5.3,60.78,60.78,0,0,0-2.67,5.74,9.44,9.44,0,0,0-.09,7.14,15.17,15.17,0,0,1,1.22,4.09c.91,6.38,9.94,11.07,14.72,5.81a2.86,2.86,0,0,1,2.45-.71,5.51,5.51,0,0,0,3.67-.83,3.12,3.12,0,0,0,1.25-4.26,3.2,3.2,0,0,0-.76-.92,22.74,22.74,0,0,0-5-3.7,5.89,5.89,0,0,0-3.1-.78,46.06,46.06,0,0,0-5.6.6c-1,.17-1.86.54-2.07,1.68A2.59,2.59,0,0,0,113,33.45a9,9,0,0,0,3.23,1.2c1.57.31,3.17.21,4.76.47a11,11,0,0,1-7.34.46,4.29,4.29,0,0,1-3.48-5,4.36,4.36,0,0,1,1.34-2.43,2.22,2.22,0,0,0,.67-1.67c0-1.15-.12-2.44.65-3.35a3.76,3.76,0,0,0,.91-2.84c-.12-3.4.77-4.61,4-5.67C117.84,14.63,117.89,14.55,118.11,14.36ZM112,46.6c-1.89-.88-3.67-1.69-5.43-2.53a1,1,0,0,0-1.09,0c-2.86,2-5.75,1.62-8.73.21-1.25-.59-2.32-1.51-3.65-2V46a2.35,2.35,0,0,0,1,2,15.73,15.73,0,0,0,7.27,3.19C105.66,51.77,109,49.87,112,46.6ZM129.5,32.22a4.79,4.79,0,0,0-.09-5.41A10.68,10.68,0,0,0,123.17,22c-2.88-.71-5.65.56-8.37,1.44-.84.27-1.39,2.21-1,3.22s1.24.11,1.87.23a4.26,4.26,0,0,0,1.19-.13c2.58-.31,5.1-.25,7.4,1.22a24.91,24.91,0,0,1,5.2,4.22Zm.93-6.4c1.47-2.69,1.17-4.87-.61-6.73-2.78-2.9-5.91-4.8-10.14-3.25-.41.15-.85.2-1.28.32-2.59.69-3.31,1.78-3,4.46.06.52.21.72.73.6.94-.21,1.9-.32,2.81-.62a8.3,8.3,0,0,1,8.81,2.16c.95.93,1.76,2,2.64,3.06ZM104.7,34.38a5.67,5.67,0,0,0,.84,6.79,11.61,11.61,0,0,0,9.24,3.72,4,4,0,0,0,3.4-1.72c-8.35-.47-11.62-2.6-13.52-8.79Z"/><path class="cls-5" d="M48.22,108.31A10.82,10.82,0,0,1,51,100.42a16,16,0,0,1,7-4.63,8,8,0,0,1,6.74,2.45,16.52,16.52,0,0,0-3.7,2.56c-.12.09-.25.19-.07.33s.17-.08.26-.13A38.59,38.59,0,0,1,65,98.55a11.3,11.3,0,0,1,3.12-.81A20.87,20.87,0,0,1,72.2,98c3.59.93,5.75,3.41,7.12,6.69A23,23,0,0,1,81,112.13c-1.22.2-2.43.42-3.65.59-2.52.36-5,1-7.59.79a37.11,37.11,0,0,1-10.93-2.93,1.1,1.1,0,0,1-.79-1.15c0-2,0-3.92,1.06-5.68.08-.14.12-.3-.19-.39a7.78,7.78,0,0,0-1.3,4.58c0,.92-.28,1.15-1.16,1.15A27.5,27.5,0,0,1,48.22,108.31Z"/><path class="cls-2" d="M45.84,78.13c6.79-.1,13.58-.23,20.37-.29a77.37,77.37,0,0,0,9-.82c3.21-.37,6.47-.38,9.64-.9a41,41,0,0,1,6.8-.75,3.87,3.87,0,0,0,1.87-.77A57.85,57.85,0,0,0,102,68.43a24.87,24.87,0,0,0,6.67-8.74c1.93,1,2.18,1.72,1,3.4a71.89,71.89,0,0,1-11.4,13,39.5,39.5,0,0,1-9,5.65c-1.45.69-3,.49-4.46.53H44.87c-1.35,0-1.47-.19-1.14-1.56S45,79,45.84,78.13Z"/><path class="cls-4" d="M81,112.13a22.62,22.62,0,0,0-1.63-7.51c-1.37-3.28-3.53-5.76-7.12-6.69l-.27-.43a5.37,5.37,0,0,1,5.15,1.89c.59.65,1.21,1.26,1.84,1.87a.92.92,0,0,0,1.19.24c1.18-.76,1.36-2,1.54-3.25.13-.9-.56-1.32-1.2-1.76-3-2-6.31-2-9.69-1.34l-.46-.07a8.27,8.27,0,0,0-8.85-3c-.71-2.28,0-3.85,2.17-5,.53-.27,1.09-.47,1.63-.7,4.72-1.24,6.8,1.25,5.85,7.18a12.13,12.13,0,0,1,1.69-2.15L75.59,89l.56-.2c2.91-1.19,5.38.14,6,3.24a9.55,9.55,0,0,1,0,3.2c0,.36-.15.71.1,1-.4.55.11.5.37.48A12.88,12.88,0,0,0,85.75,96a1.16,1.16,0,0,0,.82-1.31,6.87,6.87,0,0,0-1.51-4.27,2.55,2.55,0,0,1,3.2,1.67.25.25,0,0,1,0,.07c.77,2,.6,4.17,1.19,6.17a44.3,44.3,0,0,1,1.36,7.82c0,.46-.37.93,0,1.36-.45-.22-.75.14-1.08.31-2.84,1.41-5.66,2.85-8.49,4.29Z"/><path class="cls-5" d="M81.3,112.22c2.83-1.44,5.65-2.88,8.49-4.29.33-.17.63-.53,1.08-.31v.12c.42,2.88-1.06,4.39-3.43,5.84a21,21,0,0,1-10.56,3.25c-5.07.19-10.14.65-15.1-.84a14.66,14.66,0,0,1-3.52-1.47c-.83-1.19-.27-2.47-.43-3.84l1.63.63a32.45,32.45,0,0,0,10.37,2.58,32,32,0,0,0,7.11-.67C78.4,113,80,113,81.3,112.22Z"/><path class="cls-6" d="M9.48,51.67q-2.37-8-4.75-15.92C3.86,32.83,3,29.9,2.13,27a1.5,1.5,0,0,1,.39-1.76c6-5.93,12-11.9,17.91-17.86.13-.14.28-.26.72-.65.39,9.06.77,17.82,1.16,26.84l8.06-7.36.3.09Q30,35.7,29.19,45.13l-.89-.6c.26-3.35.51-6.7.77-10.06a37.55,37.55,0,0,0,.36-6l-7.8,7.11c-.11-1-.25-1.9-.28-2.77-.34-7.5-.65-15-1-22.49,0-.33.17-.81-.22-1s-.59.32-.83.56L3.69,25.43a1.58,1.58,0,0,0-.5,1.77C5.52,35,7.79,42.89,10.07,50.74Z"/><path class="cls-4" d="M9.48,51.67l.59-.93A5.61,5.61,0,0,1,14.32,48l1.57-.22,1.51-.06.73.13a3.44,3.44,0,0,1,1.63,1.65,15.85,15.85,0,0,0,4.38,6.32c1,2,.63,3.17-1.34,4.24l-.82.46a9.5,9.5,0,0,1-2.69.63h-.64c.36-.63,1.09-.56,1.64-.84,1.2-.6,2.51-1,3.12-2.42a1.55,1.55,0,0,0-.85-2,1.58,1.58,0,0,0-.61-.12c-3.55.32-6.46,1.63-7.93,5.18a2.12,2.12,0,0,0,.08,2.21,2,2,0,0,0,2.13,1c.82-.14,1.62-.39,2.43-.59l.18,1.84a.91.91,0,0,0-1.09-.48c-.54.13-1.1.17-1.63.32A2.35,2.35,0,0,1,13.39,64c-1.71-2.31-2.74-5-4.37-7.37C7.76,54.87,8.7,53.28,9.48,51.67Zm1.15,5.58c.45-.86.8-1.57,1.2-2.26a5.75,5.75,0,0,1,5.32-3.25c.47,0,1-.08,1.43-.11s.62-.24.56-.7a2.31,2.31,0,0,0-2.53-2.08c-.84.07-1.67.15-2.5.27-2.54.37-3.33,2.46-4.32,4.38C9.05,55,10,56,10.63,57.25Zm2.23,3.63c1.58-3.36,3.89-5.75,7.83-6a1,1,0,0,0,.34-.09c.23-.07.28-.25.29-.46a2,2,0,0,0-1.49-1.78c-3.65-.45-5.78.59-7.55,3.7C11.23,58.13,11.35,59.13,12.86,60.88Z"/><path class="cls-6" d="M18.65,61.19h.64a15.61,15.61,0,0,0,.52,4.31l.29,3.78c1.31-1.45,2.43-2.72,3.57-4,.23-.24.4-.8.91-.34L28,81.75h.28q1-12.09,2-24.18L30,57.49l-2.75,2.58A86.83,86.83,0,0,1,28,50.28l.7.34-.51,6.65.11.3c.56-.42,1.23-.75,1.33-1.56h0c.77,0,1-.75,1.45-1.18.5.54.25,1.19.21,1.79-.13,1.86-.32,3.72-.48,5.59a3.33,3.33,0,0,0-.17,1.5,22.62,22.62,0,0,0-.3,3.85L30.23,69q-.78,9.36-1.55,18.7l-.32.06L24,66.4l-4.52,5.06a45.6,45.6,0,0,1-.65-6.07l-.18-1.84C18.8,62.77,18.43,62,18.65,61.19Z"/><path class="cls-5" d="M82.25,96.32c-.25-.32-.14-.67-.1-1a9.55,9.55,0,0,0,0-3.2c-.61-3.1-3.08-4.43-6-3.24l-.56.2v-2c0-1.55-.38-3.1.06-4.64H82.9a12,12,0,0,1-.32,3,5.8,5.8,0,0,0,2.27,5.78,6.73,6.73,0,0,1,1.24,3.84,1.14,1.14,0,0,1-1,.73C84.13,96,83.19,96.13,82.25,96.32Z"/><path class="cls-5" d="M57.52,114.53a23.55,23.55,0,0,1-5.92-.44,7.15,7.15,0,0,1-1.47-.46c-1.72-.72-2-1.2-2-3a16.64,16.64,0,0,1,.08-2,12.76,12.76,0,0,0,2.62.73,31.46,31.46,0,0,0,5.82.21c.64,0,1.2.14,1,.87A24.32,24.32,0,0,0,57.52,114.53Z"/><path class="cls-4" d="M30.68,63.7a3.33,3.33,0,0,1,.17-1.5c3.1,1.17,4.93-.52,6.5-2.86,1.9-2.84,1.88-2.81,0-5.6-.91-1.39-2.1-2.59-2.7-4.18l.49.21C37.76,53.68,40.36,57.6,43,61.5a13,13,0,0,1,2.5,7.72c-.45-.47-.23-1.07-.29-1.6a14.67,14.67,0,0,0-2.67-6.07c-.3-.47-.44-.47-.84,0A56.1,56.1,0,0,1,36.1,67a6.51,6.51,0,0,1-2.67,1.29c-1.07.29-2.16.53-3.24.8l.14-1.47a6.33,6.33,0,0,0,5.29-1.69C37,64.66,38.28,63.35,39.56,62c2-2,2-2,.33-4.36,0,0-.13,0-.24-.08a21,21,0,0,1-2.93,4C35.14,63.62,33.07,64,30.68,63.7Z"/><path class="cls-5" d="M61.44,92.13a8.27,8.27,0,0,1,8.85,3c.23,2.08.23,2.08-1.9,2.2a2,2,0,0,0-.35,0c-2.43-1.07-4.8-2.31-7.56-2.22-.37,0-.31-.27-.34-.49A9.1,9.1,0,0,1,61.44,92.13Z"/><path class="cls-5" d="M72.78,91.5a12.13,12.13,0,0,0-1.69,2.15c1-5.93-1.13-8.42-5.85-7.18a18.76,18.76,0,0,1,1.08-4.08h6.43a12.8,12.8,0,0,0-.57,5.25C72.35,88.94,72.58,90.22,72.78,91.5Z"/><path class="cls-4" d="M31.12,54.82c-.45.43-.68,1.14-1.45,1.18.2-.47.42-.93.58-1.41.75-2.28.47-3-1.5-4l-.7-.34a2.67,2.67,0,0,0-1.1-.62,3,3,0,0,0-2.7-.54,4.53,4.53,0,0,1-5.52-2.79c-.37-1-.1-1.88.93-2.1,2.9-.62,5.85-1.54,8.68.32l.89.6c2.35,1.31,2.81,3.25,2.26,5.79A30.24,30.24,0,0,0,31.12,54.82Zm-.54-4.09c.5-2,.45-3-.16-3.62A9.43,9.43,0,0,0,20,44.76c-.56.23-1,.54-.68,1.27A3.93,3.93,0,0,0,24,48.45a3.52,3.52,0,0,1,2.77.23C28,49.36,29.23,50,30.58,50.73Z"/><path class="cls-7" d="M57.52,114.53a23.79,23.79,0,0,1,.16-4.13c.17-.73-.39-.86-1-.87a31.46,31.46,0,0,1-5.82-.21,12.76,12.76,0,0,1-2.62-.73v-.28a27.46,27.46,0,0,0,8.17.81c.88,0,1.18-.23,1.16-1.15a7.78,7.78,0,0,1,1.3-4.58c.31.09.27.25.19.39C58,105.54,58,107.48,58,109.46a1.1,1.1,0,0,0,.79,1.15,37.11,37.11,0,0,0,10.93,2.93c2.55.2,5.07-.43,7.59-.79,1.22-.17,2.43-.39,3.65-.59l.36.06c-1.34.82-2.9.73-4.37,1a32,32,0,0,1-7.11.67,32.45,32.45,0,0,1-10.37-2.58l-1.63-.63c.16,1.37-.4,2.65.43,3.84Z"/><path class="cls-8" d="M39.31,39.13l-.23-.36c-.12-.82-.61-1.57-.46-2.44a2.46,2.46,0,0,0,2.39-.2c0-.05.15-.14.14-.16a.38.38,0,0,0-.25.05H38.68c0-1.07.92-1,1.57-1.15a1.15,1.15,0,0,1,1.41.84,10.43,10.43,0,0,1,.75,2.42c-.23.49.71,1.31-.41,1.52C41.05,39.83,40,40.86,39.31,39.13Z"/><path class="cls-4" d="M60.14,94.64c0,.22,0,.5.34.49,2.76-.09,5.13,1.15,7.56,2.22v.39a11.3,11.3,0,0,0-3.12.81l-.22-.31A8,8,0,0,0,58,95.79C58.69,95.37,59.79,95.71,60.14,94.64Z"/><path class="cls-9" d="M35.19,49.77l-.49-.21h0c0-.22-.21-.29-.39-.33l.09-.37L43.51,46c.39.44-.14,1,.22,1.52l.41-.59c.33.47,0,.78-.35.91s-.67-.06-.59-.58-.25-.3-.47-.23L35.8,49.23A1.05,1.05,0,0,0,35.19,49.77Z"/><path class="cls-4" d="M42.37,31.64a40.19,40.19,0,0,1,5-.53c.13,0,.33-.09.4.12a.26.26,0,0,1,0,.21c-.17.25-.3-.05-.39-.05-1.25,0-2.49.05-3.73.16a4.27,4.27,0,0,1-1.29.07Z"/><path class="cls-4" d="M45.57,69.59a9,9,0,0,1,.23,3.22C45.31,71.77,45.58,70.67,45.57,69.59Z"/><path class="cls-10" d="M38.68,36.06H40.9l.11.11a2.46,2.46,0,0,1-2.39.21Z"/><path class="cls-4" d="M34.29,49.22a.38.38,0,0,1,.39.33C34.47,49.53,34.32,49.45,34.29,49.22Z"/><path class="cls-5" d="M67.65,45a8.46,8.46,0,0,1,1.67,3.09,6,6,0,0,1,.44,3.25c-.31.47-1,.51-1.2,1.07h0a3,3,0,0,0-1.38,1C66.4,54.13,66,55.2,65,55.67c-.21.06-.47-.13-.55-.09-2.65,1.33-3.29-1.1-4.53-2.41-.23-.25-.25-.67-.65-.8a1.12,1.12,0,0,0-.48-1.06c-.13-1.16-.69-2.27-.49-3.48V47l1-3.55h.07a2.06,2.06,0,0,1,2.54-1.14,31.86,31.86,0,0,1,3.5,1l1.09.6,1,.68.06.06C67.55,44.73,67.6,44.85,67.65,45Zm1,5.11a2.77,2.77,0,0,0-2.48-2.75,1.73,1.73,0,0,0-1.63,1.8A2.81,2.81,0,0,0,67,52a1.71,1.71,0,0,0,1.75-1.67.92.92,0,0,0,0-.16Z"/><path class="cls-9" d="M59.27,43.41H59.2a5.43,5.43,0,0,0-1,3.55v.87c-.16,0-.28.26-.49.14a4.15,4.15,0,0,0-2.29-1.84A5,5,0,0,0,50.7,45a4.21,4.21,0,0,0-1.14,1.44c-.72-.42.26-.74,0-1.19-1.36.33-2.75.65-4.13,1a1.33,1.33,0,0,1-1,0c.13-.49.6-.58,1-.8A65.56,65.56,0,0,1,57.85,43.3,3,3,0,0,1,59.27,43.41Z"/><path class="cls-8" d="M102.58,26c.54.42.16,1,.24,1.48a1.83,1.83,0,0,0-1.82-.21.43.43,0,0,0-.5.21h0a1.39,1.39,0,0,0-1.17.7h0c-.19,0-.36,0-.44.21h0c-.19,0-.36,0-.44.21h0c-.19,0-.36,0-.44.21h0c-.2,0-.38,0-.42.26a3.82,3.82,0,0,1-1.46.71.41.41,0,0,0-.49.21h0a2.39,2.39,0,0,0-1.65.94h0c-.19,0-.36,0-.44.21h0c-.19,0-.36,0-.44.21h0l-.19.26c-1.86,1.49-3.65,3.07-5.46,4.62-2.51,2.14-4.85,3.94-7,5.94-.63.58-1.16,1.53-2.21,1.65-.39,0-.29-.34-.34-.57,2.21-1.5,4.12-3.36,6.17-5.05,2.34-1.92,4.65-3.89,7-5.87,3.1-2.66,7-4,10.43-6A2,2,0,0,1,102.58,26Z"/><path class="cls-4" d="M45.39,45.46c-.35.22-.82.31-1,.8v.06l-.27.32-.08.24c-.13.18-.26.36-.41.59-.36-.49.17-1.08-.22-1.52a1.06,1.06,0,0,0,.37-.72c.14-.67.31-1.34.51-2,.7-2.19,1.63-2.76,3.87-2.94,2.44-.19,4.85-.68,7.29-.94,1.75-.2,3.48-.44,5.2-.81-.5.7-1.38,1-1.77,1.82-.12,0-.21.09-.14.21s.18,0,.27,0a11.37,11.37,0,0,1,4.81-.5c1.77.17,3.43.79,5.16,1.07h0v.17s.2,0,.18-.14c.64.07.85.63,1.22,1.1-4.45-1.42-8.87-3-13.38-.17a11.89,11.89,0,0,1,2.36-3c-3.11.21-5.89.81-9,1.19,1,.53,1.83.27,2.4.82l-.06.06c-1.77-.24-3.51-.77-5.33-.34s-3.1,2.74-2.42,4.2l.16.15Z"/><path class="cls-8" d="M72.45,30.13c.22-1,1.11-1,1.86-1.17s1.06.22,1.32.84a13.48,13.48,0,0,1,.85,2.43c-.19.48.59,1.08,0,1.4a5.34,5.34,0,0,1-2.25.63c-.47,0-.44-.77-.81-1.07l-.73-1.54a.69.69,0,0,0-.12-.75.44.44,0,0,1-.1-.5c1,.24,1.91.46,2.72-.44A4,4,0,0,1,72.45,30.13Z"/><path class="cls-5" d="M69.06,41.13c-1.73-.28-3.39-.9-5.16-1.07a11.37,11.37,0,0,0-4.81.5A.48.48,0,0,0,59,40.4c.39-.8,1.27-1.12,1.77-1.82l-.06,0a5.77,5.77,0,0,1,5.09.36c.26.15.52.39.87.33h0c.06.26.3.28.49.36A5.34,5.34,0,0,1,69.06,41.13Z"/><path class="cls-8" d="M77,32.52c.76,0,1.52.1,1.71.92s-.52,1.18-1.12,1.49a4.84,4.84,0,0,1-4,.42c-.87-.33-1.23-.9-.39-1.68.65,1.17,1.56.84,2.57.55S77.33,33.66,77,32.52Z"/><path class="cls-8" d="M43.29,38.5c.82,0,.91.59,1,1.21s-.33.84-.73,1a5.07,5.07,0,0,1-4.14.58c-.87-.3-1.28-.84-.48-1.67.51,0,.45.72.77.79,1,.2,1.79-.38,2.69-.59.51-.11.54-.52.42-.94S43,38.51,43.29,38.5Z"/><path class="cls-4" d="M52.71,41.13l1.8.53c-3.46.43-6.85.91-9.45,3.54L45,45.06a3.6,3.6,0,0,1,1.33-1.51,13.09,13.09,0,0,1,5.69-2c.27,0,.69.18.73-.35Z"/><path class="cls-8" d="M76.61,43.51c.3.27.92-.13,1.06.49h-.21c-3.22-.33-6.46-.21-9.69-.24-.31,0-.65.06-.88-.24.43,0,.87-.05,1.3-.05l8.42.06Z"/><path class="cls-4" d="M76.61,43.52l-8.42-.06a11.3,11.3,0,0,0-1.3,0c-.28,0-.57-.08-.49.37l-1.09-.6H75.7A1.38,1.38,0,0,1,76.61,43.52Z"/><path class="cls-4" d="M66.63,39.22c-.35.06-.61-.18-.87-.33a5.77,5.77,0,0,0-5.09-.36,3.81,3.81,0,0,1,4.75-.27C65.84,38.54,66.52,38.54,66.63,39.22Z"/><path class="cls-10" d="M43.29,38.5c-.28,0-.58,0-.44.43s.09.83-.42.94c-.9.21-1.73.79-2.69.59-.32-.07-.26-.75-.77-.79l.34-.53c.59,1.72,1.74.69,2.69.52,1.12-.21.18-1,.41-1.52Z"/><path class="cls-10" d="M77,32.52c.36,1.14-.31,1.43-1.24,1.7s-1.92.62-2.57-.55l.24-.53c.37.3.34,1.1.81,1.07a5.34,5.34,0,0,0,2.25-.63c.61-.32-.17-.92,0-1.4Z"/><path class="cls-4" d="M72.4,31.52l-2.92,2.91c.9-1,1.63-2.28,2.93-2.9Z"/><path class="cls-10" d="M72.45,30.13A3.92,3.92,0,0,0,75.17,30c-.81.9-1.76.68-2.72.44Z"/><path class="cls-4" d="M95.22,24.81A5.12,5.12,0,0,1,93,25.7a4.5,4.5,0,0,1,2.21-.94Z"/><path class="cls-4" d="M97.61,23.84a2.67,2.67,0,0,1,1.86-.77l.06.06A3.87,3.87,0,0,1,97.61,23.84Z"/><path class="cls-4" d="M99.54,18.81c.29-.63,1-.4,1.41-.66a2.52,2.52,0,0,1-1.42.65Z"/><path class="cls-4" d="M102,22.18a1.75,1.75,0,0,1-1.19.49c0-.06-.09-.11-.13-.16l1.23-.46Z"/><path class="cls-4" d="M96.63,20a1.46,1.46,0,0,1-1.06.44c.29-.55.74-.31,1.08-.42Z"/><path class="cls-4" d="M99.47,23.07c.28-.41.75-.41,1.15-.56,0,0,.09.1.13.16a1.89,1.89,0,0,1-1.22.46Z"/><path class="cls-4" d="M98.34,19.29c.24-.56.76-.42,1.2-.48h0A1.94,1.94,0,0,1,98.34,19.29Z"/><path class="cls-4" d="M96.41,24.32a1.61,1.61,0,0,1-1.19.49v0a1.35,1.35,0,0,1,1.24-.44Z"/><path class="cls-4" d="M97.83,19.51a1.94,1.94,0,0,1-1.2.48h0C96.88,19.45,97.39,19.56,97.83,19.51Z"/><path class="cls-4" d="M97.61,23.84a1.55,1.55,0,0,1-1.2.48h0A1.15,1.15,0,0,1,97.61,23.84Z"/><path class="cls-4" d="M72.55,30.85a.69.69,0,0,1,.12.75l-.27-.08h0Z"/><path class="cls-4" d="M67.12,39.58c-.19-.08-.43-.1-.49-.36C67,39.13,67.13,39.23,67.12,39.58Z"/><path class="cls-4" d="M98.33,19.28l-.49.23h0c.09-.23.31-.2.49-.24Z"/><path class="cls-5" d="M69.22,41.13c0,.15,0,.2-.18.14s0-.11,0-.17Z"/><path class="cls-4" d="M52.64,65.2C66,65.13,67,64.88,75.45,60.41c.27.31,0,.6,0,.87A48.81,48.81,0,0,1,73,68.65c-.31.74-.7,1.44-1.07,2.14-1.8,3.44-4.42,5.31-8.54,5-3.3-.27-6.62-.42-9.92-.75-.6,0-.82-.16-.67-.85A18,18,0,0,0,52.64,65.2Zm4.84,7.4.07.45H68.33a1.33,1.33,0,0,0,1.37-.7c.77-1.3,1.63-2.55,2.45-3.83.18-.29.49-.57.25-1s-.63-.29-1-.26a12.22,12.22,0,0,0-6.83,2.25c-.24.19-.46.65-.9.36-.93-.62-1.78-.11-2.59.25A18.44,18.44,0,0,0,57.48,72.6ZM74.3,61.9C67.85,65.05,61.2,66.69,54,65.73c.66,1.67.79,1.79,2.22,1.91a30.94,30.94,0,0,0,7-.41,23.92,23.92,0,0,0,10-3.44C74,63.36,74.5,62.91,74.3,61.9Zm-6,11.88a68.31,68.31,0,0,1-12.78-.54c-.9-.14-1.31.15-1.55,1.06,3.72.28,7.38.59,11,.82a3.12,3.12,0,0,0,3.35-1.34Z"/><path class="cls-5" d="M55.42,46.13A4.13,4.13,0,0,1,57.75,48a8.22,8.22,0,0,0,.74,3.35,13.73,13.73,0,0,1-.42,3c-.12.34-.39.64-.3,1a1,1,0,0,1-1.26.63l0,0a8,8,0,0,0-4,.12,1.72,1.72,0,0,1-1-.09,11.72,11.72,0,0,1-2-2.43,7.2,7.2,0,0,1-.68-4.93l-.15-.17c.29-.7.59-1.39.88-2.09a4.21,4.21,0,0,1,1.14-1.44A10.89,10.89,0,0,1,55.42,46.13Zm-1.67,5.52c-.18,1.46.1,2.26.91,2.86a1.54,1.54,0,0,0,2.18-.11,1.31,1.31,0,0,0,.19-.27,2.14,2.14,0,0,0-.49-2.62c-.63-.72-1.42-.92-2.67-.26.93,0,1.36.35,1.39,1a.49.49,0,0,1-.43.56h-.08C54.18,52.79,54.05,52.28,53.75,51.65Z"/><path class="cls-4" d="M59.84,62.43c-.61.67-1.09.62-1.55,0-.12-.15-.29-.27-.42-.43-.4-.49-1-1-1.13-1.49s.8-.73,1.22-1.11c.93-.85,1.15-2.06,1.73-3.09a4.93,4.93,0,0,1-1.27,3.35c-.31.35-1.1.52-.74,1.28A2.62,2.62,0,0,0,59.84,62.43Z"/><path class="cls-9" d="M66.4,43.88c-.08-.45.21-.41.49-.37.23.3.57.23.88.24a94.92,94.92,0,0,1,9.69.24c-.13.08-.26.23-.39.23-2.9,0-5.8.17-8.69-.11a.8.8,0,0,0-.93.45Z"/><path class="cls-4" d="M51.5,56a1.72,1.72,0,0,0,1,.09,8,8,0,0,1,4-.12,1,1,0,0,0,1.3-.56v0c-.09.63-.2,1-1.09.91a12.3,12.3,0,0,0-5.61.55C51.15,56.48,51.77,56.45,51.5,56Z"/><path class="cls-4" d="M65,55.67c1-.47,1.46-1.52,2.23-2.24.42-.4.76-.91,1.38-1,0,.72-.78.84-1.12,1.31-.63.85-1.33,1.65-2,2.47C65.33,55.94,65.69,55.26,65,55.67Z"/><path class="cls-7" d="M48.68,48.5c0,.06.16.13.15.17a7.2,7.2,0,0,0,.68,4.93A5,5,0,0,1,48.68,48.5Z"/><path class="cls-4" d="M68.56,52.38c.21-.56.89-.6,1.2-1.07.15.06.31.11.42-.08l1.2-.45C70.48,51.4,69.73,52.29,68.56,52.38Z"/><path class="cls-10" d="M58.07,54.35a13.73,13.73,0,0,0,.42-3h.24a1.12,1.12,0,0,1,.48,1.06c-.16,0-.34-.63-.49,0S58.68,53.83,58.07,54.35Z"/><path class="cls-10" d="M70.18,51.23c-.11.19-.27.14-.42.08a6,6,0,0,0-.44-3.25c.71.25.58.91.69,1.45S69.85,50.68,70.18,51.23Z"/><path class="cls-9" d="M67.65,45c0-.12-.1-.24-.14-.35a.27.27,0,0,1,.36,0s0,0,0,.06C68,45,67.79,44.93,67.65,45Z"/><path class="cls-9" d="M44.2,46.64l.27-.32C44.54,46.56,44.38,46.61,44.2,46.64Z"/><path class="cls-11" d="M78.25,43.79c1-.12,1.58-1.07,2.21-1.65,2.15-2,4.46-3.81,6.68-5.72,1.81-1.55,3.6-3.13,5.46-4.62l.19-.26h0a.38.38,0,0,0,.44-.21h0a.42.42,0,0,0,.44-.21h0a2.69,2.69,0,0,0,1.65-.94h0a.5.5,0,0,0,.49-.21,3.82,3.82,0,0,0,1.46-.71l.42-.26h0a.4.4,0,0,0,.44-.21h0a.4.4,0,0,0,.44-.21h0a.45.45,0,0,0,.44-.21h0a1.48,1.48,0,0,0,1.17-.7h0l.5-.21a1.83,1.83,0,0,1,1.82.21,9.71,9.71,0,0,0,.4,2,4.29,4.29,0,0,1-.16,3.94,7.9,7.9,0,0,0,1,8.67c.52.68.45,1-.37,1.33a5.76,5.76,0,0,1-4.87.18c-2.08-.88-4.3-1.55-5.66-3.58-.4-.59-.66-.17-.89.16-1,1.39-.78,3-.56,4.49,0,.31.23.61.27.92.55,4.76,4.2,6.09,8,7.09A11.77,11.77,0,0,0,107.6,52v7.31A3.48,3.48,0,0,1,107,61c-2.1,4.09-5.35,7.15-9,9.84C96.46,72,94.78,73,93.16,74.13a5.47,5.47,0,0,1-3.74,1,6.89,6.89,0,0,0-3.9.56c-.12-2.38-.27-4.64-.34-6.9-.16-5.28-.31-10.54-2.6-15.46-1.21-2.61-2.53-5.17-3.89-7.7A2.82,2.82,0,0,0,78.25,43.79Z"/><path class="cls-5" d="M118.11,14.36c-.22.19-.27.27-.34.29-3.22,1.06-4.11,2.27-4,5.67a3.76,3.76,0,0,1-.91,2.84c-.77.91-.61,2.2-.65,3.35a2.22,2.22,0,0,1-.67,1.67,4.3,4.3,0,0,0-.29,6.06,4.25,4.25,0,0,0,2.43,1.34,11,11,0,0,0,7.34-.46c-1.59-.26-3.19-.16-4.76-.47a9,9,0,0,1-3.23-1.2,2.59,2.59,0,0,1-1.15-2.91C112.09,29.4,113,29,114,28.86a46.06,46.06,0,0,1,5.6-.6,5.89,5.89,0,0,1,3.1.78,22.74,22.74,0,0,1,5,3.7,3.13,3.13,0,0,1,.43,4.42,3,3,0,0,1-.92.76,5.51,5.51,0,0,1-3.67.83,2.86,2.86,0,0,0-2.45.71c-4.78,5.26-13.81.57-14.72-5.81a15.17,15.17,0,0,0-1.22-4.09,9.44,9.44,0,0,1,.09-7.14c.71-2,1.79-3.82,2.67-5.74a9.61,9.61,0,0,0,1.22-5.3,8,8,0,0,0-2.81-4.75c-1-1-1-1.26.17-2.11a4.58,4.58,0,0,1,3.31-.77,6.93,6.93,0,0,1,6.08,6.54,13.16,13.16,0,0,1,0,2.51c-.12.88.07,1.35,1,1.35A9,9,0,0,1,118.11,14.36Z"/><path class="cls-5" d="M112,46.6c-2.9,3.27-6.25,5.17-10.62,4.58A15.73,15.73,0,0,1,94.06,48a2.35,2.35,0,0,1-1-2V42.37c1.33.5,2.4,1.42,3.65,2,3,1.41,5.87,1.77,8.73-.21a1,1,0,0,1,1.09,0C108.24,44.91,110,45.72,112,46.6Z"/><path class="cls-5" d="M129.46,32.22a24.91,24.91,0,0,0-5.2-4.22c-2.3-1.47-4.82-1.53-7.4-1.22a4.26,4.26,0,0,1-1.19.13c-.63-.12-1.47.74-1.87-.23s.12-2.95,1-3.22c2.72-.88,5.49-2.15,8.37-1.44a10.68,10.68,0,0,1,6.24,4.79A4.79,4.79,0,0,1,129.46,32.22Z"/><path class="cls-5" d="M130.39,25.82c-.88-1-1.69-2.13-2.67-3.06A8.31,8.31,0,0,0,119,20.6c-.91.3-1.87.41-2.81.62-.52.12-.67-.08-.73-.6-.32-2.68.4-3.77,3-4.46.43-.12.87-.17,1.28-.32,4.23-1.55,7.36.35,10.14,3.25C131.56,21,131.86,23.13,130.39,25.82Z"/><path class="cls-8" d="M104.66,34.38c1.9,6.19,5.17,8.32,13.48,8.79a4,4,0,0,1-3.4,1.72,11.63,11.63,0,0,1-9.24-3.76A5.67,5.67,0,0,1,104.66,34.38Z"/><path class="cls-7" d="M68.08,97.74v-.39h.35c2.13-.12,2.13-.12,1.9-2.2l.46.07c.28.84-.62,2.26,1.17,2.35l.27.43A21.34,21.34,0,0,0,68.08,97.74Z"/><path class="cls-7" d="M64.74,98.24l.22.31c-1.22.84-2.58,1.49-3.73,2.45l-.19-.2A16.52,16.52,0,0,1,64.74,98.24Z"/><path class="cls-7" d="M61.23,101c-.09,0-.23.16-.26.13a.45.45,0,0,1,.07-.33Z"/><path class="cls-12" d="M72.78,91.5c-.2-1.28-.43-2.56-.6-3.85a12.8,12.8,0,0,1,.57-5.25h2.87c-.44,1.54,0,3.09-.06,4.64v2Z"/><path class="cls-5" d="M72,97.53c-1.79-.09-.89-1.51-1.17-2.35,3.38-.64,6.68-.69,9.69,1.34.64.44,1.33.86,1.2,1.76-.18,1.23-.36,2.49-1.54,3.25a.92.92,0,0,1-1.19-.24c-.63-.61-1.25-1.22-1.84-1.87A5.37,5.37,0,0,0,72,97.53Z"/><path class="cls-11" d="M14.32,48a5.61,5.61,0,0,0-4.25,2.74C7.79,42.89,5.52,35,3.19,27.2a1.58,1.58,0,0,1,.5-1.77q7.83-7.77,15.63-15.58c.24-.24.44-.71.83-.56s.2.64.22,1c.33,7.5.64,15,1,22.49,0,.87.17,1.73.28,2.77l7.8-7.11a37.55,37.55,0,0,1-.36,6c-.47-.43-.63.11-.83.31Q23.85,39,19.49,43.27A6.73,6.73,0,0,1,18,44.49c-.11,0-.27-.09-.32,0A35.42,35.42,0,0,0,14.32,48Z"/><path class="cls-8" d="M18,44.49a6.34,6.34,0,0,0,1.48-1.2Q23.8,39,28.2,34.77c.2-.2.36-.74.83-.31-.26,3.36-.51,6.71-.77,10.06-2.83-1.86-5.78-.94-8.68-.32-1,.22-1.3,1.12-.93,2.1a4.52,4.52,0,0,0,5.56,2.83,3,3,0,0,1,2.7.54c-.93,2.06-1.85,4.13-2.77,6.19a15.85,15.85,0,0,1-4.38-6.32,3.44,3.44,0,0,0-1.63-1.65C18.28,46.72,17.74,45.62,18,44.49Z"/><path class="cls-11" d="M24.14,55.82q1.38-3.1,2.81-6.19a2.72,2.72,0,0,1,1.14.63,86.83,86.83,0,0,0-.76,9.79,18.39,18.39,0,0,0-2.71,4.88c-.51-.46-.68.1-.91.34-1.14,1.25-2.26,2.52-3.57,4-.11-1.4-.2-2.59-.29-3.78.73-1.65,1.45-3.29,2.17-4.94l.82-.46C24.77,59,25.13,57.84,24.14,55.82Z"/><path class="cls-5" d="M18.65,61.19c-.22.79.15,1.58,0,2.36-.81.2-1.61.45-2.43.59a2,2,0,0,1-2.13-1A2.14,2.14,0,0,1,14,60.92c1.47-3.55,4.38-4.86,7.93-5.18a1.57,1.57,0,0,1,1.63,1.5,1.47,1.47,0,0,1-.14.69c-.61,1.37-1.92,1.82-3.12,2.42C19.74,60.63,19,60.56,18.65,61.19Z"/><path class="cls-5" d="M10.63,57.25C10,56,9.05,55,9.79,53.5c1-1.92,1.78-4,4.32-4.38.83-.12,1.66-.2,2.5-.27a2.31,2.31,0,0,1,2.53,2.08c.06.46-.11.67-.56.7s-1,.11-1.43.11A5.75,5.75,0,0,0,11.83,55C11.43,55.68,11.08,56.39,10.63,57.25Z"/><path class="cls-5" d="M12.86,60.88c-1.51-1.75-1.63-2.75-.58-4.59,1.77-3.11,3.9-4.15,7.55-3.7a2,2,0,0,1,1.49,1.78.42.42,0,0,1-.29.46,1,1,0,0,1-.34.09C16.75,55.13,14.44,57.52,12.86,60.88Z"/><path class="cls-6" d="M18,44.49c-.25,1.13.29,2.23.14,3.36l-.73-.13c-.08-.4-.15-.81-.26-1.34l-1.25,1.4L14.28,48a34.06,34.06,0,0,1,3.35-3.55C17.72,44.4,17.88,44.47,18,44.49Z"/><path class="cls-8" d="M22,60.52c-.72,1.65-1.44,3.29-2.17,4.94a15.78,15.78,0,0,1-.49-4.33A9.28,9.28,0,0,0,22,60.52Z"/><path class="cls-12" d="M15.89,47.78l1.25-1.4c.11.53.18.94.26,1.34Z"/><path class="cls-8" d="M24.58,64.93a18.39,18.39,0,0,1,2.71-4.88L30,57.47l.29.08q-1,12.09-2,24.18h-.28Z"/><path class="cls-5" d="M30.68,63.7c2.39.34,4.46-.08,6.09-2.11a21,21,0,0,0,2.93-4c.11,0,.21,0,.24.08C41.58,60,41.59,60,39.61,62c-1.28,1.31-2.57,2.62-3.94,3.85a6.33,6.33,0,0,1-5.29,1.69A22.86,22.86,0,0,1,30.68,63.7Z"/><path class="cls-5" d="M28.75,50.6c2,1,2.25,1.71,1.5,4-.16.48-.38.94-.58,1.41h0l-1.44,1.26Z"/><path class="cls-4" d="M28.24,57.25,29.68,56c-.1.81-.77,1.14-1.33,1.56Z"/><path class="cls-5" d="M30.58,50.73c-1.35-.71-2.61-1.37-3.87-2A3.49,3.49,0,0,0,24,48.45,3.92,3.92,0,0,1,19.34,46c-.27-.73.12-1,.68-1.27a9.44,9.44,0,0,1,10.4,2.37C31,47.75,31.08,48.76,30.58,50.73Z"/><path class="cls-10" d="M41,36c.07-.1.14-.19.25,0s-.09.11-.14.16Z"/><path class="cls-4" d="M68.69,50.13A1.71,1.71,0,0,1,67.11,52H67a2.81,2.81,0,0,1-2.41-2.83,1.72,1.72,0,0,1,1.62-1.81h0A2.77,2.77,0,0,1,68.69,50.13ZM66,49.59a.57.57,0,0,0,.66-.48.49.49,0,0,0,0-.17,1,1,0,0,0-.85-1c-.43-.06-.66.24-.66.64a1,1,0,0,0,.85,1Z"/><path class="cls-7" d="M58.73,51.31h-.24A8.22,8.22,0,0,1,57.75,48c.21.12.33-.09.49-.14C58,49,58.6,50.13,58.73,51.31Z"/><path class="cls-10" d="M58.21,47a5.43,5.43,0,0,1,1-3.55Z"/><path class="cls-7" d="M55.42,46.13c-1.52-.6-3-1.36-4.72-1.17A5,5,0,0,1,55.42,46.13Z"/><path class="cls-9" d="M95.44,30.13a2.69,2.69,0,0,1-1.65.94A2.39,2.39,0,0,1,95.44,30.13Z"/><path class="cls-9" d="M100.48,27.45a1.48,1.48,0,0,1-1.17.7A1.39,1.39,0,0,1,100.48,27.45Z"/><path class="cls-9" d="M97.83,28.9l-.42.26C97.45,28.91,97.63,28.89,97.83,28.9Z"/><path class="cls-9" d="M93.27,31.3a.38.38,0,0,1-.44.21A.4.4,0,0,1,93.27,31.3Z"/><path class="cls-9" d="M93.75,31.06a.42.42,0,0,1-.44.21C93.39,31.07,93.56,31.05,93.75,31.06Z"/><path class="cls-9" d="M101,27.23l-.5.21A.43.43,0,0,1,101,27.23Z"/><path class="cls-9" d="M96,29.87a.5.5,0,0,1-.49.21A.41.41,0,0,1,96,29.87Z"/><path class="cls-9" d="M99.27,28.18a.45.45,0,0,1-.44.21A.36.36,0,0,1,99.27,28.18Z"/><path class="cls-9" d="M98.79,28.42a.4.4,0,0,1-.44.21C98.43,28.43,98.6,28.41,98.79,28.42Z"/><path class="cls-9" d="M98.31,28.66a.4.4,0,0,1-.44.21C98,28.67,98.12,28.65,98.31,28.66Z"/><path class="cls-9" d="M92.79,31.54l-.19.26Z"/><path class="cls-5" d="M52.65,41.2c0,.53-.46.31-.73.35a13.09,13.09,0,0,0-5.69,2A3.61,3.61,0,0,0,45,45.06c-.68-1.46.67-3.79,2.42-4.2S50.88,41,52.65,41.2Z"/><path class="cls-5" d="M59.09,40.56c-.09,0-.25.08-.27,0a.16.16,0,0,1,.14-.21A.46.46,0,0,1,59.09,40.56Z"/><path class="cls-6" d="M57.48,72.6a19.05,19.05,0,0,1,3.63-2.47c.81-.36,1.66-.87,2.59-.25.44.29.66-.17.9-.36a12.22,12.22,0,0,1,6.83-2.25c.34,0,.74-.14,1,.26s-.07.68-.25,1c-.82,1.28-1.68,2.53-2.45,3.83a1.33,1.33,0,0,1-1.37.7H57.58Z"/><path class="cls-5" d="M74.3,61.9c.2,1-.39,1.46-1,1.89a23.92,23.92,0,0,1-10,3.44,30.94,30.94,0,0,1-7,.41c-1.43-.12-1.56-.24-2.22-1.91C61.2,66.69,67.85,65.05,74.3,61.9Z"/><path class="cls-5" d="M68.32,73.78A3.13,3.13,0,0,1,65,75.13c-3.66-.23-7.32-.54-11-.82.24-.91.65-1.2,1.55-1.06A67.88,67.88,0,0,0,68.32,73.78Z"/><path class="cls-4" d="M53.75,51.65c.3.63.43,1.14,1,1.15a.5.5,0,0,0,.52-.48.22.22,0,0,0,0-.08c0-.61-.46-.92-1.39-1,1.25-.66,2-.46,2.67.26A2.14,2.14,0,0,1,57,54.13a1.53,1.53,0,0,1-2.1.55,1.35,1.35,0,0,1-.27-.2C53.85,53.91,53.57,53.13,53.75,51.65Z"/><path class="cls-5" d="M66,49.54a1,1,0,0,1-.85-1c0-.4.23-.7.66-.64a1,1,0,0,1,.85,1,.58.58,0,0,1-.51.65Z"/></g></g></svg>