<svg xmlns="http://www.w3.org/2000/svg" viewBox="0 0 443.05 154.12"><defs><style>.cls-1{fill:#1d1717;}.cls-2{fill:#f5a015;}.cls-3{fill:#de2219;}.cls-4{fill:#91231f;}.cls-5{fill:#eab029;}.cls-6{fill:#ca5e1d;}.cls-7{fill:#99aba9;}.cls-8{fill:#383b8e;}.cls-9{fill:#fefefe;}.cls-10{fill:#fcca00;}.cls-11{fill:#4e474c;}.cls-12{fill:#ef7a21;}.cls-13{fill:#bba519;}.cls-14{fill:#f9d700;}.cls-15{fill:#bc7d22;}.cls-16{fill:#ede300;}</style></defs><title>logo_baterias</title><g id="Camada_2" data-name="Camada 2"><g id="Camada_1-2" data-name="Camada 1"><path class="cls-1" d="M412.79,105.51c.83,3.85,1.76,7.68,2.43,11.56a5.12,5.12,0,0,1-3.56,5.74,13.49,13.49,0,0,1-3.9.47c-5.76,0-11.52,0-17.28,0a6,6,0,0,1-5.48-2.77,7.23,7.23,0,0,1-.75-2.49c-.11-.58-.34-.69-.86-.69-1.48,0-3,0-4.43,0a.91.91,0,0,0-1,.73,12.13,12.13,0,0,1-.92,2,5.94,5.94,0,0,1-5.63,3.17q-29.64,0-59.28,0a6,6,0,0,1-4.93-2.17c-1.59,1.82-3.68,2.2-5.92,2.19h-15a10.14,10.14,0,0,1-3.55-.37,1.06,1.06,0,0,0-.7-.05c-1.9.66-3.87.41-5.82.41q-15.36,0-30.71,0c-2.28,0-4.31-.64-5.62-2.77-.46-.75-.33-1.68-.93-2.57a6,6,0,0,1-2,4,7,7,0,0,1-4.38,1.3c-5.64,0-11.28,0-16.92,0-7.22,0-14.44,0-21.67,0a5.93,5.93,0,0,1-5.48-2.77,7.23,7.23,0,0,1-.75-2.49c-.11-.57-.33-.69-.85-.69q-2.22,0-4.44,0a1,1,0,0,0-1,.72,9.15,9.15,0,0,1-2.34,3.82,6.49,6.49,0,0,1-4.21,1.41q-9.36.07-18.72,0a6.52,6.52,0,0,1-4.43-1.5.94.94,0,0,0-1-.31c-5.71,1.88-11.61,2-17.53,1.84-1,0-2,0-3,0h-7.72c-3.07.1-6.12-.27-9.2.8-2.68.94-5.67.84-8.54,1-4.6.25-9.19.23-13.65-1.14-2.13-.66-4.2-1.47-6.5-1.4a11,11,0,0,1-2.61-.27,13.52,13.52,0,0,1-3.86-1.2c-2.8-1.52-3.19-4-3.17-6.91.06-7.56,3.63-12.77,10.34-15.81,1.87-.85,3.32-1.5,2.91-3.84,0-.11.07-.23.09-.35a7.26,7.26,0,0,1,2.07-3.74c-5.46,0-10.69,0-15.93,0-2.48,0-3.67-1-3.83-3.3a5.25,5.25,0,0,1,1-4.08,5,5,0,0,0,1.13-4.29c-.09-1.16-.13-2.32-.21-3.47-.06-.72-.12-1.44-.23-2.15A5.43,5.43,0,0,0,71.62,71C69.2,73.3,67,75.73,63.53,76.22c-.39.06-.37.35-.39.63-.41,4.89-.85,9.79-1.21,14.69a5.22,5.22,0,0,1-1.79,4.1c-3.15.76-4.49-.39-4.88-3.17a3.43,3.43,0,0,0-.11-.46c-.92-4.64-1.84-9.28-2.78-14-1.13.92-2.17,1.6-3.57,1.3a2.83,2.83,0,0,1-2.42-2.45c0-.23-.06-.47-.09-.71A7.68,7.68,0,0,0,46,73.63c-.38-.78-1.46-.47-2.21-.68-1.52-.43-2.32-1.56-3.19-2.73-1.71-2.32-2.78-5-4.35-7.42a6.08,6.08,0,0,1-.34-5.64,2.84,2.84,0,0,0,0-1.95c-2.26-7.64-4.49-15.29-6.77-22.92a3.82,3.82,0,0,1,1-4.12q9.06-9,18.08-18.07a3.58,3.58,0,0,1,3.42-1.26c1.7.37,2.43,1.3,2.57,3.25.4,5.62.54,11.26.75,16.89,0,.82.11,1.65.19,2.68L58.1,29A3.44,3.44,0,0,1,62,28.29a3.21,3.21,0,0,1,1.75,3.28c-.28,4.59-.65,9.17-1,14,.93-1,1.77-1.94,2.61-2.84.28-.29.15-.6.12-.9A4.17,4.17,0,0,1,68.27,37a1.1,1.1,0,0,0,.83-1c.48-3,2.22-5.12,4.5-7.08,3.25-2.8,7.17-3.46,11.11-4.27,6.2-1.29,12.35-2.81,18.62-3.77,3.63-.55,7.28-.94,11-1.23l16.61-1.29a7.11,7.11,0,0,1,1.66.13c.42.06.9.72,1.25.12s.94-1.44.34-2.34a4.06,4.06,0,0,0-1-1.15c-4.56-3-1.93-9.14,2.34-10.65A11.18,11.18,0,0,1,150,12.36a12.22,12.22,0,0,1,.42,1.74c.1,1.17.8,1.49,1.8,1.39a10,10,0,0,1,7.37,2.23,25.94,25.94,0,0,1,4.48,4,8.33,8.33,0,0,1,1.78,8.15c-.7,2.22-.66,4.57-1.25,6.81-.21.77.24.74.75.71a27,27,0,0,1,7.8,1,12.49,12.49,0,0,1,4.52,2c.91-2.24,2.67-3,4.92-3,5.12,0,10.25-.08,15.36,0,3.75.09,7.48-.15,11.22,0,2.35.07,4.33.71,5.18,3.47a4.17,4.17,0,0,1,1.74-2.58,5.1,5.1,0,0,1,2.93-.87c6,0,12-.06,18,0a4.44,4.44,0,0,1,4.51,2.87c1.25-2.45,3.39-2.92,5.86-2.91,7.72.05,15.44,0,23.16,0,4.54,0,9.08,0,13.62,0a23.66,23.66,0,0,1,6.85.9,1.65,1.65,0,0,0,1.54-.19,4.64,4.64,0,0,1,2.63-.67c3.08,0,6.16,0,9.24,0a4.93,4.93,0,0,1,2.94.82.67.67,0,0,0,.94,0,5.13,5.13,0,0,1,3.06-.85c3,0,5.92,0,8.87,0a5,5,0,0,1,4.12,1.77,4.46,4.46,0,0,1,.05,5.2q-3.4,4.19-6.88,8.31C314,56.8,314,56.78,313.2,62.12c-.12.75-.23,1.5-.36,2.36a47.59,47.59,0,0,1,11.92,1.1,22.06,22.06,0,0,1,10.59,5.36c.46-1.24.42-2.54,1-3.64a5.82,5.82,0,0,1,5.35-2.8c6-.09,11.92-.15,17.88,0,3.69.1,5.6,1.61,6,5.45.17,1.56-.43,3.21-.71,4.82-.59,3.42-1.21,6.83-1.8,10.24a6.94,6.94,0,0,0,0,1c1.59-2.85,3.06-5.47,4.52-8.1,1.79-3.23,3.62-6.44,5.34-9.71a6.66,6.66,0,0,1,6.51-3.75c6.44.06,12.88,0,19.32,0,2.26,0,4.25.73,5.4,2.86a15.11,15.11,0,0,1,1.08,4q3,13.33,5.84,26.7C411.68,100.55,412.24,103,412.79,105.51ZM119.55,90a3.18,3.18,0,0,1-.68.15c-1,0-1.36.59-1.52,1.49s.73.81,1.17,1.13A2.45,2.45,0,0,0,119,93l1.18,1,.94,1.44c1.07,3.28,1.17,6.78,2.23,10.06l.72,6.23.05,1.21,0,.93v1.94l-.44,1.93h1c4.92,0,9.83,0,14.75,0a29.47,29.47,0,0,0,8.81-1.25c4.46-1.34,8.4-3.49,10.65-7.81,3.18-6.07,2.07-12.69-5.41-15.42-.2-.07-.37-.14-.4-.43a5.07,5.07,0,0,1,.62-.29,11.33,11.33,0,0,0,7.4-7.53c2.08-6.54.11-11.74-7.13-13.84a40.35,40.35,0,0,0-9.91-1.25,2.84,2.84,0,0,0-3.16,2l-1.53,1.92-.72.88-2.89,3.44-2.79,3c-2.88,3-6.44,5.12-9.9,7.35a1.9,1.9,0,0,0-1,.5l-1.26.61ZM64.73,54.42h0c.6,1.59,1.79,2.79,2.7,4.18,1.83,2.79,1.85,2.76,0,5.6-1.57,2.34-3.4,4-6.5,2.86.16-1.87.35-3.73.48-5.59,0-.6.29-1.25-.21-1.79a29.31,29.31,0,0,1,.33-3.91c.55-2.54.09-4.48-2.26-5.79l1.48-18.84-.3-.09-8.06,7.36c-.39-9-.77-17.78-1.16-26.84-.44.39-.59.51-.72.65-6,6-11.91,11.93-17.91,17.86a1.49,1.49,0,0,0-.39,1.76c.88,2.92,1.73,5.85,2.6,8.77q2.37,8,4.75,15.92c-.78,1.61-1.72,3.2-.46,5,1.63,2.35,2.66,5.06,4.37,7.37a2.36,2.36,0,0,0,2.73,1.18c.53-.15,1.09-.19,1.63-.32a.9.9,0,0,1,1.09.48,44.94,44.94,0,0,0,.65,6.07l4.52-5.06,4.36,21.38.32-.06q.78-9.34,1.55-18.7c1.08-.27,2.17-.51,3.24-.8A6.64,6.64,0,0,0,66.2,71.8a59.61,59.61,0,0,0,5.6-5.41c.4-.44.54-.44.84,0a14.74,14.74,0,0,1,2.67,6.07c.06.53-.16,1.13.29,1.6l0,.37c0,1.08-.26,2.18.23,3.22v.4a42.84,42.84,0,0,0,0,4.94c-.82.8-1.82,1.44-2.11,2.67s-.21,1.56,1.14,1.56H96.37a17.93,17.93,0,0,0-1.08,4.08c-.54.23-1.1.43-1.63.7-2.2,1.1-2.88,2.67-2.17,4.95a8.5,8.5,0,0,0-1.3,2.52c-.35,1.07-1.45.73-2.14,1.15a15.79,15.79,0,0,0-7,4.63,10.73,10.73,0,0,0-2.79,7.89v.28c0,.67-.07,1.34-.08,2,0,1.83.28,2.31,2,3a7.59,7.59,0,0,0,1.47.46,24,24,0,0,0,5.92.44h.73a14.9,14.9,0,0,0,3.52,1.47c5,1.49,10,1,15.1.84a21.14,21.14,0,0,0,10.56-3.25c2.37-1.45,3.85-3,3.43-5.84,0,0,0-.08,0-.12-.41-.43,0-.9,0-1.36a45.23,45.23,0,0,0-1.36-7.82c-.59-2-.42-4.18-1.19-6.17a2.55,2.55,0,0,0-3.22-1.74,6.9,6.9,0,0,1,1.51,4.27,1.18,1.18,0,0,1-.82,1.31,13,13,0,0,1-3.13.69c-.26,0-.77.07-.37-.48.94-.18,1.88-.33,2.8-.55a1.16,1.16,0,0,0,1-.73,6.75,6.75,0,0,0-1.24-3.84,5.8,5.8,0,0,1-2.27-5.78,12.5,12.5,0,0,0,.32-3.05l1.91,0c1.5,0,3,.16,4.46-.53a40.21,40.21,0,0,0,9-5.65A72.23,72.23,0,0,0,139.65,68c1.21-1.68,1-2.44-1-3.4q-.12-3.64-.23-7.29c0-.49,0-.93.51-1.23a13.69,13.69,0,0,0,4.48-3.88,2.77,2.77,0,0,1,1.73-.94c1.86-.46,3.91-.62,4.79-2.82a4.64,4.64,0,0,1,4.9-3.19A4.82,4.82,0,0,0,160,41.63c.41-1.7,1-3.34,1.43-5,.61-2.46.66-5,1.43-7.47a5.43,5.43,0,0,0-.92-5.07,12.09,12.09,0,0,0-2.71-2.68c-1.85-1.35-3.56-3.05-6.16-2.72a8.72,8.72,0,0,1-4.48-1,1.58,1.58,0,0,1-1.1-1.69c-.26-4.56-2.63-8.13-7.24-9a6.15,6.15,0,0,0-5.61,1.68,2.49,2.49,0,0,0,.06,3.69c.46.45.91.9,1.36,1.36a4.52,4.52,0,0,1,1,5.27c-.91,2.3-2.29,4.39-3,6.76-.16.53-.55.62-1,.54-1.62-.67-1.56-2.16-1.4-3.44s-.46-1.38-1.4-1.2a33.34,33.34,0,0,1-4.75.46c-2.63.13-5.26.34-7.87.58-2,.19-3.91.48-5.84.61-3.43.21-6.79.74-10.17,1.21C95.67,25.33,89.91,27,84,28a17.6,17.6,0,0,0-9.48,4.37,5.94,5.94,0,0,0-2.13,4.13v0a2.78,2.78,0,0,0-.22,1.92,3.07,3.07,0,0,1-.49,2.21c-.23-.67-.67-1-1.41-.84s-1.55.08-1.57,1.15l-.06.27c-.15.87.34,1.62.46,2.44a32.83,32.83,0,0,0-4.63,4.87,5.61,5.61,0,0,0-1.37,2.59,2.14,2.14,0,0,0,1.3,2.62l-.09.37C64.37,54.32,64.52,54.4,64.73,54.42Zm287.73,62.1-.2-.08a9.52,9.52,0,0,1,.11-1.06c.52-3,1.07-6,1.59-9,1-5.75,2-11.51,3-17.26,1.06-6.14,2.16-12.28,3.25-18.41.09-.52,0-.7-.59-.7q-8.94,0-17.88,0c-.5,0-.65.14-.72.66-.17,1.3-.46,2.58-.68,3.87q-1.5,8.63-3,17.26-1.63,9.45-3.28,18.89c-.34,2-.7,3.9-1.1,6.12-.54-1-.9-1.74-1.35-2.44-3.2-5-5.19-10.81-9.45-15.19a.31.31,0,0,1,.13-.12c.71-.25,1.43-.48,2.14-.74,4.09-1.46,7.46-3.73,9.07-8a20.9,20.9,0,0,0,1.17-5c.49-4.5-.49-8.49-4.25-11.4s-7.91-3.76-12.31-3.86c-8.31-.19-16.63-.06-24.95-.08-.56,0-.79.1-.89.76-.63,3.88-1.35,7.74-2,11.61q-1.5,8.57-3,17.14c-1,5.75-2,11.5-3,17.24-.17,1,.09,1,.9,1,5.56,0,11.12,0,16.68,0,.83,0,1.09-.3,1.21-1,.49-3,1-6,1.5-8.93.31-1.79.64-3.58,1-5.37a1.27,1.27,0,0,1,.51.66c1.68,4.52,3.38,9,5,13.57a1.34,1.34,0,0,0,1.52,1.06c7.12,0,14.24,0,21.36,0q18.54,0,37.08,0a1.37,1.37,0,0,0,1.54-1c.53-1.45,1.23-2.83,1.83-4.25.17-.39.32-.68.84-.67q6.6,0,13.2,0c.43,0,.62.13.66.61.12,1.46.34,2.92.46,4.39.06.69.26,1,1,1q9.3,0,18.6,0c.73,0,.8-.15.64-.87-1.67-7.51-3.28-15-4.91-22.53-1.7-7.79-3.42-15.57-5.09-23.35-.17-.78-.44-1.06-1.3-1.05-6.4.05-12.8,0-19.2,0a1.36,1.36,0,0,0-1.4.79q-8.55,15.46-17.14,30.91ZM239.31,55.1c-.28-4.35-1.13-8.57-1.7-12.84-.09-.71-.47-.59-.89-.59-2.64,0-5.28,0-7.92,0-.65,0-.88,0-.68.84,1.83,7.12,3.61,14.26,5.39,21.4.14.59.37.84,1,.83,2,0,4-.06,6,0a1.47,1.47,0,0,0,1.5-.84q4.82-8.12,9.69-16.2l2.94-4.9.13.07c-1.25,7.25-2.51,14.5-3.78,21.85,5.62,0,11.17,0,16.72,0,.62,0,.61-.4.68-.76.29-1.56.54-3.14.84-4.7.14-.73-.15-.84-.8-.83-2,0-4,0-6,0-.33,0-1.19.45-1-.47.17-.68-.46-1.94,1.11-1.89,1.8,0,3.6,0,5.4,0,.47,0,.85,0,.95-.61.27-1.77.57-3.53.88-5.4h-7.06a2.76,2.76,0,0,0,.15-.67c-.06-1.28.6-1.56,1.77-1.49,1.8.09,3.6,0,5.4,0,.54,0,.89-.06,1-.7.24-1.62.53-3.22.82-4.83.09-.55,0-.76-.65-.75q-12.4,0-24.83,0c-.42,0-.73,0-.95.5C243.45,46.48,241.09,50.62,239.31,55.1Zm49.28.59c.58-.21,1.1-.39,1.62-.59,3.13-1.26,4.42-3.5,4.39-7.1,0-3-1.94-5-5.23-5.84a11.13,11.13,0,0,0-1.28-.25c-4.47-.51-8.95-.11-13.42-.25-.59,0-.61.29-.68.71-.41,2.48-.85,5-1.27,7.42-.83,4.94-1.65,9.89-2.49,14.92,2.86,0,5.65,0,8.45,0,.57,0,.6-.31.67-.75.36-2.19.76-4.37,1.14-6.56a51.68,51.68,0,0,1,2.06,5c.86,2.3.87,2.3,3.38,2.3h8.15C292.12,61.66,290.89,58.43,288.59,55.69Zm-.48,14.4a.79.79,0,0,0-.25-.08l-34.43,0c-.58,0-.67.19-.77.73-1.23,7.2-2.52,14.39-3.78,21.58-1.43,8.21-2.84,16.42-4.28,24.63-.1.58-.08.85.65.85q17.22,0,34.43,0c.59,0,.78-.15.88-.78.63-3.83,1.32-7.66,2-11.48.13-.67,0-.85-.66-.84-1.64,0-3.28,0-4.92,0H266.94c-.45,0-.92.06-.78-.66.19-1.05.37-2.11.52-3.17.1-.65.37-.88,1.08-.87,4.24,0,8.48,0,12.72,0,.88,0,1.14-.28,1.27-1.1.54-3.45,1.11-6.89,1.77-10.32.17-.86.09-1.11-.83-1.09-2.32.06-4.64,0-6.95,0H269c.18-1.09.4-2.06.49-3s.54-1.45,1.71-1.43c4.56.09,9.12,0,13.68,0,.51,0,1,.12,1.14-.68C286.71,78.28,287.42,74.19,288.11,70.09ZM152.44,64.75c4.92-.21,9.72.28,14.49-.28A13.52,13.52,0,0,0,178.64,54c1.28-5.44-.79-9.53-5.74-11.3a26.14,26.14,0,0,0-9.22-1.08c-.46,0-.5.25-.57.58-.79,3.6-3.3,5.31-6.71,5.87A1.41,1.41,0,0,0,155,49.53C154.19,54.56,153.33,59.58,152.44,64.75Zm2.79,53c6.69,0,13.23,0,19.77,0,.56,0,.65-.34.81-.7.64-1.48,1.29-3,1.92-4.47.2-.46.37-.8,1-.79,4.32,0,8.64,0,13,0,.54,0,.76.11.81.71.1,1.47.34,2.93.46,4.4.05.68.35.83,1,.83q9.3,0,18.6,0c.68,0,.84-.08.67-.85-1.6-7.16-3.13-14.32-4.69-21.49C206.74,87.3,205,79.17,203.2,71c-.18-.87-.55-1.08-1.4-1.07q-9.48,0-19,0a1.6,1.6,0,0,0-1.66,1q-9.93,18-19.91,35.91C159.28,110.42,157.29,114,155.23,117.75Zm34.35-67.69a2.76,2.76,0,0,0,.15-.67c-.06-1.31.63-1.54,1.78-1.48,1.8.09,3.6,0,5.4,0,.54,0,.88-.08,1-.71.25-1.61.53-3.22.82-4.83.1-.55,0-.75-.65-.74q-7.74,0-15.47,0c-.58,0-.82.15-.93.76Q179.83,53.21,177.93,64c-.14.78.15.76.7.76,5.23,0,10.47,0,15.7,0,.53,0,.79-.09.88-.66.25-1.61.55-3.22.85-4.82.12-.62-.05-.82-.7-.8-2,0-4,0-6,0-.36,0-1.24.45-1.05-.5.14-.68-.45-1.92,1.12-1.86,1.8.06,3.6,0,5.4,0,.49,0,.84,0,.93-.63.27-1.76.57-3.52.88-5.39Zm24.74,67.69c6,0,12,0,17.87,0,1.21,0,1.4-.47,1.56-1.45.62-3.88,1.3-7.75,2-11.62,1.08-6.22,2.2-12.43,3.25-18.65.13-.77.36-1,1.12-1,2.79.17,5.59.25,8.38.46,1,.07,1.21-.27,1.34-1.13q1.11-6.75,2.31-13.5c.12-.71.07-1-.76-1Q232.19,70,213,70c-.73,0-1,.26-1.07.91-.77,4.62-1.57,9.24-2.37,13.86-.1.6,0,.87.7.82,2.4-.15,4.79-.27,7.19-.37.85,0,1.71,0,2.57,0C218.11,96,216.23,106.83,214.32,117.75Zm80.29-76.08c.14.3.21.43.27.57q3,5.91,5.9,11.83a2.1,2.1,0,0,1,.22,1.46c-.52,2.74-.95,5.5-1.45,8.24-.12.67-.08,1,.78,1,2.39-.07,4.79,0,7.19,0,.71,0,1-.21,1.09-.89.45-2.79,1-5.57,1.41-8.36a2.47,2.47,0,0,1,.58-1.28q2.06-2.41,4.09-4.86l6.39-7.67c-2.67,0-5.15.14-7.59,0-2-.16-3.37.35-4.23,2.29a35,35,0,0,1-2.43,3.95c-.58-2-1.1-3.7-1.59-5.45-.15-.53-.35-.78-1-.77C301.11,41.69,298,41.67,294.61,41.67ZM215.18,57.3c-2.33,0-4.6,0-6.87,0-.67,0-.83-.22-.72-.82.29-1.53.57-3,.83-4.58.59-3.39,1.17-6.78,1.77-10.25-2.91,0-5.7,0-8.49,0-.56,0-.75.19-.84.73-1.26,7.41-2.54,14.82-3.83,22.32h16c.45,0,.95.17,1.06-.59C214.39,61.88,214.79,59.65,215.18,57.3Zm-.63,7.41c2.91,0,5.79,0,8.66,0,.58,0,.61-.36.68-.77q1.85-10.77,3.73-21.54c.1-.6,0-.76-.58-.75-2.6,0-5.2,0-7.79,0-.55,0-.77.16-.87.71C217.13,49.79,215.84,57.2,214.55,64.71Zm-47.83,21,2.72-4.87,6.38-11.44c.25-.45.44-.81-.22-1.11a2.55,2.55,0,0,1-1.21-1.13c-.23-.44-.51-.48-.94-.25a23.21,23.21,0,0,1-5.32,1.69,28.21,28.21,0,0,1-6.16.45C166.44,72.69,168.5,78.65,166.72,85.71Zm-16.6-32.78a5.38,5.38,0,0,1-1.09.44c-2.22.32-3.73,1.72-5.44,3.05a4.66,4.66,0,0,0-2,4.73c.25,2.35,1.11,3.3,3.42,3.33a14.46,14.46,0,0,1,2.28.12c.56.08.82-.06.91-.6C148.86,60.35,149.48,56.71,150.12,52.93Zm146.49,2.94c-.58.51-1.39.9-1.54,1.47s.4,1.29,1,1.79C296.24,58,296.42,57,296.61,55.87ZM64.24,63.09c1.46-1.67,1.46-1.73.34-2.73Zm164.34-1.28c-.15.83-.25,1.44-.36,2.06-.09.45.08.61.56.6s.44-.32.37-.62C229,63.22,228.79,62.59,228.58,61.81Z"/><path class="cls-2" d="M24.91,76.43a1.93,1.93,0,0,1,0-.24c0-2.29.51-2.51-2.24-2.67-.77,0-1.28-.41-1.17-1.3,0-.24-.07-.49,0-.72.19-1.37-.49-1.79-1.77-1.85-1.63-.08-1.77-.34-1.74-2s0-1.71-1.69-1.84c-1.41-.1-1.62-.32-1.64-1.73,0-2.09-.1-2.2-2.21-2.21a1.09,1.09,0,0,1-1.2-.87,2.76,2.76,0,0,1,1.26-3.5,5.93,5.93,0,0,1,1.94-.9,5.67,5.67,0,0,1,3.2,2.51c1,1.42,2.05,2.85,3.17,4.2,2.77,3.29,5.56,6.57,8.42,9.79a72,72,0,0,0,6.5,7,19.12,19.12,0,0,1,4.22,4.53c-.45.59-.92,1.17-1.34,1.78a1,1,0,0,1-1.6.35c-1.21-1-2.18-2.56-4.16-1.84a.54.54,0,0,1-.46-.07c-1-.72-.86.12-.9.65-.14,1.9,1.2,2.81,2.54,3.72,0,.59,1.11.83.54,1.63l-2.15,2.45a.91.91,0,0,0-.48-.77c-1.76-1.22-3.47-2.53-5.27-3.7a184.62,184.62,0,0,0-17.1-10C6.38,77.24,3.2,75.67,0,74.08A5,5,0,0,1,1.61,70c1.36-1.44,3-1,3.58.82.47,1.49.63,1.59,2.1,1.22s1.64-.38,2.17,1.09c.67,1.85.69,1.9,2.52,1.37,1.08-.3,1.7-.06,1.92,1.06.06.31.24.6.31.91.2.86.75,1.06,1.53.84l.93-.26a1.15,1.15,0,0,1,1.63.86c.79,2.21.83,2.18,3.13,1.49a7.71,7.71,0,0,0,2.62-.78,5.16,5.16,0,0,0,1.81-.56c2.7-1.13,5.93.51,5.57,3.79a9.55,9.55,0,0,0,0,1.31c0,.16,0,.37.21.38a.5.5,0,0,0,.37-.21c.52-1.33,1.25-2.66.6-4.12A3.7,3.7,0,0,0,29,76.93,14.25,14.25,0,0,1,24.91,76.43Zm2.89,7.45c1.07,0,1.89-1,1.95-2.36a2,2,0,0,0-2-2,2.41,2.41,0,0,0-2.54,2.16A2.47,2.47,0,0,0,27.8,83.88Z"/><path class="cls-1" d="M405.82,28.34c4,1.87,7.92,3.75,11.71,6,10.73,6.27,17.82,15.52,22.9,26.71,6.57,14.48.14,29.36-12,37.3a31.24,31.24,0,0,1-12.75,4.85.67.67,0,0,1-.75-.68c-.09-.8-.29-1.6-.44-2.4a29.26,29.26,0,0,0,25.27-24.15A22.63,22.63,0,0,0,438,63.52c-3.63-8.59-8.42-16.32-15.86-22.17a73.15,73.15,0,0,0-17.43-9.91l.87-2.49c.11-.07.18-.15.11-.29Z"/><path class="cls-1" d="M127.46,125.93c-1.38,8.39-4.84,15.75-11.25,21.43-8.36,7.42-17.76,8.61-28,4.18-6.74-2.92-11.57-7.85-15.25-14.06-1.38-2.34-2.77-4.67-4-7.07-3.49-6.59-8.57-11.91-13.69-17.2,0-.84.76-1.12,1.13-1.69.43,0,.62-.4.95-.56,4.14,4.39,8.45,8.62,11.73,13.74,2.15,3.36,4,6.88,6,10.34,3.7,6.46,8.58,11.56,15.72,14.25,8.32,3.15,15.92,2,22.77-3.66a31.3,31.3,0,0,0,9-13.19,57.13,57.13,0,0,0,1.81-6.76C125.44,125.85,126.48,125.45,127.46,125.93Z"/><path class="cls-2" d="M334.33,13.36A5,5,0,0,1,336,8.71c1.42-1.31,3-.83,3.6,1,.5,1.6.63,1.67,2.28,1.23s1.58-.4,2.13,1.14c.71,1.92.71,1.95,2.7,1.43,1-.25,1.66-.16,1.87,1a3.73,3.73,0,0,0,.2.56c.6,1.66.67,1.7,2.42,1.24,1.49-.4,1.58-.34,2.09,1.09a3.68,3.68,0,0,1,.24.68c.2,1.24,1,1.31,1.93.94a8,8,0,0,1,2.3-.63,25,25,0,0,0,3.48-1.19c3.14-1,6,.87,5.56,3.89a3.52,3.52,0,0,0,.43,2.16c-.72,2.48-.22,4.13,1.8,5.26a4.08,4.08,0,0,1,.76.74c.17.44.85.77.31,1.37-.9.59-1.28,1.64-2.1,2.3-2.27-1.67-4.45-3.46-6.81-5a219.11,219.11,0,0,0-23.78-13.23C336.37,14.21,335.49,13.44,334.33,13.36Zm28.73,9.87a2.33,2.33,0,0,0,2-2.54,2.09,2.09,0,0,0-2.23-2,2.48,2.48,0,0,0-2.56,2.17C360.25,22.15,361.46,23.2,363.06,23.23Z"/><path class="cls-3" d="M405.57,29l-.87,2.49a2.51,2.51,0,0,1-2.7,2.2,10.22,10.22,0,0,1-4-.82q-10.61-4.12-21.18-8.31a14.13,14.13,0,0,1-3-1.94,1.21,1.21,0,0,0,1.2-1c.2-.69.41-1.37.62-2.05l.46-.75a39.24,39.24,0,0,1,6.95,1.64c5.42,1.57,10.82,3.23,16.26,4.74,2.39.66,4.82,1.12,6.5,3.17v0l-.14.32C405.65,28.76,405.61,28.85,405.57,29Z"/><path class="cls-3" d="M368,32.87c.82-.66,1.2-1.71,2.1-2.3a4.79,4.79,0,0,0,.59.74c3.21,2.61,6.47,5.18,9.65,7.83,3.8,3.16,7.79,6.08,11.42,9.45,1.92,1.78,1.89,1.81.47,3.9-1.56,2.67-3.64,3.09-5.88,1-6.14-5.69-12.23-11.44-18.34-17.17a6.42,6.42,0,0,1-1.69-2.82C367.29,34.49,367.5,33.36,368,32.87Z"/><path class="cls-3" d="M56.38,111.52c-.37.57-1.17.85-1.13,1.69-2.69,1.45-3.43,1.36-5.68-.75L33.06,97a7,7,0,0,1-2.13-3.24c.76.73,1.09.08,1.46-.45.72-.82,1.43-1.64,2.15-2.45a5.31,5.31,0,0,0,.68.81q4.94,4,9.89,8.08c3.48,2.85,7.08,5.55,10.4,8.6C56.48,109.24,57.51,110.07,56.38,111.52Z"/><path class="cls-2" d="M375.65,19.56c-.21.68-.42,1.36-.62,2.05a1.21,1.21,0,0,1-1.2,1c-.43-.19-.87-.37-1.29-.57-1.11-.54-2.19-.84-3.31,0a2.83,2.83,0,0,1-1,.26c-1-.54-.58-1.5-.56-2.26.13-3.86-2.71-5.2-5.66-4.23-1.26.42-2.5,1.09-3.92.91a1.93,1.93,0,0,0-.11-.34c-.84-2.12-.84-2.12-3.11-1.62-.78.18-1.44.1-1.64-.85a1.4,1.4,0,0,0-.13-.34c-.77-1.89-.77-1.89-2.74-1.41-1.44.35-1.67.22-2.18-1.23-.64-1.81-.64-1.82-2.53-1.27-1,.3-1.71.11-2-1a4.63,4.63,0,0,0-.21-.56c-.57-1.43-.76-1.54-2.19-1.15-.76.21-1.48.82-2.16-.27s-1-2.32-.32-3.35a7.53,7.53,0,0,1,1.87-2,5.45,5.45,0,0,1,4,1.22,30.06,30.06,0,0,0,2.89,1.91c8.51,4.63,16.75,9.77,25.78,13.39C374.22,18.21,375.23,18.5,375.65,19.56Z"/><path class="cls-4" d="M392.18,52.49c1.42-2.09,1.45-2.12-.47-3.9-3.63-3.37-7.62-6.29-11.42-9.45-3.18-2.65-6.44-5.22-9.65-7.83a4.79,4.79,0,0,1-.59-.74c.54-.6-.14-.93-.31-1.37a7.38,7.38,0,0,1,3.63,1.66c6,4.44,11.82,9.11,18,13.32A9.53,9.53,0,0,1,394,46.73,4,4,0,0,1,392.18,52.49Z"/><path class="cls-4" d="M405.82,28.36c-1.68-2.05-4.11-2.51-6.5-3.17-5.44-1.51-10.84-3.17-16.26-4.74a39.24,39.24,0,0,0-6.95-1.64,2.79,2.79,0,0,1,.11-1.46c1.77-.55,3.51-.06,5.17.38,7.27,1.92,14.51,4,21.76,6,.15,0,.3.1.45.15C406.05,24.73,406.59,25.84,405.82,28.36Z"/><path class="cls-5" d="M368,32.87c-.45.49-.66,1.62-1.68.65-3.2-2.1-6.38-4.24-9.61-6.31a167.34,167.34,0,0,0-19.76-11,6.48,6.48,0,0,1-2-1.28c-.42-.42-.88-.85-.55-1.55,1.16.08,2,.85,3,1.31A219.11,219.11,0,0,1,361.14,27.9C363.5,29.41,365.68,31.2,368,32.87Z"/><path class="cls-4" d="M55.15,92a3.43,3.43,0,0,1,.11.46c.39,2.78,1.73,3.93,4.88,3.17,1.14.86,2.32,1.68,3.43,2.59,1.92,1.58,2,2.94.28,4.84a6.41,6.41,0,0,0-2.73-3.78q-5.8-4.2-11.55-8.49c-3-2.21-5.78-4.64-9-6.44A2.81,2.81,0,0,1,41,83a8.79,8.79,0,0,1,3.81,1.64c3.24,2,6.18,4.41,9.26,6.62C54.41,91.54,54.79,91.77,55.15,92Z"/><path class="cls-5" d="M32.39,93.31c-.37.53-.7,1.18-1.46.45-3.4-2.22-6.77-4.47-10.2-6.66A167.27,167.27,0,0,0,2.44,76.94C1.25,76.37-.14,75.85,0,74.08c3.17,1.59,6.35,3.16,9.51,4.78a184.62,184.62,0,0,1,17.1,10c1.8,1.17,3.51,2.48,5.27,3.7A.91.91,0,0,1,32.39,93.31Z"/><path class="cls-6" d="M376.22,17.35a2.79,2.79,0,0,0-.11,1.46l-.46.75c-.42-1.06-1.43-1.35-2.33-1.71-9-3.62-17.27-8.76-25.78-13.39a30.06,30.06,0,0,1-2.89-1.91,5.45,5.45,0,0,0-4-1.22,4.54,4.54,0,0,1,1.18-1,1.28,1.28,0,0,1,1.71,0,192.57,192.57,0,0,0,29.08,15.42C373.83,16.25,375,16.81,376.22,17.35Z"/><path class="cls-6" d="M41,83a2.81,2.81,0,0,0-.47,1.34l-.59.28a19.37,19.37,0,0,0-4.23-4.53,72,72,0,0,1-6.5-7c-2.86-3.22-5.65-6.5-8.42-9.79-1.12-1.35-2.14-2.78-3.17-4.2a5.67,5.67,0,0,0-3.2-2.51,1.32,1.32,0,0,1,.2-.12c2-.77,2-.73,3.24,1A201.76,201.76,0,0,0,36.68,78.86C38.1,80.26,39.55,81.63,41,83Z"/><path class="cls-7" d="M414.49,100.09c.15.8.35,1.6.44,2.4a.67.67,0,0,0,.75.68c-.12.22-.44.21-.45.6,0,1.78-.84,2.34-2.44,1.74-.55-2.48-1.11-5-1.66-7.45l.55-.6a1.4,1.4,0,0,1,2.45.53A13.35,13.35,0,0,1,414.49,100.09Z"/><path class="cls-7" d="M127.46,125.93c-1-.48-2-.08-3-.25-2.21.12-2.74-.49-2.08-2.38h7.72c.8,1.41.27,2.42-1.31,2.54Z"/><path class="cls-6" d="M358.08,16.71c1.42.18,2.66-.49,3.92-.91,2.95-1,5.79.37,5.66,4.23,0,.76-.46,1.72.56,2.26l-1,.91a3.52,3.52,0,0,1-.43-2.16c.42-3-2.42-4.88-5.56-3.89a25,25,0,0,1-3.48,1.19C357.83,17.8,358,17.25,358.08,16.71Z"/><path class="cls-6" d="M24.91,76.43a14.25,14.25,0,0,0,4.11.5,3.7,3.7,0,0,1,3.6,2.27c.65,1.46-.08,2.79-.6,4.12a.5.5,0,0,1-.37.21c-.19,0-.2-.22-.21-.38a9.55,9.55,0,0,1,0-1.31c.36-3.28-2.87-4.92-5.57-3.79a5.16,5.16,0,0,1-1.81.56A8.54,8.54,0,0,1,24.91,76.43Z"/><path class="cls-8" d="M64.44,53.72a2.13,2.13,0,0,1-1.31-2.62,5.61,5.61,0,0,1,1.37-2.59,32.83,32.83,0,0,1,4.63-4.87l.23.37-.34.53c-.8.83-.39,1.37.48,1.67a5.08,5.08,0,0,0,4.14-.58c.4-.21.86-.41.73-1.05s-.21-1.21-1-1.21L72.46,43a11.06,11.06,0,0,0-.75-2.39,3.07,3.07,0,0,0,.49-2.21,2.78,2.78,0,0,1,.22-1.92,4.64,4.64,0,0,0,1.29-.07c1.24-.11,2.48-.14,3.73-.16.09,0,.22.3.39.05a.26.26,0,0,0,0-.21c-.07-.21-.27-.14-.4-.12a37.28,37.28,0,0,0-5,.53,5.94,5.94,0,0,1,2.13-4.13A17.6,17.6,0,0,1,84,28c5.88-1,11.64-2.68,17.57-3.49,3.38-.47,6.74-1,10.17-1.21,1.93-.13,3.89-.42,5.84-.61,2.61-.24,5.24-.45,7.87-.58a33.34,33.34,0,0,0,4.75-.46c.94-.18,1.59-.22,1.4,1.2s-.22,2.77,1.4,3.44c-.27.41-.8.34-1.13.62l-1.23.46c-.4.15-.87.15-1.15.56a2.63,2.63,0,0,0-1.86.77,1.13,1.13,0,0,0-1.2.48,1.31,1.31,0,0,0-1.24.44,4.38,4.38,0,0,0-2.21.94,5.24,5.24,0,0,0,2.26-.89,1.66,1.66,0,0,0,1.19-.49,1.6,1.6,0,0,0,1.2-.48,4,4,0,0,0,1.92-.71,1.94,1.94,0,0,0,1.22-.46,1.82,1.82,0,0,0,1.19-.49l.78-.23c.26-.07.51-.38.76-.17s.07.52,0,.78a30.85,30.85,0,0,1-.88,3.4,2,2,0,0,0-1.12.35c-3.45,2-7.33,3.33-10.43,6-2.3,2-4.61,3.95-7,5.87-2,1.69-4,3.55-6.17,5.05-.38.33-.87.17-1.3.29h0a1.33,1.33,0,0,0-.91-.21l-10.39,0a30.41,30.41,0,0,0-3.5-1,2.05,2.05,0,0,0-2.54,1.14,2.86,2.86,0,0,0-1.42-.11,65,65,0,0,0-12.46,2.16l-.33-.25c2.6-2.63,6-3.11,9.45-3.54L82.76,46c-.57-.55-1.43-.29-2.4-.82,3.16-.38,5.94-1,9-1.19a11.68,11.68,0,0,0-2.3,2.94c4.51-2.82,8.93-1.25,13.38.17-.37-.47-.58-1-1.22-1.1a.57.57,0,0,1-.18,0l0,0a5.42,5.42,0,0,0-1.94-1.55c0-.35-.14-.49-.49-.36h0c-.11-.68-.79-.68-1.21-1a3.8,3.8,0,0,0-4.75.27l.06.05c-1.72.37-3.45.61-5.2.81-2.44.26-4.85.75-7.29.94-2.24.18-3.17.75-3.87,2.94a18.8,18.8,0,0,0-.51,2,1.12,1.12,0,0,1-.37.72ZM127.9,24.4c-.44.05-1-.06-1.2.48-.34.11-.79-.13-1.08.42a1.5,1.5,0,0,0,1.06-.44,2,2,0,0,0,1.21-.48l.49-.23a2.05,2.05,0,0,0,1.2-.48A2.62,2.62,0,0,0,131,23c-.45.26-1.12,0-1.41.66-.44.06-1-.08-1.2.48C128.21,24.2,128,24.17,127.9,24.4Zm-25.44,12c-1.3.62-2,1.86-2.93,2.9l2.92-2.91.27.09c.25.51.49,1,.73,1.53l-.24.53c-.84.78-.48,1.35.39,1.68a4.87,4.87,0,0,0,4-.42c.6-.31,1.3-.71,1.12-1.49s-1-1-1.71-.92l-.49-.34a14,14,0,0,0-.85-2.43c-.26-.62-.61-1-1.32-.84s-1.64.14-1.86,1.17v.27a.43.43,0,0,0,.1.5Z"/><path class="cls-9" d="M352.46,116.52l8.25-14.85q8.58-15.45,17.14-30.91a1.36,1.36,0,0,1,1.4-.79c6.4,0,12.8,0,19.2,0,.86,0,1.13.27,1.3,1.05,1.67,7.78,3.39,15.56,5.09,23.35,1.63,7.51,3.24,15,4.91,22.53.16.72.09.88-.64.87q-9.3,0-18.6,0c-.75,0-.95-.26-1-1-.12-1.47-.34-2.93-.46-4.39,0-.48-.23-.61-.66-.61q-6.6,0-13.2,0c-.52,0-.67.28-.84.67-.6,1.42-1.3,2.8-1.83,4.25a1.37,1.37,0,0,1-1.54,1q-18.54,0-37.08,0c-7.12,0-14.24,0-21.36,0a1.34,1.34,0,0,1-1.52-1.06c-1.64-4.53-3.34-9-5-13.57a1.27,1.27,0,0,0-.51-.66c-.31,1.79-.64,3.58-1,5.37-.51,3-1,6-1.5,8.93-.12.7-.38,1-1.21,1-5.56-.06-11.12,0-16.68,0-.81,0-1.07-.08-.9-1,1.06-5.74,2-11.49,3-17.24s2-11.43,3-17.14c.68-3.87,1.4-7.73,2-11.61.1-.66.33-.76.89-.76,8.32,0,16.64-.11,24.95.08,4.4.1,8.69,1.06,12.31,3.86s4.74,6.9,4.25,11.4a20.9,20.9,0,0,1-1.17,5c-1.61,4.27-5,6.54-9.07,8-.71.26-1.43.49-2.14.74a.31.31,0,0,0-.13.12c4.26,4.38,6.25,10.16,9.45,15.19.45.7.81,1.45,1.35,2.44.4-2.22.76-4.17,1.1-6.12q1.63-9.45,3.28-18.89,1.49-8.64,3-17.26c.22-1.29.51-2.57.68-3.87.07-.52.22-.66.72-.66q8.94,0,17.88,0c.56,0,.68.18.59.7C359.09,76.81,358,83,356.93,89.09c-1,5.75-2,11.51-3,17.26-.52,3-1.07,6-1.59,9a9.52,9.52,0,0,0-.11,1.06Zm25.76-42.26c-3.43,5.86-6.68,11.8-9.9,17.77-.59,1-1.21,2-1.79,3.08q-5.07,9.17-10.13,18.35L355,115.8h2.77c2.91,0,5.82,0,8.73,0,1.4,0,3.06.43,4.11-.17s1.25-2.47,1.86-3.76a.47.47,0,0,0,.05-.1,2.65,2.65,0,0,1,2.93-1.92c4.19,0,8.38,0,12.56,0,1.8,0,2.22.28,2.88,1.89.11,1.07.24,2.13.31,3.2,0,.73.38.88,1.07.88q7.14,0,14.28,0c.8,0,1-.12.79-1-1.77-7.94-3.46-15.89-5.2-23.83-.9-4.08-1.85-8.15-2.78-12.22-.42-2-.9-3.95-1.22-5.95-.14-.85-.51-1-1.26-1-5,0-10.05.14-15.06,0C379.85,71.78,378.75,72.43,378.22,74.26ZM293.53,75c-.21,1.1-.44,2.19-.63,3.29q-.79,4.71-1.57,9.44a2.39,2.39,0,0,0-.18.44c-.81,4.64-1.63,9.29-2.43,13.94-.49,2.89-1,5.79-1.43,8.69a38.53,38.53,0,0,0-.88,5c4.79,0,9.46,0,14.14,0,.49,0,.74-.17.8-.64.1-.83.2-1.66.31-2.49l.27-1.46a.15.15,0,0,0,.06-.17c.53-2.9,1.07-5.79,1.57-8.69a2,2,0,0,1,1.22-1.65c1.21-.54,2.35,0,2.89,1.45q2.4,6.38,4.75,12.76c.19.5.29.91,1,.9,4.64,0,9.27,0,13.9-.06h2.92l-1.52-2.58c-1.87-3.36-3.73-6.73-5.61-10.09a6.58,6.58,0,0,0-2.07-2.13,1.81,1.81,0,0,1-.83-1.89,2.62,2.62,0,0,1,2.25-2.22c4.94-1.37,8.78-3.94,9.86-9.39.15-.9.35-1.8.46-2.71A9.8,9.8,0,0,0,327,74,23.49,23.49,0,0,0,316.76,72c-1.11,0-2.23,0-3.35,0q-9.21,0-18.43,0c-.35,0-1-.32-1,.41A11.52,11.52,0,0,0,293.53,75Zm43.89,40.79c3.95,0,7.9,0,11.85.07,1,0,1.24-.35,1.33-1.17.26-2.28.72-4.54,1.14-6.8,1.13-6.06,2.11-12.15,3.15-18.23L358,72a2.62,2.62,0,0,0-.41-.1c-4.72,0-9.43,0-14.15,0-.9,0-.83.58-.91,1.06q-1.32,7.61-2.6,15.21c-.9,5.09-1.82,10.19-2.7,15.29-.59,3.41-1.13,6.83-1.69,10.24a8.11,8.11,0,0,0-.37,2.12Z"/><path class="cls-10" d="M75.86,78.08v-.4a9.2,9.2,0,0,0-.23-3.22l0-.37a13.08,13.08,0,0,0-2.5-7.72c-2.64-3.9-5.24-7.82-7.86-11.73a1,1,0,0,1,.61-.54l6.91-2.25c.22-.07.53-.18.47.23s.16.72.59.58.68-.44.35-.91l.08-.24c.18,0,.34-.08.27-.32l0-.06a1.36,1.36,0,0,0,1,0c1.38-.35,2.77-.67,4.13-1,.22.45-.76.77,0,1.19-.29.7-.59,1.39-.88,2.09a5,5,0,0,0,.83,5.1,11.88,11.88,0,0,0,2,2.43c.27.42-.35.45-.43.82a12.16,12.16,0,0,1,5.61-.55c.89.08,1-.28,1.09-.91-.09-.4.18-.7.3-1,.61-.52.49-1.29.65-1.95s.33,0,.49,0c.4.13.42.55.65.8,1.24,1.31,1.88,3.74,4.53,2.41.08,0,.34.15.55.09.75-.41.39.27.49.5.67-.82,1.37-1.62,2-2.47.34-.47,1.08-.59,1.12-1.31h0c1.17-.09,1.92-1,2.82-1.6l-1.2.45c-.33-.55-.06-1.15-.17-1.72s0-1.2-.69-1.45a8.44,8.44,0,0,0-1.67-3.09c.14,0,.36,0,.25-.26a.25.25,0,0,0-.39-.09l-.06-.06a.79.79,0,0,1,.93-.45c2.89.28,5.79.1,8.69.11.13,0,.26-.15.39-.23h.21a5.17,5.17,0,0,1,.61.72c2.22,4.1,4.71,8.11,5.86,12.68,1.47,5.78,1.23,11.72,1.22,17.62,0,.64-.43.65-.89.7-9.14.86-18.28,1.82-27.49,1.68-3.63,0-7.26,0-10.9.21C75.94,81,76.19,79.53,75.86,78.08Zm6.83-8a18.13,18.13,0,0,1,.07,9c-.15.69.07.8.67.85,3.3.33,6.62.48,9.92.75,4.12.34,6.74-1.53,8.54-5,.37-.7.76-1.4,1.07-2.14a50,50,0,0,0,2.5-7.37c.07-.27.31-.56,0-.87C97.08,69.75,96,70,82.69,70.07Zm7.2-2.77a2.62,2.62,0,0,1-2.16-1.47c-.36-.76.43-.93.74-1.28a5,5,0,0,0,1.27-3.35c-.58,1-.8,2.24-1.73,3.09-.42.38-1.31.54-1.22,1.11s.73,1,1.13,1.49c.13.16.3.28.42.43C88.8,67.92,89.28,68,89.89,67.3Z"/><path class="cls-9" d="M239.31,55.1c1.78-4.48,4.14-8.62,6.16-12.93.22-.47.53-.5.95-.5q12.42,0,24.83,0c.63,0,.74.2.65.75-.29,1.61-.58,3.21-.82,4.83-.09.64-.44.71-1,.7-1.8,0-3.6.06-5.4,0-1.17-.07-1.83.21-1.77,1.49a2.76,2.76,0,0,1-.15.67h7.06c-.31,1.87-.61,3.63-.88,5.4-.1.6-.48.61-.95.61-1.8,0-3.6,0-5.4,0C261,56,261.67,57.27,261.5,58c-.22.92.64.47,1,.47,2,.06,4,0,6,0,.65,0,.94.1.8.83-.3,1.56-.55,3.14-.84,4.7-.07.36-.06.76-.68.76-5.55,0-11.1,0-16.72,0,1.27-7.35,2.53-14.6,3.78-21.85l-.13-.07-2.94,4.9q-4.86,8.1-9.69,16.2a1.47,1.47,0,0,1-1.5.84c-2-.06-4,0-6,0-.66,0-.89-.24-1-.83-1.78-7.14-3.56-14.28-5.39-21.4-.2-.81,0-.85.68-.84,2.64,0,5.28,0,7.92,0,.42,0,.8-.12.89.59C238.18,46.53,239,50.75,239.31,55.1Z"/><path class="cls-11" d="M75.86,78.08c.33,1.45.08,2.94.27,4.4,3.64-.25,7.27-.26,10.9-.21,9.21.14,18.35-.82,27.49-1.68.46,0,.89-.06.89-.7,0-5.9.25-11.84-1.22-17.62-1.15-4.57-3.64-8.58-5.86-12.68a5.17,5.17,0,0,0-.61-.72c-.14-.62-.76-.22-1.06-.49.43-.12.92,0,1.3-.29.05.23,0,.55.34.57.28.53.55,1.07.84,1.59,1.36,2.53,2.68,5.09,3.89,7.7,2.29,4.92,2.44,10.18,2.6,15.46.07,2.26.22,4.52.34,6.9a6.82,6.82,0,0,1,3.9-.56,5.53,5.53,0,0,0,3.74-1c1.62-1.1,3.3-2.12,4.87-3.28,3.62-2.69,6.87-5.75,9-9.84A3.66,3.66,0,0,0,138,64c0-2.35,0-4.71,0-7.31a11.8,11.8,0,0,1-7.94.85c-3.81-1-7.46-2.33-8-7.09,0-.31-.22-.61-.27-.92-.22-1.54-.44-3.1.56-4.49.23-.33.49-.75.89-.16,1.36,2,3.58,2.7,5.66,3.58a5.81,5.81,0,0,0,4.87-.18c.82-.37.89-.65.37-1.33a7.88,7.88,0,0,1-1-8.67,4.32,4.32,0,0,0,.16-3.94,9.12,9.12,0,0,1-.4-2c-.08-.49.3-1.06-.24-1.48a30.85,30.85,0,0,0,.88-3.4c.09-.26.26-.57,0-.78s-.5.1-.76.17l-.78.23-.09-.13c.33-.28.86-.21,1.13-.62.48.08.87,0,1-.54.75-2.37,2.13-4.46,3-6.76a4.52,4.52,0,0,0-1-5.27c-.45-.46-.9-.91-1.36-1.36a2.49,2.49,0,0,1-.06-3.69A6.15,6.15,0,0,1,140.29,7c4.61.86,7,4.43,7.24,9a1.58,1.58,0,0,0,1.1,1.69,8.72,8.72,0,0,0,4.48,1c2.6-.33,4.31,1.37,6.16,2.72A12.09,12.09,0,0,1,162,24.05a5.43,5.43,0,0,1,.92,5.07c-.77,2.44-.82,5-1.43,7.47-.41,1.7-1,3.34-1.43,5a4.82,4.82,0,0,1-5.18,3.58A4.64,4.64,0,0,0,150,48.4c-.88,2.2-2.93,2.36-4.79,2.82a2.77,2.77,0,0,0-1.73.94A13.69,13.69,0,0,1,139,56c-.54.3-.53.74-.51,1.23q.11,3.65.23,7.29A25.09,25.09,0,0,1,132,73.3a58.35,58.35,0,0,1-8.41,6.19,4,4,0,0,1-1.87.77,40,40,0,0,0-6.8.75c-3.17.52-6.43.53-9.64.9a80.14,80.14,0,0,1-9,.82c-6.79.06-13.58.19-20.37.29A42.84,42.84,0,0,1,75.86,78.08Zm72.3-58.85a8.63,8.63,0,0,0-1.28-.21c-1,0-1.16-.47-1-1.35a14,14,0,0,0,0-2.51,6.93,6.93,0,0,0-6.08-6.54,4.53,4.53,0,0,0-3.31.77c-1.15.85-1.19,1.13-.17,2.11a8,8,0,0,1,2.81,4.75,9.65,9.65,0,0,1-1.22,5.3c-.88,1.92-2,3.75-2.67,5.74a9.4,9.4,0,0,0-.09,7.14,15.54,15.54,0,0,1,1.22,4.09c.91,6.38,9.94,11.07,14.72,5.81a2.84,2.84,0,0,1,2.45-.71,5.58,5.58,0,0,0,3.67-.83,3.14,3.14,0,0,0,.49-5.18,22.6,22.6,0,0,0-5-3.7,5.91,5.91,0,0,0-3.1-.78,44,44,0,0,0-5.6.6c-1,.17-1.86.54-2.07,1.68a2.59,2.59,0,0,0,1.15,2.91,9.08,9.08,0,0,0,3.23,1.2c1.57.31,3.17.21,4.76.47a11.1,11.1,0,0,1-7.34.46,4.29,4.29,0,0,1-2.14-7.4,2.29,2.29,0,0,0,.67-1.67c0-1.15-.12-2.44.65-3.35a3.84,3.84,0,0,0,.91-2.84c-.12-3.4.77-4.61,4-5.67C147.89,19.5,147.94,19.42,148.16,19.23ZM142,51.47c-1.89-.88-3.67-1.69-5.43-2.53a1,1,0,0,0-1.09.05c-2.86,2-5.75,1.62-8.73.21-1.25-.59-2.32-1.51-3.65-2,0,1.26,0,2.44,0,3.62a2.34,2.34,0,0,0,1,2,15.73,15.73,0,0,0,7.27,3.19C135.71,56.64,139.06,54.74,142,51.47Zm17.55-14.38a4.82,4.82,0,0,0-.09-5.41,10.64,10.64,0,0,0-6.24-4.79c-2.88-.71-5.65.56-8.37,1.44-.84.27-1.39,2.21-1,3.22s1.24.11,1.87.23a4.48,4.48,0,0,0,1.19-.13c2.58-.31,5.1-.25,7.4,1.22A25.14,25.14,0,0,1,159.51,37.09Zm.93-6.4c1.47-2.69,1.17-4.87-.61-6.73-2.78-2.9-5.91-4.8-10.14-3.25-.41.15-.85.2-1.28.32-2.59.69-3.31,1.78-3,4.46.06.52.21.72.73.6.94-.21,1.9-.32,2.81-.62a8.29,8.29,0,0,1,8.81,2.16C158.75,28.56,159.56,29.67,160.44,30.69Zm-25.73,8.56a5.65,5.65,0,0,0,.84,6.79,11.63,11.63,0,0,0,9.24,3.72,4,4,0,0,0,3.4-1.72C139.88,47.57,136.61,45.44,134.71,39.25Z"/><path class="cls-9" d="M288.59,55.69c2.3,2.74,3.53,6,5.49,9h-8.15c-2.51,0-2.52,0-3.38-2.3a51.68,51.68,0,0,0-2.06-5c-.38,2.19-.78,4.37-1.14,6.56-.07.44-.1.75-.67.75-2.8,0-5.59,0-8.45,0,.84-5,1.66-10,2.49-14.92.42-2.47.86-4.94,1.27-7.42.07-.42.09-.73.68-.71,4.47.14,8.95-.26,13.42.25a11.13,11.13,0,0,1,1.28.25c3.29.83,5.2,2.82,5.23,5.84,0,3.6-1.26,5.84-4.39,7.1C289.69,55.3,289.17,55.48,288.59,55.69Zm-6.52-3.78a12.23,12.23,0,0,0,1.74-.25,2.1,2.1,0,0,0,1.55-2.27c-.05-1.15-.93-1.26-1.75-1.41-1.41-.25-1.61-.08-1.85,1.3-.09.55-.14,1.11-.27,1.65C281.3,51.75,281.58,52.05,282.07,51.91Z"/><path class="cls-9" d="M288.11,70.09c-.69,4.1-1.4,8.19-2.05,12.3-.13.8-.63.68-1.14.68-4.56,0-9.12.06-13.68,0-1.17,0-1.61.33-1.71,1.43s-.31,2-.49,3h6.7c2.31,0,4.63,0,6.95,0,.92,0,1,.23.83,1.09-.66,3.43-1.23,6.87-1.77,10.32-.13.82-.39,1.12-1.27,1.1-4.24-.05-8.48,0-12.72,0-.71,0-1,.22-1.08.87-.15,1.06-.33,2.12-.52,3.17-.14.72.33.66.78.66H277c1.64,0,3.28,0,4.92,0,.65,0,.79.17.66.84-.72,3.82-1.41,7.65-2,11.48-.1.63-.29.78-.88.78q-17.21,0-34.43,0c-.73,0-.75-.27-.65-.85,1.44-8.21,2.85-16.42,4.28-24.63,1.26-7.19,2.55-14.38,3.78-21.58.1-.54.19-.73.77-.73l34.43,0A.79.79,0,0,1,288.11,70.09Zm-8.24,39.3a.48.48,0,0,0,.15-.52c.48-2.35.48-2.35-1.88-2.18-2.71,0-5.43,0-8.14-.06a37,37,0,0,1-3.94-.11,1.91,1.91,0,0,1-1.82-2.43c.16-1.18.37-2.36.59-3.54.44-2.29.69-2.47,3.09-2.47h11c.49,0,1,.14,1.13-.67.34-2.28.76-4.56,1.18-6.83.16-.86,0-1.18-1-1.17-4,0-8,0-12,0a2.35,2.35,0,0,1-1-2.88,26.75,26.75,0,0,0,.53-2.81c.4-2.18.91-2.62,3.09-2.62,4.1,0,8.21,0,12.32,0,.79,0,1.22-.09,1.29-1,.09-1.22.37-2.43.56-3.64l.49-2.85c.32-1.7.32-1.71-1.42-1.68l-.46,0c-.44,0-.88,0-1.32,0H256.67c-2.23,0-2.27,0-2.67,2.22-.62,3.57-1.19,7.16-1.79,10.74a59.36,59.36,0,0,0-1.06,5.93l-2.61,14.93c-.54,3-1,6-1.62,9-.19,1,.1,1.15,1,1.14,9.33,0,18.67,0,28,0,.91,0,2,.29,2.68-.14s.49-1.65.5-2.56a2.35,2.35,0,0,1,.19-.66,11.7,11.7,0,0,0,.54-3Z"/><path class="cls-9" d="M152.44,64.75c.89-5.17,1.75-10.19,2.6-15.22a1.41,1.41,0,0,1,1.36-1.42c3.41-.56,5.92-2.27,6.71-5.87.07-.33.11-.58.57-.58a26.14,26.14,0,0,1,9.22,1.08c4.95,1.77,7,5.86,5.74,11.3a13.52,13.52,0,0,1-11.71,10.43C162.16,65,157.36,64.54,152.44,64.75Zm11.46-7a6.64,6.64,0,0,0,3.93-1.27,5.14,5.14,0,0,0,1.64-5.29c-.49-1.48-1.83-2.21-3.91-2.37-1-.08-1.28.32-1.42,1.2-.33,2.2-.67,4.41-1.12,6.59C162.81,57.65,163,58,163.9,57.78Z"/><path class="cls-9" d="M78.27,113.18a10.73,10.73,0,0,1,2.79-7.89,15.79,15.79,0,0,1,7-4.63,8,8,0,0,1,6.74,2.45,16,16,0,0,0-3.7,2.56c-.12.09-.25.19-.07.33s.17-.08.26-.13c1.15-1,2.51-1.61,3.73-2.45a10.88,10.88,0,0,1,3.12-.81,20.21,20.21,0,0,1,4.11.22c3.59.93,5.75,3.41,7.12,6.69A23,23,0,0,1,111,117c-1.22.2-2.43.42-3.65.59-2.52.36-5,1-7.59.79a37.5,37.5,0,0,1-10.93-2.93,1.09,1.09,0,0,1-.79-1.15c0-2,0-3.92,1.06-5.68.08-.14.12-.3-.19-.39a7.69,7.69,0,0,0-1.3,4.58c0,.92-.28,1.15-1.16,1.15A27.76,27.76,0,0,1,78.27,113.18Z"/><path class="cls-9" d="M155.23,117.75c2.06-3.73,4.05-7.33,6.05-10.92q10-18,19.91-35.91a1.6,1.6,0,0,1,1.66-1q9.47,0,19,0c.85,0,1.22.2,1.4,1.07,1.75,8.13,3.54,16.26,5.31,24.38,1.56,7.17,3.09,14.33,4.69,21.49.17.77,0,.85-.67.85q-9.3,0-18.6,0c-.63,0-.93-.15-1-.83-.12-1.47-.36-2.93-.46-4.4-.05-.6-.27-.72-.81-.71-4.31,0-8.63,0-13,0-.63,0-.8.33-1,.79-.63,1.5-1.28,3-1.92,4.47-.16.36-.25.7-.81.7C168.46,117.74,161.92,117.75,155.23,117.75Zm4.38-3.81a5.8,5.8,0,0,0-1,1.85H161l10.9,0c2.32,0,2.31,0,3.2-2.09.31-.73.73-1.41,1-2.16a2.47,2.47,0,0,1,2.59-1.71c4.39,0,8.79,0,13.18,0,1.64,0,2.3.65,2.52,2.27.13,1,.24,2,.34,3,0,.53.26.73.83.73,4.91,0,9.82,0,14.74,0,.62,0,.74-.19.6-.77-.49-2.07-.95-4.15-1.43-6.22L205.76,92c-1.39-6.38-2.79-12.76-4.13-19.16-.17-.83-.48-1-1.25-1-4.35,0-8.71,0-13.06,0-1.44,0-3.09-.43-4.26.14s-1.57,2.39-2.28,3.67c-2.32,4.14-4.57,8.3-6.85,12.46-.53.89-1.08,1.76-1.57,2.66q-3.31,6-6.59,12c-2,3.42-4,6.83-5.76,10.39l-.2.38A.27.27,0,0,0,159.61,113.94Z"/><path class="cls-9" d="M189.58,50.06h7.06c-.31,1.87-.61,3.63-.88,5.39-.09.59-.44.64-.93.63-1.8,0-3.6,0-5.4,0-1.57-.06-1,1.18-1.12,1.86-.19.95.69.49,1.05.5,2,.06,4,.06,6,0,.65,0,.82.18.7.8-.3,1.6-.6,3.21-.85,4.82-.09.57-.35.66-.88.66-5.23,0-10.47,0-15.7,0-.55,0-.84,0-.7-.76q1.92-10.76,3.72-21.54c.11-.61.35-.76.93-.76q7.74,0,15.47,0c.62,0,.75.19.65.74-.29,1.61-.57,3.22-.82,4.83-.09.63-.43.72-1,.71-1.8,0-3.6.06-5.4,0-1.15-.06-1.84.17-1.78,1.48A2.76,2.76,0,0,1,189.58,50.06Z"/><path class="cls-9" d="M214.32,117.75c1.91-10.92,3.79-21.71,5.68-32.57-.86,0-1.72,0-2.57,0-2.4.1-4.79.22-7.19.37-.7,0-.8-.22-.7-.82.8-4.62,1.6-9.24,2.37-13.86.11-.65.34-.91,1.07-.91q19.2,0,38.39,0c.83,0,.88.25.76,1q-1.2,6.75-2.31,13.5c-.13.86-.39,1.2-1.34,1.13-2.79-.21-5.59-.29-8.38-.46-.76,0-1,.2-1.12,1-1,6.22-2.17,12.43-3.25,18.65-.68,3.87-1.36,7.74-2,11.62-.16,1-.35,1.47-1.56,1.45C226.27,117.7,220.36,117.75,214.32,117.75Zm3.86-10.8q-.75,4.1-1.48,8.19c-.09.47,0,.72.57.72q7,0,13.92,0c.5,0,.74-.16.82-.64q.65-4,1.3-8,1.5-7.5,2.63-15.09l.63-3.37c.2-1.14.38-2.28.61-3.41.34-1.68.92-2.16,2.62-2.11,2.47.06,4.93.18,7.4.28.44,0,.85.1,1-.57.35-2.4.75-4.79,1.14-7.18.22-1.24.44-2.47.67-3.79h-2.07c-2.68,0-5.35,0-8,0q-12.51,0-25,0c-.51,0-1.11-.23-1.25.66-.53,3.31-1.1,6.61-1.68,9.9-.13.74,0,1.07.85,1,2.27-.15,4.55-.23,6.83-.28,1.7,0,2.53,1,2.25,2.7s-.59,3.62-.88,5.43a2.56,2.56,0,0,0-.21,1.22c-.27,1.4-.57,2.79-.81,4.19-.54,3.16-1,6.33-1.57,9.5l0,0,0,.06A.6.6,0,0,0,218.18,107Z"/><path class="cls-8" d="M75.89,83c6.79-.1,13.58-.23,20.37-.29a80.14,80.14,0,0,0,9-.82c3.21-.37,6.47-.38,9.64-.9a40,40,0,0,1,6.8-.75,4,4,0,0,0,1.87-.77A58.35,58.35,0,0,0,132,73.3a25.09,25.09,0,0,0,6.67-8.74c1.93,1,2.18,1.72,1,3.4A72.23,72.23,0,0,1,128.27,81a40.21,40.21,0,0,1-9,5.65c-1.45.69-3,.49-4.46.53l-1.91,0h-7.25l-2.87,0H74.92c-1.35,0-1.47-.19-1.14-1.56S75.07,83.82,75.89,83Z"/><path class="cls-9" d="M294.61,41.67c3.34,0,6.5,0,9.66,0,.62,0,.82.24,1,.77.49,1.75,1,3.49,1.59,5.45a35,35,0,0,0,2.43-3.95c.86-1.94,2.2-2.45,4.23-2.29,2.44.18,4.92,0,7.59,0l-6.39,7.67q-2,2.44-4.09,4.86a2.47,2.47,0,0,0-.58,1.28c-.45,2.79-1,5.57-1.41,8.36-.11.68-.38.9-1.09.89-2.4,0-4.8-.07-7.19,0-.86,0-.9-.29-.78-1,.5-2.74.93-5.5,1.45-8.24a2.1,2.1,0,0,0-.22-1.46q-3-5.91-5.9-11.83C294.82,42.1,294.75,42,294.61,41.67Z"/><path class="cls-11" d="M111,117a23,23,0,0,0-1.63-7.51c-1.37-3.28-3.53-5.76-7.12-6.69l-.27-.43a5.35,5.35,0,0,1,5.15,1.89c.59.65,1.21,1.26,1.84,1.87a.92.92,0,0,0,1.19.24c1.18-.76,1.36-2,1.54-3.25.13-.9-.56-1.32-1.2-1.76-3-2-6.31-2-9.69-1.34l-.46-.07a8.26,8.26,0,0,0-8.85-3c-.71-2.28,0-3.85,2.17-4.95.53-.27,1.09-.47,1.63-.7,4.72-1.24,6.8,1.25,5.85,7.18a11.17,11.17,0,0,1,1.69-2.15l2.8-2.45.56-.2c2.91-1.19,5.38.14,6,3.24a9.55,9.55,0,0,1,0,3.2c0,.36-.15.71.1,1-.4.55.11.5.37.48a13,13,0,0,0,3.13-.69,1.18,1.18,0,0,0,.82-1.31,6.9,6.9,0,0,0-1.51-4.27,2.55,2.55,0,0,1,3.22,1.74c.77,2,.6,4.17,1.19,6.17a45.23,45.23,0,0,1,1.36,7.82c.05.46-.37.93,0,1.36-.45-.22-.75.14-1.08.31-2.84,1.41-5.66,2.85-8.49,4.29Z"/><path class="cls-9" d="M215.18,57.3c-.39,2.35-.79,4.58-1.13,6.82-.11.76-.61.59-1.06.59H197c1.29-7.5,2.57-14.91,3.83-22.32.09-.54.28-.74.84-.73,2.79,0,5.58,0,8.49,0-.6,3.47-1.18,6.86-1.77,10.25-.26,1.53-.54,3-.83,4.58-.11.6,0,.83.72.82C210.58,57.27,212.85,57.3,215.18,57.3Z"/><path class="cls-10" d="M123.09,88.47c3.46-2.23,7-4.33,9.9-7.35-.23,1.45-.41,2.9-.7,4.34-.61,3.1.5,5.47,3.14,6.26a10.72,10.72,0,0,0,7-.47,7.51,7.51,0,0,0,4.93-8.84c-.43-1.92-3-4.4-5-4.5-2.21-.13-4.42-.54-6.6.23l2.89-3.44c1.19.63,2.42,1.2,3.56,1.9,1.59,1,3.38,1.56,4.89,2.67.63,1,.85,2.24,1.8,3,.2.17.4.46.09.55-1,.29-.57.93-.49,1.53a3.09,3.09,0,0,1-.19,1.4c-.53,1.51-.78,3.13-1.9,4.49a3.57,3.57,0,0,1,3,.37,7,7,0,0,1,2.47-2.19,4.39,4.39,0,0,1,.53-.27c2.13-1,3.73-2.5,4-5a2.82,2.82,0,0,1,1.18.3,6.31,6.31,0,0,1-1.5,3.45,16.14,16.14,0,0,1-3.5,2.44c-1.6.93-2.79,2.12-2.69,4.14a.68.68,0,0,0-.68.81,6.49,6.49,0,0,0,2.33,3c3.41,1.33,4.38,2.33,4.38,6a3.65,3.65,0,0,0-1.24,1.26c-.22.37-.64.69-1,.59-2-.58-4.43-.37-5.81-2.49a1.05,1.05,0,0,0-.86-.57,6.93,6.93,0,0,0-3.93-6.28,14,14,0,0,0-11.67-.43c-.2-.27-.49-.22-.76-.24a6.33,6.33,0,0,1-3.91-1.53,33.79,33.79,0,0,0-2.92-3.07A2.23,2.23,0,0,1,123.09,88.47Z"/><path class="cls-9" d="M214.55,64.71c1.29-7.51,2.58-14.92,3.83-22.34.1-.55.32-.71.87-.71,2.59,0,5.19,0,7.79,0,.61,0,.68.15.58.75Q225.71,53.17,223.89,64c-.07.41-.1.77-.68.77C220.34,64.7,217.46,64.71,214.55,64.71Z"/><path class="cls-9" d="M140.92,71.9a2.84,2.84,0,0,1,3.16-2A40.35,40.35,0,0,1,154,71.19c7.24,2.1,9.21,7.3,7.13,13.84a11.33,11.33,0,0,1-7.4,7.53,5.07,5.07,0,0,0-.62.29c0,.29.2.36.4.43,7.48,2.73,8.59,9.35,5.41,15.42-2.25,4.32-6.19,6.47-10.65,7.81a29.47,29.47,0,0,1-8.81,1.25c-4.92,0-9.83,0-14.75,0h-1l.44-1.93c5.46,0,10.91.07,16.37,0a19.15,19.15,0,0,0,6.86-1.13,4.66,4.66,0,0,0,1.94-.51c4.23-1.65,7.59-4.18,8.93-8.77,1.24-4.23-.09-7.61-3.83-9.6-.79-.42-1.65-.73-2.47-1.09h0l-.24-.19c-1-1.88-.57-3,1.45-3.73A10,10,0,0,0,159.46,84c1.52-5.84-.35-9.22-6.06-11-.19-.06-.39-.1-.58-.15C148.91,71.83,144.91,71.88,140.92,71.9Z"/><path class="cls-9" d="M111.35,117.09c2.83-1.44,5.65-2.88,8.49-4.29.33-.17.63-.53,1.08-.31,0,0,0,.08,0,.12.42,2.88-1.06,4.39-3.43,5.84a21.14,21.14,0,0,1-10.56,3.25c-5.07.19-10.14.65-15.1-.84a14.9,14.9,0,0,1-3.52-1.47c-.83-1.19-.27-2.47-.43-3.84l1.63.63a32.58,32.58,0,0,0,10.37,2.58,32.64,32.64,0,0,0,7.11-.67C108.45,117.82,110,117.91,111.35,117.09Z"/><path class="cls-2" d="M123.09,88.47a2.23,2.23,0,0,0,.82,2.12,33.79,33.79,0,0,1,2.92,3.07,6.33,6.33,0,0,0,3.91,1.53c.27,0,.56,0,.76.24a10.8,10.8,0,0,0-1.43,2.91,31.84,31.84,0,0,0-1.19,7.88,2.3,2.3,0,0,1-3.28,0,3.15,3.15,0,0,0-2.22-.7c-1.06-3.28-1.16-6.78-2.23-10.06l1-6.48A1.9,1.9,0,0,1,123.09,88.47Z"/><path class="cls-3" d="M39.53,56.54q-2.37-8-4.75-15.92c-.87-2.92-1.72-5.85-2.6-8.77a1.49,1.49,0,0,1,.39-1.76c6-5.93,12-11.9,17.91-17.86.13-.14.28-.26.72-.65.39,9.06.77,17.82,1.16,26.84l8.06-7.36.3.09Q60,40.57,59.24,50l-.89-.6c.26-3.35.51-6.7.77-10.06a38.45,38.45,0,0,0,.36-6l-7.8,7.11c-.11-1-.25-1.9-.28-2.77-.34-7.5-.65-15-1-22.49,0-.33.17-.81-.22-1s-.59.32-.83.56Q41.55,22.51,33.74,30.3a1.55,1.55,0,0,0-.5,1.77c2.33,7.84,4.6,15.69,6.88,23.54Z"/><path class="cls-12" d="M123.38,105.51a3.15,3.15,0,0,1,2.22.7,2.3,2.3,0,0,0,3.28,0c.66.14.53.82.8,1.22s.2.79.59,1a9.6,9.6,0,0,0,4.2,1.43c1.93.08,3.76-.46,5.66-.51a3.65,3.65,0,0,1-2.46,1,1,1,0,0,0-1,1c-.06.64.52.53.89.7,1.26.55,2.65.45,3.93.81,3.57,1,6.75-.21,9.93-1.57a.9.9,0,0,0,.23,0c.09.57-.31.76-.72,1a32,32,0,0,1-4.33,1.67c-1.7.09-3.36.5-5.08.51-5.8,0-11.59-.23-17.38-.52,0-.31,0-.62,0-.93a1,1,0,0,0-.05-1.21Z"/><path class="cls-12" d="M157.64,83.48a2.82,2.82,0,0,0-1.18-.3,2.3,2.3,0,0,0-.92-.5l-8.42-3.41c-1.51-1.11-3.3-1.7-4.89-2.67-1.14-.7-2.37-1.27-3.56-1.9l.72-.88c1,.05,2.11.1,3.11.09,1.57,0,3.18-.12,4.75-.06a17.18,17.18,0,0,1,8.13,1.9,5,5,0,0,1,2.48,2.92,8.72,8.72,0,0,1,.06,4.78Z"/><path class="cls-13" d="M135.78,78.14c2.18-.77,4.39-.36,6.6-.23,2,.1,4.55,2.58,5,4.5a7.51,7.51,0,0,1-4.93,8.84,10.72,10.72,0,0,1-7,.47c-2.64-.79-3.75-3.16-3.14-6.26.29-1.44.47-2.89.7-4.34Zm3.46,1.46c-.75,0-1.35,0-2,0a2.11,2.11,0,0,0-2.15,1.58c-.45,2.18-.88,4.37-1.22,6.57a1.91,1.91,0,0,0,2,2.38,21.48,21.48,0,0,0,3.11,0c1.91-.21,3.84-.47,5.25-2a5.42,5.42,0,0,0,1.4-5.4c-.56-2-2.13-2.62-4-2.92A17.1,17.1,0,0,0,139.24,79.6Z"/><path class="cls-11" d="M39.53,56.54l.59-.93a5.57,5.57,0,0,1,4.25-2.74l1.57-.22,1.51-.06.73.13a3.48,3.48,0,0,1,1.63,1.65,15.82,15.82,0,0,0,4.38,6.32c1,2,.63,3.17-1.34,4.24l-.82.46a9.86,9.86,0,0,1-2.69.63l-.64,0c.36-.63,1.09-.56,1.64-.84,1.2-.6,2.51-1,3.12-2.42A1.56,1.56,0,0,0,52,60.61c-3.55.32-6.46,1.63-7.93,5.18A2.11,2.11,0,0,0,44.15,68a2,2,0,0,0,2.13,1c.82-.14,1.62-.39,2.43-.59l.18,1.84a.9.9,0,0,0-1.09-.48c-.54.13-1.1.17-1.63.32a2.36,2.36,0,0,1-2.73-1.18c-1.71-2.31-2.74-5-4.37-7.37C37.81,59.74,38.75,58.15,39.53,56.54Zm1.15,5.58c.45-.86.8-1.57,1.2-2.26a5.72,5.72,0,0,1,5.32-3.25c.47,0,.95-.08,1.43-.11s.62-.24.56-.7a2.32,2.32,0,0,0-2.53-2.08c-.84.07-1.67.15-2.5.27-2.54.37-3.33,2.46-4.32,4.38C39.1,59.83,40,60.87,40.68,62.12Zm2.23,3.63c1.58-3.36,3.89-5.75,7.83-6a1.43,1.43,0,0,0,.34-.09c.23-.07.28-.25.29-.46a2,2,0,0,0-1.49-1.78c-3.65-.45-5.78.59-7.55,3.7C41.28,63,41.4,64,42.91,65.75Z"/><path class="cls-3" d="M48.7,66.06l.64,0a15.29,15.29,0,0,0,.52,4.31l.29,3.78c1.31-1.45,2.43-2.72,3.57-4,.23-.24.4-.8.91-.34l3.45,16.81h.28q1-12.09,2-24.18l-.29-.08-2.75,2.58a84.22,84.22,0,0,1,.76-9.79l.7.34-.51,6.65.11.3c.56-.42,1.23-.75,1.33-1.56h0c.77,0,1-.75,1.45-1.18.5.54.25,1.19.21,1.79-.13,1.86-.32,3.72-.48,5.59a3.19,3.19,0,0,0-.17,1.5,21.58,21.58,0,0,0-.3,3.85l-.14,1.47q-.78,9.35-1.55,18.7l-.32.06L54.06,71.27l-4.52,5.06a44.94,44.94,0,0,1-.65-6.07l-.18-1.84C48.85,67.64,48.48,66.85,48.7,66.06Z"/><path class="cls-9" d="M112.3,101.19c-.25-.32-.14-.67-.1-1a9.55,9.55,0,0,0,0-3.2c-.61-3.1-3.08-4.43-6-3.24l-.56.2c0-.68,0-1.36,0-2,0-1.55-.38-3.1.06-4.64h7.25a12.5,12.5,0,0,1-.32,3.05,5.8,5.8,0,0,0,2.27,5.78,6.75,6.75,0,0,1,1.24,3.84,1.16,1.16,0,0,1-1,.73C114.18,100.86,113.24,101,112.3,101.19Z"/><path class="cls-6" d="M157.92,83.45a8.72,8.72,0,0,0-.06-4.78,5,5,0,0,0-2.48-2.92,17.18,17.18,0,0,0-8.13-1.9c-1.57-.06-3.18.06-4.75.06-1,0-2.07,0-3.11-.09l1.53-1.92c4,0,8-.07,11.9.94.19,0,.39.09.58.15,5.71,1.78,7.58,5.16,6.06,11Z"/><path class="cls-9" d="M87.57,119.4a24,24,0,0,1-5.92-.44,7.59,7.59,0,0,1-1.47-.46c-1.72-.72-2-1.2-2-3,0-.67,0-1.34.08-2a13.23,13.23,0,0,0,2.62.73,32.35,32.35,0,0,0,5.82.21c.64,0,1.2.14,1,.87A22.88,22.88,0,0,0,87.57,119.4Z"/><path class="cls-11" d="M60.73,68.57a3.19,3.19,0,0,1,.17-1.5c3.1,1.17,4.93-.52,6.5-2.86,1.9-2.84,1.88-2.81,0-5.6-.91-1.39-2.1-2.59-2.7-4.18l.49.21c2.62,3.91,5.22,7.83,7.86,11.73a13.08,13.08,0,0,1,2.5,7.72c-.45-.47-.23-1.07-.29-1.6a14.74,14.74,0,0,0-2.67-6.07c-.3-.47-.44-.47-.84,0a59.61,59.61,0,0,1-5.6,5.41,6.64,6.64,0,0,1-2.67,1.29c-1.07.29-2.16.53-3.24.8l.14-1.47a6.34,6.34,0,0,0,5.29-1.69c1.37-1.23,2.66-2.54,3.94-3.85,2-2,2-2,.33-4.36,0-.05-.13-.05-.24-.08a21.65,21.65,0,0,1-2.93,4C65.19,68.49,63.12,68.91,60.73,68.57Z"/><path class="cls-9" d="M91.49,97a8.26,8.26,0,0,1,8.85,3c.23,2.08.23,2.08-1.9,2.2a2.09,2.09,0,0,0-.35,0c-2.43-1.07-4.8-2.31-7.56-2.22-.37,0-.31-.27-.34-.49A8.5,8.5,0,0,1,91.49,97Z"/><path class="cls-9" d="M102.83,96.37a11.17,11.17,0,0,0-1.69,2.15c1-5.93-1.13-8.42-5.85-7.18a17.93,17.93,0,0,1,1.08-4.08h6.43a12.65,12.65,0,0,0-.57,5.25C102.4,93.81,102.63,95.09,102.83,96.37Z"/><path class="cls-6" d="M124.13,113.88c5.79.29,11.58.57,17.38.52,1.72,0,3.38-.42,5.08-.51,0,.53.59.43.76.78a19.15,19.15,0,0,1-6.86,1.13c-5.46.09-10.91,0-16.37,0C124.12,115.17,124.13,114.53,124.13,113.88Z"/><path class="cls-11" d="M61.17,59.69c-.45.43-.68,1.14-1.45,1.18.2-.47.42-.93.58-1.41.75-2.28.47-3-1.5-4l-.7-.34A2.67,2.67,0,0,0,57,54.5a3,3,0,0,0-2.7-.54,4.53,4.53,0,0,1-5.52-2.79c-.37-1-.1-1.88.93-2.1,2.9-.62,5.85-1.54,8.68.32l.89.6c2.35,1.31,2.81,3.25,2.26,5.79A29.31,29.31,0,0,0,61.17,59.69Zm-.54-4.09c.5-2,.45-3-.16-3.62a9.43,9.43,0,0,0-10.41-2.35c-.56.23-1,.54-.68,1.27A3.93,3.93,0,0,0,54,53.32a3.47,3.47,0,0,1,2.77.23C58,54.23,59.28,54.89,60.63,55.6Z"/><path class="cls-7" d="M87.57,119.4a22.88,22.88,0,0,1,.16-4.13c.17-.73-.39-.86-1-.87a32.35,32.35,0,0,1-5.82-.21,13.23,13.23,0,0,1-2.62-.73v-.28a27.76,27.76,0,0,0,8.17.81c.88,0,1.18-.23,1.16-1.15a7.69,7.69,0,0,1,1.3-4.58c.31.09.27.25.19.39C88,110.41,88,112.35,88,114.33a1.09,1.09,0,0,0,.79,1.15,37.5,37.5,0,0,0,10.93,2.93c2.55.2,5.07-.43,7.59-.79,1.22-.17,2.43-.39,3.65-.59l.36.06c-1.34.82-2.9.73-4.37,1a32.64,32.64,0,0,1-7.11.67,32.58,32.58,0,0,1-10.37-2.58l-1.63-.63c.16,1.37-.4,2.65.43,3.84Z"/><path class="cls-5" d="M69.36,44l-.23-.36c-.12-.82-.61-1.57-.46-2.44A2.49,2.49,0,0,0,71.06,41c0-.05.15-.14.14-.16s-.18,0-.25.05l-2.22,0c0-1.07.92-1,1.57-1.15s1.18.17,1.41.84A11.06,11.06,0,0,1,72.46,43c-.23.49.71,1.31-.41,1.52C71.1,44.7,70,45.73,69.36,44Z"/><path class="cls-11" d="M90.19,99.51c0,.22,0,.5.34.49,2.76-.09,5.13,1.15,7.56,2.22l0,.39a10.88,10.88,0,0,0-3.12.81l-.22-.31a8,8,0,0,0-6.74-2.45C88.74,100.24,89.84,100.58,90.19,99.51Z"/><path class="cls-14" d="M65.24,54.64l-.49-.21h0c0-.22-.21-.29-.39-.33l.09-.37,9.11-2.9c.39.44-.14,1,.22,1.52l.41-.59c.33.47,0,.78-.35.91s-.67-.06-.59-.58-.25-.3-.47-.23L65.85,54.1A1,1,0,0,0,65.24,54.64Z"/><path class="cls-5" d="M122.14,89l-1,6.48c-.31-.48-.62-1-.94-1.44.23-1.48.45-3,.67-4.43Z"/><path class="cls-15" d="M120.88,89.58c-.22,1.48-.44,3-.67,4.43L119,93a14.9,14.9,0,0,0,.52-3Z"/><path class="cls-11" d="M72.42,36.51a37.28,37.28,0,0,1,5-.53c.13,0,.33-.09.4.12a.26.26,0,0,1,0,.21c-.17.25-.3-.05-.39-.05-1.25,0-2.49.05-3.73.16a4.64,4.64,0,0,1-1.29.07Z"/><path class="cls-11" d="M75.62,74.46a9.2,9.2,0,0,1,.23,3.22C75.36,76.64,75.63,75.54,75.62,74.46Z"/><path class="cls-15" d="M68.73,40.93l2.22,0,.11.11a2.49,2.49,0,0,1-2.39.21Z"/><path class="cls-6" d="M124.1,111.74a1,1,0,0,1,.05,1.21Z"/><path class="cls-11" d="M64.34,54.09c.18,0,.36.11.39.33C64.52,54.4,64.37,54.32,64.34,54.09Z"/><path class="cls-3" d="M63.85,103.07c-.76,1-1.5,1.94-2.31,2.87a2.23,2.23,0,0,1-2.28.67c-.66-.13-1.19-.66-1.9-.61l-5.58-4.54c.15-.58-.37-.75-.66-1-2.66-2.41-5.34-4.79-8-7.21-2.21-2-4.69-3.74-6.14-6.46a1,1,0,0,0,1.6-.35c.42-.61.89-1.19,1.34-1.78l.6-.28c3.27,1.8,6.08,4.23,9,6.44q5.73,4.29,11.55,8.49A6.41,6.41,0,0,1,63.85,103.07Z"/><path class="cls-4" d="M51.78,101.46,57.36,106c1.28,1.66,1,3.31,0,5-.33.16-.52.56-.95.56,1.13-1.45.1-2.28-.87-3.17-3.32-3-6.92-5.75-10.4-8.6q-4.95-4-9.89-8.08a5.31,5.31,0,0,1-.68-.81c.57-.8-.52-1-.54-1.63a24,24,0,0,1,5.63,3.36c3.6,2.79,7.26,5.51,10.91,8.23C50.91,101.1,51.24,101.5,51.78,101.46Z"/><path class="cls-9" d="M27.8,83.88a2.47,2.47,0,0,1-2.61-2.24,2.41,2.41,0,0,1,2.54-2.16,2,2,0,0,1,2,2C29.69,82.91,28.87,83.91,27.8,83.88Z"/><path class="cls-4" d="M405.57,29c0-.1.08-.19.11-.29C405.75,28.8,405.68,28.88,405.57,29Z"/><path class="cls-9" d="M363.06,23.23c-1.6,0-2.81-1.08-2.75-2.37a2.48,2.48,0,0,1,2.56-2.17,2.09,2.09,0,0,1,2.23,2A2.33,2.33,0,0,1,363.06,23.23Z"/><path class="cls-9" d="M97.7,49.84a8.44,8.44,0,0,1,1.67,3.09,6.13,6.13,0,0,1,.44,3.25c-.31.47-1,.51-1.2,1.07h0c-.62.13-1,.64-1.38,1C96.45,59,96,60.07,95,60.54c-.21.06-.47-.13-.55-.09-2.65,1.33-3.29-1.1-4.53-2.41-.23-.25-.25-.67-.65-.8a1.14,1.14,0,0,0-.48-1.06c-.13-1.16-.69-2.27-.49-3.48l0-.87,1-3.55h.07a2.05,2.05,0,0,1,2.54-1.14,30.41,30.41,0,0,1,3.5,1l1.09.6,1,.68.06.06C97.6,49.6,97.65,49.72,97.7,49.84Zm1,5.11a2.77,2.77,0,0,0-2.48-2.75A1.72,1.72,0,0,0,94.59,54,2.81,2.81,0,0,0,97,56.83,1.71,1.71,0,0,0,98.74,55Z"/><path class="cls-14" d="M89.32,48.28h-.07a5.36,5.36,0,0,0-1,3.55l0,.87c-.16,0-.28.26-.49.14A4.12,4.12,0,0,0,85.47,51a5,5,0,0,0-4.72-1.17,4,4,0,0,0-1.14,1.44c-.72-.42.26-.74,0-1.19-1.36.33-2.75.65-4.13,1a1.36,1.36,0,0,1-1,0c.13-.49.6-.58,1-.8A65,65,0,0,1,87.9,48.17,2.86,2.86,0,0,1,89.32,48.28Z"/><path class="cls-5" d="M132.63,30.83c.54.42.16,1,.24,1.48a1.81,1.81,0,0,0-1.82-.21.42.42,0,0,0-.5.21h0a1.34,1.34,0,0,0-1.17.7l0,0c-.19,0-.36,0-.44.21l0,0c-.19,0-.36,0-.44.21l0,0c-.19,0-.36,0-.44.21l0,0c-.2,0-.38,0-.42.26a4,4,0,0,1-1.46.71.41.41,0,0,0-.49.21h0a2.35,2.35,0,0,0-1.65.94l0,0c-.19,0-.36,0-.44.21l0,0c-.19,0-.36,0-.44.21l0,0-.19.26c-1.86,1.49-3.65,3.07-5.46,4.62C115,43.2,112.66,45,110.51,47c-.63.58-1.16,1.53-2.21,1.65-.39,0-.29-.34-.34-.57,2.21-1.5,4.12-3.36,6.17-5.05,2.34-1.92,4.65-3.89,7-5.87,3.1-2.66,7-4,10.43-6A2,2,0,0,1,132.63,30.83Z"/><path class="cls-11" d="M75.44,50.33c-.35.22-.82.31-1,.8l0,.06-.27.32-.08.24c-.13.18-.26.36-.41.59-.36-.49.17-1.08-.22-1.52a1.12,1.12,0,0,0,.37-.72,18.8,18.8,0,0,1,.51-2c.7-2.19,1.63-2.76,3.87-2.94,2.44-.19,4.85-.68,7.29-.94,1.75-.2,3.48-.44,5.2-.81-.5.7-1.38,1-1.77,1.82-.12,0-.21.09-.14.21s.18,0,.27,0a11.2,11.2,0,0,1,4.81-.5c1.77.17,3.43.79,5.16,1.07l0,0c0,.06,0,.16,0,.17s.2,0,.18-.14c.64.07.85.63,1.22,1.1-4.45-1.42-8.87-3-13.38-.17A11.68,11.68,0,0,1,89.41,44c-3.11.21-5.89.81-9,1.19,1,.53,1.83.27,2.4.82l-.06.06c-1.77-.24-3.51-.77-5.33-.34s-3.1,2.74-2.42,4.2l.16.15Z"/><path class="cls-5" d="M102.5,35c.22-1,1.11-1,1.86-1.17s1.06.22,1.32.84a14,14,0,0,1,.85,2.43c-.19.48.59,1.08,0,1.4a5.58,5.58,0,0,1-2.25.63c-.47,0-.44-.77-.81-1.07l-.73-1.54a.71.71,0,0,0-.12-.75.43.43,0,0,1-.1-.5c1,.24,1.91.46,2.72-.44A4,4,0,0,1,102.5,35Z"/><path class="cls-9" d="M99.11,46c-1.73-.28-3.39-.9-5.16-1.07a11.2,11.2,0,0,0-4.81.5.51.51,0,0,0-.13-.16c.39-.8,1.27-1.12,1.77-1.82l-.06-.05a5.74,5.74,0,0,1,5.09.36c.26.15.52.39.87.33h0c.06.26.3.28.49.36A5.42,5.42,0,0,1,99.11,46Z"/><path class="cls-5" d="M107,37.39c.76,0,1.52.1,1.71.92s-.52,1.18-1.12,1.49a4.87,4.87,0,0,1-4,.42c-.87-.33-1.23-.9-.39-1.68.65,1.17,1.56.84,2.57.55S107.38,38.53,107,37.39Z"/><path class="cls-5" d="M73.34,43.37c.82,0,.91.59,1,1.21s-.33.84-.73,1.05a5.08,5.08,0,0,1-4.14.58c-.87-.3-1.28-.84-.48-1.67.51,0,.45.72.77.79,1,.2,1.79-.38,2.69-.59.51-.11.54-.52.42-.94S73.06,43.38,73.34,43.37Z"/><path class="cls-11" d="M82.76,46l1.8.53c-3.46.43-6.85.91-9.45,3.54L75,49.93a3.48,3.48,0,0,1,1.33-1.51,12.87,12.87,0,0,1,5.69-2c.27,0,.69.18.73-.35Z"/><path class="cls-5" d="M106.66,48.38c.3.27.92-.13,1.06.49h-.21c-3.22-.33-6.46-.21-9.69-.24-.31,0-.65.06-.88-.24.43,0,.87-.05,1.3-.05l8.42.06Z"/><path class="cls-11" d="M106.66,48.39l-8.42-.06c-.43,0-.87,0-1.3.05-.28,0-.57-.08-.49.37l-1.09-.6,10.39,0A1.33,1.33,0,0,1,106.66,48.39Z"/><path class="cls-11" d="M96.68,44.09c-.35.06-.61-.18-.87-.33a5.74,5.74,0,0,0-5.09-.36,3.8,3.8,0,0,1,4.75-.27C95.89,43.41,96.57,43.41,96.68,44.09Z"/><path class="cls-15" d="M73.34,43.37c-.28,0-.58,0-.44.43s.09.83-.42.94c-.9.21-1.73.79-2.69.59-.32-.07-.26-.75-.77-.79l.34-.53c.59,1.72,1.74.69,2.69.52,1.12-.21.18-1,.41-1.52Z"/><path class="cls-15" d="M107,37.39c.36,1.14-.31,1.43-1.24,1.7s-1.92.62-2.57-.55l.24-.53c.37.3.34,1.1.81,1.07a5.58,5.58,0,0,0,2.25-.63c.61-.32-.17-.92,0-1.4Z"/><path class="cls-11" d="M102.45,36.39,99.53,39.3c.9-1,1.63-2.28,2.93-2.9Z"/><path class="cls-15" d="M102.5,35a4,4,0,0,0,2.72-.17c-.81.9-1.76.68-2.72.44Z"/><path class="cls-11" d="M125.27,29.68a5.24,5.24,0,0,1-2.26.89,4.38,4.38,0,0,1,2.21-.94Z"/><path class="cls-11" d="M127.66,28.71a2.63,2.63,0,0,1,1.86-.77l.06.06a4,4,0,0,1-1.92.71Z"/><path class="cls-11" d="M129.59,23.68c.29-.63,1-.4,1.41-.66a2.62,2.62,0,0,1-1.42.65Z"/><path class="cls-11" d="M132,27.05a1.82,1.82,0,0,1-1.19.49c0-.06-.09-.11-.13-.16l1.23-.46Z"/><path class="cls-11" d="M126.68,24.86a1.5,1.5,0,0,1-1.06.44c.29-.55.74-.31,1.08-.42Z"/><path class="cls-11" d="M129.52,27.94c.28-.41.75-.41,1.15-.56,0,.05.09.1.13.16a1.94,1.94,0,0,1-1.22.46Z"/><path class="cls-11" d="M128.39,24.16c.24-.56.76-.42,1.2-.48h0a2.05,2.05,0,0,1-1.2.48Z"/><path class="cls-11" d="M126.46,29.19a1.66,1.66,0,0,1-1.19.49l0-.05a1.31,1.31,0,0,1,1.24-.44Z"/><path class="cls-11" d="M127.88,24.38a2,2,0,0,1-1.2.48l0,0c.25-.54.76-.43,1.2-.48Z"/><path class="cls-11" d="M127.66,28.71a1.6,1.6,0,0,1-1.2.48h0a1.13,1.13,0,0,1,1.2-.48Z"/><path class="cls-11" d="M102.6,35.72a.71.71,0,0,1,.12.75l-.27-.08h0Z"/><path class="cls-11" d="M97.17,44.45c-.19-.08-.43-.1-.49-.36C97,44,97.18,44.1,97.17,44.45Z"/><path class="cls-11" d="M128.38,24.15l-.49.23v0c.09-.23.31-.2.49-.24Z"/><path class="cls-9" d="M99.27,46c0,.15,0,.2-.18.14s0-.11,0-.17A.57.57,0,0,0,99.27,46Z"/><path class="cls-13" d="M301.93,111.26l-.27,1.46c-.47,0-.5.44-.72.7-.63.74-1.12,1.6-2.28,1.73a38.89,38.89,0,0,1-8.56,0,2.65,2.65,0,0,1-2.61-2.69c0-.54.19-1.12-.2-1.62.48-2.9.94-5.8,1.43-8.69.8-4.65,1.62-9.3,2.43-13.94a2.39,2.39,0,0,1,.18-.44l1.86-.26a1,1,0,0,1,.09.21c-.08.1-.2.18-.22.28a75.72,75.72,0,0,0-1.51,10.58c-.62.1-.42.56-.43.94l0,.52a4.72,4.72,0,0,0-.48,1.8c-.74,3-1,6-1.85,8.94-.54,1.93.27,3.51,2,3.58a32.45,32.45,0,0,0,7.5-.22,2.17,2.17,0,0,0,1.88-1.63,34.78,34.78,0,0,0,.75-5.28c.34-1.47.63-3,1-4.41a4.09,4.09,0,0,1,3.14-3.25c1.73-.35,3.17.62,4.09,2.45a37,37,0,0,1,2.13,5.17c.56,1.69,1.25,3.33,2,5a2.94,2.94,0,0,0,2.71,2c2.88,0,5.76.06,8.63,0,1.65,0,2.23-1.23,1.38-2.63-1.58-2.61-2.86-5.41-4.68-7.89.05-.33-.1-.47-.43-.46l-.26-.27a1,1,0,0,0-.28-.88c-1.91-2-.71-5.09,1.93-6.14a18.85,18.85,0,0,0,5.43-2.64,9.86,9.86,0,0,0,3.46-5.66l1.2,0c-1.08,5.45-4.92,8-9.86,9.39a2.62,2.62,0,0,0-2.25,2.22,1.81,1.81,0,0,0,.83,1.89,6.58,6.58,0,0,1,2.07,2.13c1.88,3.36,3.74,6.73,5.61,10.09a6.26,6.26,0,0,1-1.4,2.58c-4.63,0-9.26,0-13.9.06-.72,0-.82-.4-1-.9q-2.35-6.39-4.75-12.76c-.54-1.43-1.68-2-2.89-1.45a2,2,0,0,0-1.22,1.65c-.5,2.9-1,5.79-1.57,8.69l-.17,0Z"/><path class="cls-13" d="M335.52,113.68c.56-3.41,1.1-6.83,1.69-10.24.88-5.1,1.8-10.2,2.7-15.29H341l.29.07c-.55,3.21-1.11,6.41-1.64,9.63a50.56,50.56,0,0,0-1,7.66c-.31,2-.6,3.91-.93,5.86a1.88,1.88,0,0,0,1.61,2.31c2.29.46,4.6.15,6.91.22a2.71,2.71,0,0,0,3-2.44,47,47,0,0,0,.9-5.5c.12-1,.65-2,.31-3.1.5-2.61,1-5.22,1.52-7.82.38-1.86.83-3.71,1.06-5.6l.95,0c.24.35.61.24.94.26-1,6.08-2,12.17-3.15,18.23-.42,2.26-.88,4.52-1.14,6.8-.09.82-.37,1.19-1.33,1.17-3.95-.08-7.9-.06-11.85-.07Z"/><path class="cls-13" d="M356.4,113.46q5.07-9.18,10.13-18.35c.58-1,1.2-2,1.79-3.08.27.38.67.27,1,.29a1.6,1.6,0,0,1,.05.21,45.49,45.49,0,0,1-2.87,5.55,50.35,50.35,0,0,0-3.45,6.74c-.72.13-.64.85-.9,1.28a58.08,58.08,0,0,0-3.4,6.19c-.42,1,0,1.5.84,1.85a3.55,3.55,0,0,0,1.41.24c1.72,0,3.45-.1,5.16,0a4.75,4.75,0,0,0,5-2.84,5.29,5.29,0,0,1,5.06-3c3.27,0,6.55.07,9.82-.1,2.33-.12,4.66.22,6.05,2.53,0,1.56.75,2.85,1.9,3.07a18.51,18.51,0,0,0,2.59.32c2,.08,3.9-.38,5.84-.23,2.42.18,2.89-1.31,2.51-3.15a26.76,26.76,0,0,1-.88-5.26,1.34,1.34,0,0,1,.79,1.1c.27,1.44.54,2.88.84,4.32.51,2.42-.1,3.31-2.39,3.69a45.11,45.11,0,0,1-8.85.15,2.64,2.64,0,0,1-2.71-2.11c-.09-.38-.21-1.05-.87-1.15-.66-1.61-1.08-1.89-2.88-1.89-4.18,0-8.37,0-12.56,0a2.65,2.65,0,0,0-2.93,1.92.47.47,0,0,1-.05.1c-.61,1.29-.75,3.11-1.86,3.76s-2.71.17-4.11.17c-2.91,0-5.82,0-8.73,0Z"/><path class="cls-15" d="M341,88.16h-1.13q1.29-7.61,2.6-15.21c.08-.48,0-1.07.91-1.06,4.72.05,9.43,0,14.15,0a2.62,2.62,0,0,1,.41.1l-3.09,17.67c-.33,0-.7.09-.94-.26a11.38,11.38,0,0,1,.1-1.31c.52-3,1.06-6,1.6-9a23.61,23.61,0,0,0,.49-4,1.69,1.69,0,0,0-1.6-1.88,28.61,28.61,0,0,0-3.09-.32c-1.76,0-3.49.28-5.25.27a2.94,2.94,0,0,0-3,2.6c-.37,2-.8,4-1.15,6.08S341.37,86,341,88.16Z"/><path class="cls-15" d="M390.93,111.78c.66.1.78.77.87,1.15a2.64,2.64,0,0,0,2.71,2.11,45.11,45.11,0,0,0,8.85-.15c2.29-.38,2.9-1.27,2.39-3.69-.3-1.44-.57-2.88-.84-4.32a1.34,1.34,0,0,0-.79-1.1.54.54,0,0,1,0-.18,12.18,12.18,0,0,0-.61-4.58c-.7-2.78-1.08-5.61-1.75-8.38-.79-3.24-1.44-6.51-2.08-9.77a18.35,18.35,0,0,1-.81-4.07l.53,0c.93,4.07,1.88,8.14,2.78,12.22,1.74,7.94,3.43,15.89,5.2,23.83.2.87,0,1-.79,1q-7.14,0-14.28,0c-.69,0-1-.15-1.07-.88C391.17,113.91,391,112.85,390.93,111.78Z"/><path class="cls-15" d="M332.33,87.5l-1.2,0-.25-.07a12.71,12.71,0,0,0,.49-5.54,7.89,7.89,0,0,0-3.45-5.72,15.52,15.52,0,0,0-6.86-2.53,48.3,48.3,0,0,0-9-.37c-.46,0-1.08.32-1.32-.43.23-.3.58-.18.87-.27,1.68-.49,3.51.14,5.14-.67A23.49,23.49,0,0,1,327,74a9.8,9.8,0,0,1,5.81,10.76C332.68,85.7,332.48,86.6,332.33,87.5Z"/><path class="cls-6" d="M316.76,72c-1.63.81-3.46.18-5.14.67-.29.09-.64,0-.87.27-2.56,0-5.1.58-7.67.51-.05-.06-.1-.17-.15-.17a22.46,22.46,0,0,0-6.65.21.92.92,0,0,0-.84,1.11h-.06l-1.85.45a11.52,11.52,0,0,1,.42-2.68c.08-.73.68-.41,1-.41q9.22,0,18.43,0C314.53,71.91,315.65,71.93,316.76,72Z"/><path class="cls-15" d="M293.53,75l1.85-.45a1.37,1.37,0,0,1,0,.35,74.48,74.48,0,0,0-2.19,12.57l-1.86.26q.78-4.72,1.57-9.44C293.09,77.2,293.32,76.11,293.53,75Z"/><path class="cls-15" d="M369.36,92.32c-.37,0-.77.09-1-.29,3.22-6,6.47-11.91,9.9-17.77l.67,0,.32.31C375.86,80.47,372.45,86.3,369.36,92.32Z"/><path class="cls-4" d="M378.89,74.29l-.67,0c.53-1.83,1.63-2.48,3.64-2.41,5,.18,10,.07,15.06,0,.75,0,1.12.13,1.26,1,.32,2,.8,4,1.22,5.95l-.53,0c-.16-.62-.35-1.22-.47-1.84-.64-3.48-1.78-4.52-5.25-4.57s-7.1,0-10.65,0A4.26,4.26,0,0,0,378.89,74.29Z"/><path class="cls-15" d="M287.29,110.81c.39.5.16,1.08.2,1.62a2.65,2.65,0,0,0,2.61,2.69,38.89,38.89,0,0,0,8.56,0c1.16-.13,1.65-1,2.28-1.73.22-.26.25-.7.72-.7-.11.83-.21,1.66-.31,2.49-.06.47-.31.64-.8.64-4.68,0-9.35,0-14.14,0A38.53,38.53,0,0,1,287.29,110.81Z"/><path class="cls-15" d="M327.33,115.8a6.26,6.26,0,0,0,1.4-2.58l1.52,2.58Z"/><path class="cls-15" d="M356.4,113.46l1.41,2.34H355Z"/><path class="cls-15" d="M335.52,113.68l1.9,2.12h-2.27A8.11,8.11,0,0,1,335.52,113.68Z"/><path class="cls-15" d="M301.93,111.26l-.11-.13.17,0A.15.15,0,0,1,301.93,111.26Z"/><path class="cls-11" d="M82.69,70.07C96,70,97.08,69.75,105.5,65.28c.27.31,0,.6,0,.87a50,50,0,0,1-2.5,7.37c-.31.74-.7,1.44-1.07,2.14-1.8,3.44-4.42,5.31-8.54,5-3.3-.27-6.62-.42-9.92-.75-.6,0-.82-.16-.67-.85A18.13,18.13,0,0,0,82.69,70.07Zm4.84,7.4.07.45c3.59,0,7.19,0,10.78,0a1.36,1.36,0,0,0,1.37-.7c.77-1.3,1.63-2.55,2.45-3.83.18-.29.49-.57.25-1s-.63-.29-1-.26a12.15,12.15,0,0,0-6.83,2.25c-.24.19-.46.65-.9.36-.93-.62-1.78-.11-2.59.25A18,18,0,0,0,87.53,77.47Zm16.82-10.7C97.9,69.92,91.25,71.56,84,70.6c.66,1.67.79,1.79,2.22,1.91a31.33,31.33,0,0,0,7-.41,24.15,24.15,0,0,0,10-3.44C104,68.23,104.55,67.78,104.35,66.77Zm-6,11.88a68.51,68.51,0,0,1-12.78-.54c-.9-.14-1.31.15-1.55,1.06,3.72.28,7.38.59,11,.82A3.15,3.15,0,0,0,98.37,78.65Z"/><path class="cls-9" d="M85.47,51a4.12,4.12,0,0,1,2.33,1.83,8.06,8.06,0,0,0,.74,3.35,14.74,14.74,0,0,1-.42,3c-.12.34-.39.64-.3,1a1,1,0,0,1-1.31.61,7.82,7.82,0,0,0-4,.12,1.76,1.76,0,0,1-1-.09,11.88,11.88,0,0,1-2-2.43,7.16,7.16,0,0,1-.68-4.93s-.1-.11-.15-.17c.29-.7.59-1.39.88-2.09a4,4,0,0,1,1.14-1.44C82.47,49.65,84,50.41,85.47,51ZM83.8,56.52c-.18,1.46.1,2.26.91,2.86A1.54,1.54,0,0,0,87.08,59a2.15,2.15,0,0,0-.49-2.62c-.63-.72-1.42-.92-2.67-.26.93,0,1.36.35,1.39,1a.5.5,0,0,1-.51.56C84.23,57.66,84.1,57.15,83.8,56.52Z"/><path class="cls-11" d="M89.89,67.3c-.61.67-1.09.62-1.55,0-.12-.15-.29-.27-.42-.43-.4-.49-1-1-1.13-1.49s.8-.73,1.22-1.11c.93-.85,1.15-2.06,1.73-3.09a5,5,0,0,1-1.27,3.35c-.31.35-1.1.52-.74,1.28A2.62,2.62,0,0,0,89.89,67.3Z"/><path class="cls-14" d="M96.45,48.75c-.08-.45.21-.41.49-.37.23.3.57.23.88.24,3.23,0,6.47-.09,9.69.24-.13.08-.26.23-.39.23-2.9,0-5.8.17-8.69-.11a.79.79,0,0,0-.93.45Z"/><path class="cls-11" d="M81.55,60.9a1.76,1.76,0,0,0,1,.09,7.82,7.82,0,0,1,4-.12,1,1,0,0,0,1.31-.61c-.09.63-.2,1-1.09.91a12.16,12.16,0,0,0-5.61.55C81.2,61.35,81.82,61.32,81.55,60.9Z"/><path class="cls-11" d="M95,60.54c1-.47,1.46-1.52,2.23-2.24.42-.4.76-.91,1.38-1,0,.72-.78.84-1.12,1.31-.63.85-1.33,1.65-2,2.47C95.38,60.81,95.74,60.13,95,60.54Z"/><path class="cls-7" d="M78.73,53.37c0,.06.16.13.15.17a7.16,7.16,0,0,0,.68,4.93A5,5,0,0,1,78.73,53.37Z"/><path class="cls-11" d="M98.61,57.25c.21-.56.89-.6,1.2-1.07.15.06.31.11.42-.08l1.2-.45C100.53,56.27,99.78,57.16,98.61,57.25Z"/><path class="cls-15" d="M88.12,59.22a14.74,14.74,0,0,0,.42-3h.24a1.14,1.14,0,0,1,.48,1.06c-.16,0-.34-.63-.49,0S88.73,58.7,88.12,59.22Z"/><path class="cls-15" d="M100.23,56.1c-.11.19-.27.14-.42.08a6.13,6.13,0,0,0-.44-3.25c.71.25.58.91.69,1.45S99.9,55.55,100.23,56.1Z"/><path class="cls-14" d="M97.7,49.84c0-.12-.1-.24-.14-.35a.25.25,0,0,1,.39.09C98.06,49.82,97.84,49.8,97.7,49.84Z"/><path class="cls-14" d="M74.25,51.51l.27-.32C74.59,51.43,74.43,51.48,74.25,51.51Z"/><path class="cls-2" d="M108.3,48.66c1-.12,1.58-1.07,2.21-1.65,2.15-2,4.46-3.81,6.68-5.72,1.81-1.55,3.6-3.13,5.46-4.62l.19-.26,0,0a.4.4,0,0,0,.44-.21l0,0a.44.44,0,0,0,.44-.21l0,0a2.75,2.75,0,0,0,1.65-.94h0a.54.54,0,0,0,.49-.21,4,4,0,0,0,1.46-.71l.42-.26,0,0a.42.42,0,0,0,.44-.21l0,0a.42.42,0,0,0,.44-.21l0,0a.46.46,0,0,0,.44-.21l0,0a1.51,1.51,0,0,0,1.17-.7h0l.5-.21a1.81,1.81,0,0,1,1.82.21,9.12,9.12,0,0,0,.4,2,4.32,4.32,0,0,1-.16,3.94,7.88,7.88,0,0,0,1,8.67c.52.68.45,1-.37,1.33a5.81,5.81,0,0,1-4.87.18c-2.08-.88-4.3-1.55-5.66-3.58-.4-.59-.66-.17-.89.16-1,1.39-.78,3-.56,4.49,0,.31.23.61.27.92.55,4.76,4.2,6.09,8,7.09a11.8,11.8,0,0,0,7.94-.85c0,2.6,0,5,0,7.31a3.66,3.66,0,0,1-.57,1.68c-2.1,4.09-5.35,7.15-9,9.84-1.57,1.16-3.25,2.18-4.87,3.28a5.53,5.53,0,0,1-3.74,1,6.82,6.82,0,0,0-3.9.56c-.12-2.38-.27-4.64-.34-6.9-.16-5.28-.31-10.54-2.6-15.46-1.21-2.61-2.53-5.17-3.89-7.7C108.85,49.73,108.58,49.19,108.3,48.66Z"/><path class="cls-9" d="M148.16,19.23c-.22.19-.27.27-.34.29-3.22,1.06-4.11,2.27-4,5.67a3.84,3.84,0,0,1-.91,2.84c-.77.91-.61,2.2-.65,3.35a2.29,2.29,0,0,1-.67,1.67,4.29,4.29,0,0,0,2.14,7.4,11.1,11.1,0,0,0,7.34-.46c-1.59-.26-3.19-.16-4.76-.47a9.08,9.08,0,0,1-3.23-1.2,2.59,2.59,0,0,1-1.15-2.91c.21-1.14,1.07-1.51,2.07-1.68a44,44,0,0,1,5.6-.6,5.91,5.91,0,0,1,3.1.78,22.6,22.6,0,0,1,5,3.7,3.14,3.14,0,0,1-.49,5.18,5.58,5.58,0,0,1-3.67.83,2.84,2.84,0,0,0-2.45.71c-4.78,5.26-13.81.57-14.72-5.81a15.54,15.54,0,0,0-1.22-4.09,9.4,9.4,0,0,1,.09-7.14c.71-2,1.79-3.82,2.67-5.74a9.65,9.65,0,0,0,1.22-5.3,8,8,0,0,0-2.81-4.75c-1-1-1-1.26.17-2.11a4.53,4.53,0,0,1,3.31-.77,6.93,6.93,0,0,1,6.08,6.54,14,14,0,0,1,0,2.51c-.12.88.07,1.35,1,1.35A8.63,8.63,0,0,1,148.16,19.23Z"/><path class="cls-9" d="M142,51.47c-2.9,3.27-6.25,5.17-10.62,4.58a15.73,15.73,0,0,1-7.27-3.19,2.34,2.34,0,0,1-1-2c0-1.18,0-2.36,0-3.62,1.33.5,2.4,1.42,3.65,2,3,1.41,5.87,1.77,8.73-.21a1,1,0,0,1,1.09-.05C138.29,49.78,140.07,50.59,142,51.47Z"/><path class="cls-9" d="M159.51,37.09a25.14,25.14,0,0,0-5.2-4.22c-2.3-1.47-4.82-1.53-7.4-1.22a4.48,4.48,0,0,1-1.19.13c-.63-.12-1.47.74-1.87-.23s.12-2.95,1-3.22c2.72-.88,5.49-2.15,8.37-1.44a10.64,10.64,0,0,1,6.24,4.79A4.82,4.82,0,0,1,159.51,37.09Z"/><path class="cls-9" d="M160.44,30.69c-.88-1-1.69-2.13-2.67-3.06A8.29,8.29,0,0,0,149,25.47c-.91.3-1.87.41-2.81.62-.52.12-.67-.08-.73-.6-.32-2.68.4-3.77,3-4.46.43-.12.87-.17,1.28-.32,4.23-1.55,7.36.35,10.14,3.25C161.61,25.82,161.91,28,160.44,30.69Z"/><path class="cls-5" d="M134.71,39.25c1.9,6.19,5.17,8.32,13.48,8.79a4,4,0,0,1-3.4,1.72A11.63,11.63,0,0,1,135.55,46,5.65,5.65,0,0,1,134.71,39.25Z"/><path class="cls-1" d="M282.07,51.91c-.49.14-.77-.16-.58-1,.13-.54.18-1.1.27-1.65.24-1.38.44-1.55,1.85-1.3.82.15,1.7.26,1.75,1.41a2.1,2.1,0,0,1-1.55,2.27A12.23,12.23,0,0,1,282.07,51.91Z"/><path class="cls-13" d="M248.54,105.72l2.61-14.93c.54.63,1.15.15,1.73.1-.35,2.1-.73,4.19-1,6.3a86.35,86.35,0,0,0-1.32,9,3.36,3.36,0,0,0-.93,2.32,7.29,7.29,0,0,1-.3,2.36c-.67,2.1.18,3.24,2.38,3.25,7.78,0,15.57,0,23.35,0a2.29,2.29,0,0,0,2.4-1.7c1.78-2.88.39-4.53-2.51-4.34-2.3.15-4.62,0-6.93,0-2.81,0-5.39-1.5-5-5a19.1,19.1,0,0,0,0-2.27.82.82,0,0,0,.5-.61c.85-2.5,2.66-3.53,5.23-3.48,2.32,0,4.64,0,7,0,2.53,0,3.83-1.31,3.87-3.83,0-1.67-.62-2.35-2.27-2.36-1.95,0-3.92.11-5.87-.06-1.17-.1-2.6.22-3.42-1.11l.28-.08c4,0,8,0,12,0,1,0,1.16.31,1,1.17-.42,2.27-.84,4.55-1.18,6.83-.13.81-.64.67-1.13.67h-11c-2.4,0-2.65.18-3.09,2.47-.22,1.18-.43,2.36-.59,3.54a1.91,1.91,0,0,0,1.82,2.43,37,37,0,0,0,3.94.11c2.71,0,5.43,0,8.14.06a18.19,18.19,0,0,1,1.73,2.73,11.7,11.7,0,0,1-.54,3c-.18.08-.45.1-.52.23-1.16,2.15-3.13,2.4-5.3,2.44-2.81,0-5.62-.2-8.45-.09-1.69.06-3.41-.18-5.12-.18h-9.23a2.15,2.15,0,0,1-2.34-2.37,33.73,33.73,0,0,1,.4-4.26A3.26,3.26,0,0,0,248.54,105.72Z"/><path class="cls-6" d="M252.21,84.86c.6-3.58,1.17-7.17,1.79-10.74.4-2.23.44-2.22,2.67-2.22h25.67c.44,0,.88,0,1.32,0,.57.61.93,1.46,1.88,1.65l-.49,2.85a2.17,2.17,0,0,0-1.17.27h-.47c0-.4,0-.8,0-1.2,0-1.32-.58-1.92-1.88-1.92q-11.58,0-23.15,0a2.65,2.65,0,0,0-3,2.45,73.44,73.44,0,0,0-1.32,8.34C253.37,84.26,252.86,84.81,252.21,84.86Z"/><path class="cls-15" d="M248.54,105.72a3.26,3.26,0,0,1,.23,2.52,33.73,33.73,0,0,0-.4,4.26,2.15,2.15,0,0,0,2.34,2.37h9.23c1.71,0,3.43.24,5.12.18,2.83-.11,5.64.14,8.45.09,2.17,0,4.14-.29,5.3-2.44.07-.13.34-.15.52-.23a2.35,2.35,0,0,0-.19.66c0,.91.17,2.12-.5,2.56s-1.77.14-2.68.14c-9.34,0-18.68,0-28,0-.93,0-1.22-.16-1-1.14C247.5,111.73,248,108.72,248.54,105.72Z"/><path class="cls-15" d="M283.88,76.72a2.17,2.17,0,0,1,1.17-.27c-.19,1.21-.47,2.42-.56,3.64-.07.94-.5,1-1.29,1-4.11,0-8.22,0-12.32,0-2.18,0-2.69.44-3.09,2.62a26.75,26.75,0,0,1-.53,2.81,2.36,2.36,0,0,0,1,2.88l-.28.08-.74,0c-.21-.36-.52-.63-.73-1-.64-1.18-.23-2.38-.08-3.49.22-1.65.57-3.47,2.39-4.26a9.57,9.57,0,0,1,4.89-.8,39,39,0,0,0,6,.14C282.65,79.88,283.13,79.39,283.88,76.72Z"/><path class="cls-15" d="M252.21,84.86c.65,0,1.16-.6,1.84-.48l.07,0c-.28,2.16-1,4.25-1,6.45l-.27,0c-.58,0-1.19.53-1.73-.1A59.36,59.36,0,0,1,252.21,84.86Z"/><path class="cls-15" d="M279.87,109.42a18.19,18.19,0,0,0-1.73-2.73c2.36-.17,2.36-.17,1.88,2.18a.42.42,0,0,0-.15.52Z"/><path class="cls-4" d="M285.54,73.6c-1-.19-1.31-1-1.88-1.65l.46,0C285.86,71.89,285.86,71.9,285.54,73.6Z"/><path class="cls-13" d="M279.87,109.39a.42.42,0,0,1,.15-.52A.48.48,0,0,1,279.87,109.39Z"/><path class="cls-1" d="M163.9,57.78c-.86.21-1.09-.13-.88-1.14.45-2.18.79-4.39,1.12-6.59.14-.88.41-1.28,1.42-1.2,2.08.16,3.42.89,3.91,2.37a5.14,5.14,0,0,1-1.64,5.29A6.64,6.64,0,0,1,163.9,57.78Z"/><path class="cls-7" d="M98.13,102.61l0-.39a2.09,2.09,0,0,1,.35,0c2.13-.12,2.13-.12,1.9-2.2l.46.07c.28.84-.62,2.26,1.17,2.35l.27.43A20.21,20.21,0,0,0,98.13,102.61Z"/><path class="cls-7" d="M94.79,103.11l.22.31c-1.22.84-2.58,1.49-3.73,2.45l-.19-.2A16,16,0,0,1,94.79,103.11Z"/><path class="cls-7" d="M91.28,105.87c-.09,0-.23.16-.26.13s0-.24.07-.33Z"/><path class="cls-15" d="M160,113.24c1.75-3.56,3.77-7,5.76-10.39l1,0c-.25,1.82-1.56,3.17-2.17,4.83a20.7,20.7,0,0,0-3,5,1.51,1.51,0,0,0,1.13,1.91q1.67.16,3.33.24a48.31,48.31,0,0,0,5.24-.2,4,4,0,0,0,3.61-3.62.72.72,0,0,0,.5-.5.9.9,0,0,0,.93-.93c1.15-.27,2.15-1,3.39-1,3.44,0,6.88,0,10.32,0,2.71,0,4.8,1,5.66,3.8.24.82.72,1.74,1.56,1.85a15.26,15.26,0,0,0,5.22.22,4.82,4.82,0,0,1,2.26-.06,6,6,0,0,0,2.7-.09,1.39,1.39,0,0,0,1.3-1.08c.11-.58.17-1.17.25-1.76a5.05,5.05,0,0,0-.18-1.73c-.15-.49-.08-1,.63-.92.48,2.07.94,4.15,1.43,6.22.14.58,0,.77-.6.77-4.92,0-9.83,0-14.74,0-.57,0-.78-.2-.83-.73-.1-1-.21-2-.34-3-.22-1.62-.88-2.26-2.52-2.27-4.39,0-8.79,0-13.18,0a2.47,2.47,0,0,0-2.59,1.71c-.26.75-.68,1.43-1,2.16-.89,2.09-.88,2.1-3.2,2.09l-10.9,0C160.87,114.86,159.86,114.27,160,113.24Z"/><path class="cls-6" d="M173.93,88.17c2.28-4.16,4.53-8.32,6.85-12.46.71-1.28,1.07-3.07,2.28-3.67s2.82-.14,4.26-.14c4.35,0,8.71,0,13.06,0,.77,0,1.08.16,1.25,1,1.34,6.4,2.74,12.78,4.13,19.16-.57.45-1.16-.11-1.73,0a54.18,54.18,0,0,0-1.26-6.31c-.7-3.34-1.28-6.71-2.27-10-.53-1.74-1.17-2.17-3-2.17-3.6,0-7.2.08-10.79,0a4.36,4.36,0,0,0-4.33,2.53c-2.24,4.07-4.54,8.12-6.81,12.17Z"/><path class="cls-13" d="M204,92.05c.57-.13,1.16.43,1.73,0l3.69,16.84c-.71-.05-.78.43-.63.92a5.05,5.05,0,0,1,.18,1.73c-.44,0-.43-.39-.5-.7-.38-1.65-.78-3.3-1.15-5-.11-.46-.11-1-.73-1.08a3.82,3.82,0,0,0,0-.83Q205.32,98,204,92.13Z"/><path class="cls-13" d="M173.93,88.17l1.68.08.06.25c-1.13,2-2.29,4-3.37,6a24.46,24.46,0,0,0-2.41,4.76,4,4,0,0,0-1.65,2,2.88,2.88,0,0,1-1.45,1.58l-1,0q3.28-6,6.59-12C172.85,89.93,173.4,89.06,173.93,88.17Z"/><path class="cls-4" d="M160,113.24c-.15,1,.86,1.62,1,2.55h-2.33a5.8,5.8,0,0,1,1-1.85.27.27,0,0,0,.2-.32Z"/><path class="cls-15" d="M159.81,113.62a.27.27,0,0,1-.2.32A.27.27,0,0,1,159.81,113.62Z"/><path class="cls-6" d="M220.94,91.32c.29-1.81.57-3.62.88-5.43s-.55-2.73-2.25-2.7c-2.28,0-4.56.13-6.83.28-.88.06-1-.27-.85-1,.58-3.29,1.15-6.59,1.68-9.9.14-.89.74-.66,1.25-.66q12.52,0,25,0c2.68,0,5.35,0,8,0,.54,1,1.57,1.88,1.22,3.26,0,.15.12.35.18.53-.39,2.39-.79,4.78-1.14,7.18-.1.67-.51.58-1,.57-2.47-.1-4.93-.22-7.4-.28-1.7,0-2.28.43-2.62,2.11-.23,1.13-.41,2.27-.61,3.41a1.64,1.64,0,0,1-1.38.48,9.75,9.75,0,0,1,.91-4.76A4.21,4.21,0,0,1,239,82c1.85-.47,3.74-.14,5.61-.2a2.16,2.16,0,0,0,2.26-1.6,28.71,28.71,0,0,0,.8-4.33,1.83,1.83,0,0,0-2.07-2.25c-4.81,0-9.62-.06-14.43-.21q-7-.21-14,.18a2.3,2.3,0,0,0-2.32,1.71,17.67,17.67,0,0,0-.77,4.45c0,1.37.56,2,1.92,2,1,0,1.93-.06,2.88,0,2.75.26,4.32,1.53,4.32,4.37,0,1.67-.67,3.28-.48,5l-.27.25Z"/><path class="cls-13" d="M218.35,106.23c.52-3.17,1-6.34,1.57-9.5.24-1.4.54-2.79.81-4.19h1.66l.08,0a22.49,22.49,0,0,0-.57,3.14c-.47,3.12-1.06,6.23-1.6,9.34-1,2.15-1.1,4.51-1.42,6.81-.24,1.74.42,2.3,2.17,2.31,2.24,0,4.48-.06,6.7.09a3.25,3.25,0,0,0,2.4-.71c.9-.68.89-1.73,1-2.69.23-1.45.9-2.87.4-4.39l2.6-14.14.32,0a2.47,2.47,0,0,0,1.44-.19q-1.12,7.59-2.63,15.09c-.48.13-.5.57-.64.94-.56,1.45-.64,3-1.1,4.49a3,3,0,0,1-2.4,2.23,44.69,44.69,0,0,1-8.34.23c-1.36,0-2.64-1-2.66-1.94a30.57,30.57,0,0,1,.09-3.45C218.35,108.55,219,107.39,218.35,106.23Z"/><path class="cls-15" d="M218.35,106.23c.69,1.16,0,2.32-.09,3.45a30.57,30.57,0,0,0-.09,3.45c0,1,1.3,1.94,2.66,1.94a44.69,44.69,0,0,0,8.34-.23,3,3,0,0,0,2.4-2.23c.46-1.47.54-3,1.1-4.49.14-.37.16-.81.64-.94q-.66,4-1.3,8c-.08.48-.32.64-.82.64q-7,0-13.92,0c-.58,0-.66-.25-.57-.72q.74-4.1,1.48-8.19a.58.58,0,0,0,.16-.61l0-.06Z"/><path class="cls-15" d="M235.94,92.09a2.47,2.47,0,0,1-1.44.19,11,11,0,0,1,.42-2.85l.27-.23a1.64,1.64,0,0,0,1.38-.48Z"/><path class="cls-4" d="M249.29,75.73c-.06-.18-.21-.38-.18-.53.35-1.38-.68-2.22-1.22-3.26H250C249.73,73.26,249.51,74.49,249.29,75.73Z"/><path class="cls-15" d="M222.39,92.54h-1.66a2.56,2.56,0,0,1,.21-1.22l1.48,0Z"/><path class="cls-13" d="M218.34,106.34a.58.58,0,0,1-.16.61A.6.6,0,0,1,218.34,106.34Z"/><path class="cls-1" d="M102.83,96.37c-.2-1.28-.43-2.56-.6-3.85a12.65,12.65,0,0,1,.57-5.25l2.87,0c-.44,1.54,0,3.09-.06,4.64,0,.67,0,1.35,0,2Z"/><path class="cls-9" d="M102,102.4c-1.79-.09-.89-1.51-1.17-2.35,3.38-.64,6.68-.69,9.69,1.34.64.44,1.33.86,1.2,1.76-.18,1.23-.36,2.49-1.54,3.25a.92.92,0,0,1-1.19-.24c-.63-.61-1.25-1.22-1.84-1.87A5.35,5.35,0,0,0,102,102.4Z"/><path class="cls-2" d="M151.41,111.25c-3.18,1.36-6.36,2.56-9.93,1.57-1.28-.36-2.67-.26-3.93-.81-.37-.17-1-.06-.89-.7a1,1,0,0,1,1-1,3.65,3.65,0,0,0,2.46-1,11,11,0,0,0,4.11-2.41,4.21,4.21,0,0,0,1.86-1.85c.58-.91.35-2.08,1-3a1.05,1.05,0,0,1,.86.57c1.38,2.12,3.77,1.91,5.81,2.49.33.1.75-.22,1-.59a3.65,3.65,0,0,1,1.24-1.26c.3.25.21.55.16.87a10.24,10.24,0,0,1-3.94,6C151.86,110.56,151.46,110.75,151.41,111.25Z"/><path class="cls-14" d="M147.12,79.27l8.42,3.41a2.3,2.3,0,0,1,.92.5c-.28,2.52-1.88,4-4,5a4.39,4.39,0,0,0-.53.27,7,7,0,0,0-2.47,2.19,3.57,3.57,0,0,0-3-.37c1.12-1.36,1.37-3,1.9-4.49a3.09,3.09,0,0,0,.19-1.4c-.08-.6-.51-1.24.49-1.53.31-.09.11-.38-.09-.55C148,81.51,147.75,80.27,147.12,79.27Z"/><path class="cls-13" d="M157.92,83.45l1.54.54a10,10,0,0,1-6.34,6.78c-2,.76-2.47,1.85-1.45,3.73l.24.19h0c0,.64.5.86,1,1.1a9.63,9.63,0,0,1,3.34,2.66c.77,1,1.46,2.07,1,3.45-.66-1.73-1.32-3.51-3-4.47s-3.38-2-4.2-3.93c-.1-2,1.09-3.21,2.69-4.14a16.14,16.14,0,0,0,3.5-2.44,6.31,6.31,0,0,0,1.5-3.45Z"/><path class="cls-5" d="M147.1,102.14c-.65.88-.42,2-1,3a4.21,4.21,0,0,1-1.86,1.85,1,1,0,0,1,.26-.65c2.73-3.83,1.72-9-3.56-10.5a25.47,25.47,0,0,0-4.13-.57,6.31,6.31,0,0,0-5.13,1.45c-.6.52-.8,1.38-1.61,1.66a10.8,10.8,0,0,1,1.43-2.91,14,14,0,0,1,11.67.43A6.93,6.93,0,0,1,147.1,102.14Z"/><path class="cls-5" d="M150,93.51c.82,1.94,2.47,2.94,4.2,3.93s2.37,2.74,3,4.47a9.65,9.65,0,0,1-5.54,9.36.9.9,0,0,1-.23,0c.05-.5.45-.69.79-1a10.24,10.24,0,0,0,3.94-6c.05-.32.14-.62-.16-.87,0-3.67-1-4.67-4.38-6a6.49,6.49,0,0,1-2.33-3A.68.68,0,0,1,150,93.51Z"/><path class="cls-15" d="M151.64,111.27a9.65,9.65,0,0,0,5.54-9.36c.5-1.38-.19-2.46-1-3.45a9.63,9.63,0,0,0-3.34-2.66c-.46-.24-.95-.46-1-1.1.82.36,1.68.67,2.47,1.09,3.74,2,5.07,5.37,3.83,9.6-1.34,4.59-4.7,7.12-8.93,8.77a4.66,4.66,0,0,1-1.94.51c-.17-.35-.78-.25-.76-.78a32,32,0,0,0,4.33-1.67C151.33,112,151.73,111.84,151.64,111.27Z"/><path class="cls-15" d="M151.91,94.69l-.24-.19Z"/><path class="cls-15" d="M130.07,98.34c.81-.28,1-1.14,1.61-1.66a6.31,6.31,0,0,1,5.13-1.45,25.47,25.47,0,0,1,4.13.57c5.28,1.47,6.29,6.67,3.56,10.5a1,1,0,0,0-.26.65,11,11,0,0,1-4.11,2.41c-1.9,0-3.73.59-5.66.51a9.6,9.6,0,0,1-4.2-1.43c-.39-.21-.37-.69-.59-1s-.14-1.08-.8-1.22A31.84,31.84,0,0,1,130.07,98.34Zm5.2,9.89a13.27,13.27,0,0,0,6.73-1.35,6.15,6.15,0,0,0,2.91-6c-.41-2.42-2-3.54-4.29-4.06a25.9,25.9,0,0,0-6-.42c-1.77,0-2.37.61-2.69,2.38-.36,2-.64,3.91-1.09,5.85-.71,3,.36,3.75,3.07,3.6C134.38,108.21,134.83,108.23,135.27,108.23Z"/><path class="cls-2" d="M44.37,52.87a5.57,5.57,0,0,0-4.25,2.74c-2.28-7.85-4.55-15.7-6.88-23.54a1.55,1.55,0,0,1,.5-1.77q7.83-7.78,15.63-15.58c.24-.24.44-.71.83-.56s.2.64.22,1c.33,7.5.64,15,1,22.49,0,.87.17,1.73.28,2.77l7.8-7.11a38.45,38.45,0,0,1-.36,6c-.47-.43-.63.11-.83.31q-4.41,4.24-8.77,8.52A6.83,6.83,0,0,1,48,49.36c-.11,0-.27-.09-.32,0A33.09,33.09,0,0,0,44.37,52.87Z"/><path class="cls-5" d="M48,49.36a6.83,6.83,0,0,0,1.48-1.2q4.36-4.27,8.77-8.52c.2-.2.36-.74.83-.31-.26,3.36-.51,6.71-.77,10.06-2.83-1.86-5.78-.94-8.68-.32-1,.22-1.3,1.12-.93,2.1A4.53,4.53,0,0,0,54.26,54a3,3,0,0,1,2.7.54q-1.4,3.09-2.77,6.19a15.82,15.82,0,0,1-4.38-6.32,3.48,3.48,0,0,0-1.63-1.65C48.33,51.59,47.79,50.49,48,49.36Z"/><path class="cls-9" d="M139.24,79.6a17.1,17.1,0,0,1,2.47.18c1.85.3,3.42,1,4,2.92a5.42,5.42,0,0,1-1.4,5.4c-1.41,1.52-3.34,1.78-5.25,2a21.48,21.48,0,0,1-3.11,0,1.91,1.91,0,0,1-2-2.38c.34-2.2.77-4.39,1.22-6.57a2.11,2.11,0,0,1,2.15-1.58C137.89,79.55,138.49,79.6,139.24,79.6Zm-.11,1.91c-2.15,0-2.15,0-2.56,2.1-.13.66-.19,1.33-.31,2-.49,2.77-.49,2.81,2.34,2.6A6.59,6.59,0,0,0,142.73,87a3.57,3.57,0,0,0,1.17-3.67c-.28-1.19-1.39-1.46-2.51-1.63A19.2,19.2,0,0,0,139.13,81.51Z"/><path class="cls-2" d="M54.19,60.69Q55.57,57.58,57,54.5a2.67,2.67,0,0,1,1.14.63,84.22,84.22,0,0,0-.76,9.79,18,18,0,0,0-2.71,4.88c-.51-.46-.68.1-.91.34-1.14,1.25-2.26,2.52-3.57,4-.11-1.4-.2-2.59-.29-3.78.73-1.65,1.45-3.29,2.17-4.94l.82-.46C54.82,63.86,55.18,62.71,54.19,60.69Z"/><path class="cls-9" d="M48.7,66.06c-.22.79.15,1.58,0,2.36-.81.2-1.61.45-2.43.59a2,2,0,0,1-2.13-1A2.11,2.11,0,0,1,44,65.79c1.47-3.55,4.38-4.86,7.93-5.18a1.56,1.56,0,0,1,1.49,2.19c-.61,1.37-1.92,1.82-3.12,2.42C49.79,65.5,49.06,65.43,48.7,66.06Z"/><path class="cls-9" d="M40.68,62.12c-.68-1.25-1.58-2.29-.84-3.75,1-1.92,1.78-4,4.32-4.38.83-.12,1.66-.2,2.5-.27a2.32,2.32,0,0,1,2.53,2.08c.06.46-.11.67-.56.7s-1,.11-1.43.11a5.72,5.72,0,0,0-5.32,3.25C41.48,60.55,41.13,61.26,40.68,62.12Z"/><path class="cls-9" d="M42.91,65.75C41.4,64,41.28,63,42.33,61.16c1.77-3.11,3.9-4.15,7.55-3.7a2,2,0,0,1,1.49,1.78c0,.21-.06.39-.29.46a1.43,1.43,0,0,1-.34.09C46.8,60,44.49,62.39,42.91,65.75Z"/><path class="cls-3" d="M48,49.36c-.25,1.13.29,2.23.14,3.36l-.73-.13c-.08-.4-.15-.81-.26-1.34l-1.25,1.4-1.57.22a33.09,33.09,0,0,1,3.35-3.55C47.77,49.27,47.93,49.34,48,49.36Z"/><path class="cls-5" d="M52,65.39c-.72,1.65-1.44,3.29-2.17,4.94A15.29,15.29,0,0,1,49.34,66,9.86,9.86,0,0,0,52,65.39Z"/><path class="cls-1" d="M45.94,52.65l1.25-1.4c.11.53.18.94.26,1.34Z"/><path class="cls-5" d="M54.63,69.8a18,18,0,0,1,2.71-4.88l2.75-2.58.29.08q-1,12.09-2,24.18h-.28Z"/><path class="cls-9" d="M60.73,68.57c2.39.34,4.46-.08,6.09-2.11a21.65,21.65,0,0,0,2.93-4c.11,0,.21,0,.24.08,1.64,2.33,1.65,2.34-.33,4.36-1.28,1.31-2.57,2.62-3.94,3.85a6.34,6.34,0,0,1-5.29,1.69A21.58,21.58,0,0,1,60.73,68.57Z"/><path class="cls-9" d="M58.8,55.47c2,1,2.25,1.71,1.5,4-.16.48-.38.94-.58,1.41h0l-1.44,1.26Z"/><path class="cls-11" d="M58.29,62.12l1.44-1.26c-.1.81-.77,1.14-1.33,1.56Z"/><path class="cls-9" d="M60.63,55.6c-1.35-.71-2.61-1.37-3.87-2.05A3.47,3.47,0,0,0,54,53.32a3.93,3.93,0,0,1-4.61-2.42c-.27-.73.12-1,.68-1.27A9.43,9.43,0,0,1,60.47,52C61.08,52.62,61.13,53.63,60.63,55.6Z"/><path class="cls-15" d="M71,40.88c.07-.1.14-.19.25-.05s-.09.11-.14.16Z"/><path class="cls-11" d="M98.74,55A1.71,1.71,0,0,1,97,56.83,2.81,2.81,0,0,1,94.59,54a1.72,1.72,0,0,1,1.67-1.82A2.77,2.77,0,0,1,98.74,55Zm-2.66-.54a.58.58,0,0,0,.66-.65,1,1,0,0,0-.85-1c-.43-.06-.66.24-.66.64A1,1,0,0,0,96.08,54.41Z"/><path class="cls-7" d="M88.78,56.18h-.24a8.06,8.06,0,0,1-.74-3.35c.21.12.33-.09.49-.14C88.09,53.91,88.65,55,88.78,56.18Z"/><path class="cls-15" d="M88.26,51.83a5.36,5.36,0,0,1,1-3.55Z"/><path class="cls-7" d="M85.47,51c-1.52-.6-3-1.36-4.72-1.17A5,5,0,0,1,85.47,51Z"/><path class="cls-14" d="M125.49,35a2.75,2.75,0,0,1-1.65.94A2.35,2.35,0,0,1,125.49,35Z"/><path class="cls-14" d="M130.53,32.32a1.51,1.51,0,0,1-1.17.7A1.34,1.34,0,0,1,130.53,32.32Z"/><path class="cls-14" d="M127.88,33.77l-.42.26C127.5,33.78,127.68,33.76,127.88,33.77Z"/><path class="cls-14" d="M123.32,36.17a.4.4,0,0,1-.44.21C123,36.18,123.13,36.16,123.32,36.17Z"/><path class="cls-14" d="M123.8,35.93a.44.44,0,0,1-.44.21C123.44,35.94,123.61,35.92,123.8,35.93Z"/><path class="cls-14" d="M131.05,32.1l-.5.21A.42.42,0,0,1,131.05,32.1Z"/><path class="cls-14" d="M126,34.74a.54.54,0,0,1-.49.21A.41.41,0,0,1,126,34.74Z"/><path class="cls-14" d="M129.32,33.05a.46.46,0,0,1-.44.21C129,33.06,129.13,33,129.32,33.05Z"/><path class="cls-14" d="M128.84,33.29a.42.42,0,0,1-.44.21C128.48,33.3,128.65,33.28,128.84,33.29Z"/><path class="cls-14" d="M128.36,33.53a.42.42,0,0,1-.44.21C128,33.54,128.17,33.52,128.36,33.53Z"/><path class="cls-14" d="M122.84,36.41l-.19.26Z"/><path class="cls-9" d="M82.7,46.07c0,.53-.46.31-.73.35a12.87,12.87,0,0,0-5.69,2A3.48,3.48,0,0,0,75,49.93c-.68-1.46.67-3.79,2.42-4.2S80.93,45.83,82.7,46.07Z"/><path class="cls-9" d="M89.14,45.43c-.09,0-.25.08-.27,0s0-.18.14-.21A.51.51,0,0,1,89.14,45.43Z"/><path class="cls-2" d="M293.19,87.48a74.48,74.48,0,0,1,2.19-12.57,1.37,1.37,0,0,0,0-.35h.06a6.54,6.54,0,0,0,2.33-.27c1.76-.35,3.6-.24,5.31-.88,2.57.07,5.11-.46,7.67-.51.24.75.86.45,1.32.43a48.3,48.3,0,0,1,9,.37,15.52,15.52,0,0,1,6.86,2.53,7.89,7.89,0,0,1,3.45,5.72,12.71,12.71,0,0,1-.49,5.54l-11.66-.42L318.7,87a6.06,6.06,0,0,0-1.63-4.83c-2.23-2.19-5-2.31-7.91-2a3.74,3.74,0,0,0-3,2.31c-.77,1.48-.75,3.15-1.18,4.71l-.49.06-7.42.07c-.59.07-1.31-.41-1.72.41l-2.1,0A1,1,0,0,0,293.19,87.48Z"/><path class="cls-16" d="M319.22,87.06l11.66.42.25.07a9.86,9.86,0,0,1-3.46,5.66,18.85,18.85,0,0,1-5.43,2.64c-2.64,1.05-3.84,4.13-1.93,6.14a1,1,0,0,1,.28.88c-1.43-.92-1.61-2.52-2.09-4a.84.84,0,0,0-.28.72c-.11,1.91-.58,2.37-2.47,2.36-1.35,0-2.68-.35-4-.26a1,1,0,0,1-.94-.42c-.58-1.36-1.82-1.73-3-2.31a4.69,4.69,0,0,0-5.12.42,4.93,4.93,0,0,1-4.1,1c-2.31-.52-4.71-.52-7-1.27l0-.5A75.72,75.72,0,0,1,293.06,88c0-.1.14-.18.22-.28l2.1,0a2,2,0,0,0,1.72-.41l7.42-.07a17.6,17.6,0,0,0-.22,3.32,4,4,0,0,0,3.34,3.93,10.45,10.45,0,0,0,3.53,0,8.49,8.49,0,0,0,7.24-4.69A15.69,15.69,0,0,0,319.22,87.06Z"/><path class="cls-14" d="M291.57,99.05c2.27.75,4.67.75,7,1.27a4.93,4.93,0,0,0,4.1-1,4.69,4.69,0,0,1,5.12-.42c1.18.58,2.42,1,3,2.31a1,1,0,0,0,.94.42c1.36-.09,2.69.25,4,.26,1.89,0,2.36-.45,2.47-2.36a.84.84,0,0,1,.28-.72c.48,1.52.66,3.12,2.09,4l.26.27a.45.45,0,0,0,.43.46c1.82,2.48,3.1,5.28,4.68,7.89.85,1.4.27,2.59-1.38,2.63-2.87.07-5.75,0-8.63,0a2.94,2.94,0,0,1-2.71-2c-.72-1.63-1.41-3.27-2-5a37,37,0,0,0-2.13-5.17c-.92-1.83-2.36-2.8-4.09-2.45a4.09,4.09,0,0,0-3.14,3.25c-.38,1.46-.67,2.94-1,4.41-1.44.82-1.2,2.4-1.57,3.66-.53,1.79-1.25,2.46-3.09,2.33-1.52-.11-3.05-.18-4.58-.24-1.36,0-1.92-.62-1.75-1.94.46-3.37.93-6.74,1.39-10.12,0-.31.11-.64-.2-.88,0-.17,0-.35,0-.52C291.42,99.5,291.55,99.33,291.57,99.05Z"/><path class="cls-10" d="M291.1,100c.31.24.24.57.2.88-.46,3.38-.93,6.75-1.39,10.12-.17,1.32.39,1.9,1.75,1.94,1.53.06,3.06.13,4.58.24,1.84.13,2.56-.54,3.09-2.33.37-1.26.13-2.84,1.57-3.66a34.78,34.78,0,0,1-.75,5.28,2.17,2.17,0,0,1-1.88,1.63,32.45,32.45,0,0,1-7.5.22c-1.73-.07-2.54-1.65-2-3.58.81-2.94,1.11-6,1.85-8.94A4.72,4.72,0,0,1,291.1,100Z"/><path class="cls-10" d="M291.57,99.05c0,.28-.15.45-.45.44,0-.38-.19-.84.43-.94C291.56,98.72,291.56,98.88,291.57,99.05Z"/><path class="cls-16" d="M321.28,103.6a.45.45,0,0,1-.43-.46C321.18,103.13,321.33,103.27,321.28,103.6Z"/><path class="cls-16" d="M338.65,105.52a50.56,50.56,0,0,1,1-7.66c.53-3.22,1.09-6.42,1.64-9.63.59,0,1.18,0,1.77.09l9.9,1.13c-.23,1.89-.68,3.74-1.06,5.6-.53,2.6-1,5.21-1.52,7.82a32.56,32.56,0,0,0-1.08,3.48c-.15.38-.2,1-.8.81a5.33,5.33,0,0,0-2.21,0c-1.83.16-3.47-.56-5.17-1-.85-.21-1.55-.67-1.36-1.77,0-.23.13-.59-.16-.63C338.65,104.06,339.59,105.24,338.65,105.52Z"/><path class="cls-2" d="M353,89.45l-9.9-1.13c-.59-.06-1.18-.06-1.77-.09l-.29-.07c.33-2.12.63-4.24,1-6.35s.78-4,1.15-6.08a2.94,2.94,0,0,1,3-2.6c1.76,0,3.49-.31,5.25-.27a28.61,28.61,0,0,1,3.09.32,1.69,1.69,0,0,1,1.6,1.88,23.61,23.61,0,0,1-.49,4c-.54,3-1.08,6-1.6,9a11.38,11.38,0,0,0-.1,1.31Z"/><path class="cls-14" d="M338.65,105.52c.94-.28,0-1.46,1-1.77.29,0,.2.4.16.63-.19,1.1.51,1.56,1.36,1.77,1.7.4,3.34,1.12,5.17,1a5.33,5.33,0,0,1,2.21,0c.6.2.65-.43.8-.81a32.56,32.56,0,0,1,1.08-3.48c.34,1.07-.19,2.07-.31,3.1a47,47,0,0,1-.9,5.5,2.71,2.71,0,0,1-3,2.44c-2.31-.07-4.62.24-6.91-.22a1.88,1.88,0,0,1-1.61-2.31C338.05,109.43,338.34,107.47,338.65,105.52Z"/><path class="cls-2" d="M369.36,92.32c3.09-6,6.5-11.85,9.85-17.72l1.41,0c2.4.48,4.81,1,7.21,1.46,1.51.31,3,.8,4.51,1s3.16,1,4.83,1.15l.24.23c-.12.75.38,1.38.46,2.07.52,4.88,2.53,9.49,2.51,14.48,0,1.71.33,3.38-1.08,4.74-.29.28-.2.67-.21,1h0c-.65.17-1.18-.38-1.8-.39-.13.68.82.57.68,1.33-.47-.26-.9-.48-1.31-.74-.6-.39-.68,0-.67.45l-.76-.29c-1.6-.53-3-1.63-4.7-1.84,0-.13-.05-.26-.08-.39a34.08,34.08,0,0,0-.2-3.92c-.17-2.77-.51-5.53-.56-8.31a3.38,3.38,0,0,0-5.16-2.83,6.35,6.35,0,0,0-2.16,3.09c-1.17,2.67-2.31,5.36-3.46,8l-.29,0a28.06,28.06,0,0,0-3.53-1c-.07-.26-.15-.51-.47-.19l-.74,0-.22-.16c-.35-.36-.82-.19-1.22-.29l-.27-.17-2.77-.53A1.6,1.6,0,0,0,369.36,92.32Z"/><path class="cls-16" d="M373.89,93.68l.74,0a.35.35,0,0,0,.47.19,28.06,28.06,0,0,1,3.53,1,1.43,1.43,0,0,1-.2,1,15.83,15.83,0,0,0-1.09,2.88,3.6,3.6,0,0,0,2.86,4.56,25,25,0,0,0,5.47.18c3.19,0,4.57-1.24,4.87-4.36,1.72.21,3.1,1.31,4.7,1.84l.76.29a2.44,2.44,0,0,1,1.42.83l.45.21.27.09.24.14h0c-.33.82-1.06.69-1.71.72-.44,0-.85,0-1.16.44-1.37,2.11-3.94,2.41-5.81,3.77a.53.53,0,0,1-.35.07c-2.62-.48-5.22.17-7.85.1-2-.06-3.93-.45-5.93-.08s-3.8.82-4.86,2.76a15,15,0,0,1-1.24,1.75,2.1,2.1,0,0,1-1.67,1c-2.08,0-4.16,0-6.24,0a1.19,1.19,0,0,1-1.13-1.81,18,18,0,0,1,1.58-3.09,6.44,6.44,0,0,0,1.08-3.45,50.35,50.35,0,0,1,3.45-6.74,45.49,45.49,0,0,0,2.87-5.55l2.78.53.26.17c.4.1.87-.07,1.22.29Z"/><path class="cls-14" d="M363.09,104.82a6.44,6.44,0,0,1-1.08,3.45,18,18,0,0,0-1.58,3.09,1.19,1.19,0,0,0,1.13,1.81c2.08,0,4.16,0,6.24,0a2.1,2.1,0,0,0,1.67-1,15,15,0,0,0,1.24-1.75c1.06-1.94,2.89-2.4,4.86-2.76s4,0,5.93.08c2.63.07,5.23-.58,7.85-.1a.53.53,0,0,0,.35-.07c1.87-1.36,4.44-1.66,5.81-3.77.31-.46.72-.42,1.16-.44.65,0,1.38.1,1.71-.72,1.57.44,2.75,1.54,4.1,2.36,0,.69-.28,1.05-1,1-.39,0-.85-.09-1.07.34a1.28,1.28,0,0,1-1.18.65c-.43,0-1,.08-1.24.36-1.2,1.57-3.21,1.69-4.72,2.68-.43.28-.68.5-.63,1h-.47c-1.39-2.31-3.72-2.65-6.05-2.53-3.27.17-6.55,0-9.82.1a5.29,5.29,0,0,0-5.06,3,4.75,4.75,0,0,1-5,2.84c-1.71-.12-3.44,0-5.16,0a3.55,3.55,0,0,1-1.41-.24c-.87-.35-1.26-.87-.84-1.85a58.08,58.08,0,0,1,3.4-6.19C362.45,105.67,362.37,105,363.09,104.82Z"/><path class="cls-5" d="M392.16,111h.47a8.38,8.38,0,0,1,.54.91,2.43,2.43,0,0,0,2.38,1.49h7a1.37,1.37,0,0,0,1.54-1.55c0-1.15-.39-2.26-.53-3.39s-.81-2.22-.44-3.42V105l.95.59a.54.54,0,0,0,0,.18A26.76,26.76,0,0,0,405,111c.38,1.84-.09,3.33-2.51,3.15-1.94-.15-3.88.31-5.84.23a18.51,18.51,0,0,1-2.59-.32C392.91,113.88,392.15,112.59,392.16,111Z"/><path class="cls-6" d="M404.12,105.6l-.95-.59a27.73,27.73,0,0,0-.65-5.31c-.5-2.36-1-4.74-1.44-7.11-.82-4.36-1.87-8.68-2.68-13-.11-.6-.3-1.07-1-1.14l-.24-.23a4,4,0,0,0-.22-1.41c-.43-2.3-1.17-2.9-3.53-2.94-1.71,0-3.41,0-5.12-.15a29,29,0,0,0-6.9.1c-.47.07-.86.18-.78.79l-1.41,0-.32-.31a4.26,4.26,0,0,1,3.61-1.91c3.55,0,7.1,0,10.65,0s4.61,1.09,5.25,4.57c.12.62.31,1.22.47,1.84a18.35,18.35,0,0,0,.81,4.07c.64,3.26,1.29,6.53,2.08,9.77.67,2.77,1.05,5.6,1.75,8.38A12.18,12.18,0,0,1,404.12,105.6Z"/><path class="cls-12" d="M303.08,73.4c-1.71.64-3.55.53-5.31.88a6.54,6.54,0,0,1-2.33.27.92.92,0,0,1,.84-1.11,22.46,22.46,0,0,1,6.65-.21C303,73.23,303,73.34,303.08,73.4Z"/><path class="cls-3" d="M87.53,77.47A18,18,0,0,1,91.16,75c.81-.36,1.66-.87,2.59-.25.44.29.66-.17.9-.36a12.15,12.15,0,0,1,6.83-2.25c.34,0,.74-.14,1,.26s-.07.68-.25,1c-.82,1.28-1.68,2.53-2.45,3.83a1.36,1.36,0,0,1-1.37.7c-3.59,0-7.19,0-10.78,0Z"/><path class="cls-9" d="M104.35,66.77c.2,1-.39,1.46-1,1.89a24.15,24.15,0,0,1-10,3.44,31.33,31.33,0,0,1-7,.41c-1.43-.12-1.56-.24-2.22-1.91C91.25,71.56,97.9,69.92,104.35,66.77Z"/><path class="cls-9" d="M98.37,78.65A3.15,3.15,0,0,1,95.08,80c-3.66-.23-7.32-.54-11-.82.24-.91.65-1.2,1.55-1.06A68.51,68.51,0,0,0,98.37,78.65Z"/><path class="cls-11" d="M83.8,56.52c.3.63.43,1.14,1,1.15a.5.5,0,0,0,.51-.56c0-.61-.46-.92-1.39-1,1.25-.66,2-.46,2.67.26A2.15,2.15,0,0,1,87.08,59a1.54,1.54,0,0,1-2.37.35C83.9,58.78,83.62,58,83.8,56.52Z"/><path class="cls-10" d="M263,100.93a19.1,19.1,0,0,1,0,2.27c-.41,3.45,2.17,4.93,5,5,2.31,0,4.63.13,6.93,0,2.9-.19,4.29,1.46,2.51,4.34-.34,0-.64-.32-1,0a5.59,5.59,0,0,1-3.42.77H261.61c-1.43,0-2.86-.48-4.28-.21a18.73,18.73,0,0,1-5.34,0c-1.42-.13-2-.71-1.65-2.11a18.87,18.87,0,0,0,.44-4.61c.78-.64,1.66-.19,2.49-.26,2.7-.24,5.35.45,8,.4.67,0,.69-.08.62-.69a8.14,8.14,0,0,1,.59-5.23Z"/><path class="cls-14" d="M262.53,100.46a8.14,8.14,0,0,0-.59,5.23c.07.61.05.67-.62.69-2.7.05-5.35-.64-8-.4-.83.07-1.71-.38-2.49.26h-.27a86.35,86.35,0,0,1,1.32-9c.32-2.11.7-4.2,1-6.3l.27,0,.52.07a2.94,2.94,0,0,0-.07,2.66c.11.4,2.25.36,2.75,0s.75-.27,1.26,0c2,1.16,4.09,2.07,6.6,1.46a8.3,8.3,0,0,1,4.9.47,22.21,22.21,0,0,0-2.33.4C264.73,96.2,262.48,98.07,262.53,100.46Z"/><path class="cls-16" d="M262.53,100.46c0-2.39,2.2-4.26,4.25-4.54a22.21,22.21,0,0,1,2.33-.4,8.3,8.3,0,0,0-4.9-.47c-2.51.61-4.57-.3-6.6-1.46-.51-.29-.81-.36-1.26,0s-2.64.41-2.75,0a3,3,0,0,1,.07-2.67l1.66-.22a.45.45,0,0,0,.73,0l.95,0c.3.34.42.12.51-.17l9.73-1,.74,0c.82,1.33,2.25,1,3.42,1.11,1.95.17,3.92,0,5.87.06,1.65,0,2.3.69,2.27,2.36,0,2.52-1.34,3.82-3.87,3.83-2.32,0-4.64,0-7,0-2.57,0-4.38,1-5.23,3.48a.82.82,0,0,1-.5.61Z"/><path class="cls-5" d="M250.51,106.23h.27a18.87,18.87,0,0,1-.44,4.61c-.32,1.4.23,2,1.65,2.11a18.73,18.73,0,0,0,5.34,0c1.42-.27,2.85.21,4.28.21H273a5.59,5.59,0,0,0,3.42-.77c.39-.28.69.07,1,0a2.29,2.29,0,0,1-2.4,1.7c-7.78,0-15.57,0-23.35,0-2.2,0-3-1.15-2.38-3.25a7.29,7.29,0,0,0,.3-2.36A3.36,3.36,0,0,1,250.51,106.23Z"/><path class="cls-12" d="M254.05,84.38A73.44,73.44,0,0,1,255.37,76a2.65,2.65,0,0,1,3-2.45q11.58,0,23.15,0c1.3,0,1.86.6,1.88,1.92,0,.4,0,.8,0,1.2a65.2,65.2,0,0,0-6.81,1.39c-2.63.56-5.21,1.35-7.82,2a116.34,116.34,0,0,0-14.66,4.34Z"/><path class="cls-2" d="M254.12,84.4a116.34,116.34,0,0,1,14.66-4.34c2.61-.61,5.19-1.4,7.82-2a65.2,65.2,0,0,1,6.81-1.39h.47c-.75,2.67-1.23,3.16-4.15,3.29a39,39,0,0,1-6-.14,9.57,9.57,0,0,0-4.89.8c-1.82.79-2.17,2.61-2.39,4.26-.15,1.11-.56,2.31.08,3.49.21.39.52.66.73,1l-9.73,1a.39.39,0,0,0-.51.17l-.95,0-.73,0-1.66.22-.52-.06C253.14,88.65,253.84,86.56,254.12,84.4Z"/><path class="cls-5" d="M166.79,102.87a2.88,2.88,0,0,0,1.45-1.58,4,4,0,0,1,1.65-2,26.41,26.41,0,0,1-1.16,3c-.75,1.51-.26,3.76,2,3.54,1.51-.15,3.12-.34,4.45.8a.76.76,0,0,0,.58.09,9.27,9.27,0,0,1,4.65,0c1.19.39,2.44-.09,3.64,0,2.92.31,5.89.11,8.78.73a5.65,5.65,0,0,1,2.34.81,4.61,4.61,0,0,0,2.31.88c.74.08,1.65-.08,2.2.31,1.41,1,3,.83,4.57,1,1.8.25,2.53-.57,2.58-2.41,0-1.12-.42-2.19-.24-3.32.62.11.62.62.73,1.08.37,1.66.77,3.31,1.15,5,.07.31.06.65.5.7-.08.59-.14,1.18-.25,1.76a1.39,1.39,0,0,1-1.3,1.08,6,6,0,0,1-2.7.09,4.82,4.82,0,0,0-2.26.06,15.26,15.26,0,0,1-5.22-.22c-.84-.11-1.32-1-1.56-1.85-.86-2.83-3-3.78-5.66-3.8-3.44,0-6.88,0-10.32,0-1.24,0-2.24.7-3.39,1a1,1,0,0,0-.93.93.72.72,0,0,1-.5.5c-.39-1,.23-1.52.86-2.09.82-.72,1.92-.8,2.86-1.32a10.1,10.1,0,0,0-4.26.94,6.13,6.13,0,0,1-5,.19c-1.24-.54-2.83-1.16-2.36-3.33-1.39,1.19-1.35,3-2.78,4,0-.77.48-1.17.38-1.71C165.23,106,166.54,104.69,166.79,102.87Zm34.79,11c.85,0,1.54,0,2.21,0a29.54,29.54,0,0,0,3-.28c.52-.08,1.11-.54,1-1-.2-.7-.67.05-1,.05a1.09,1.09,0,0,0-.35.07c-1.58.61-3.16,0-4.73-.07-1.76-.08-3.86.46-5-1.63a.35.35,0,0,0-.3-.11c-.2,0-.18.22-.18.38a2.6,2.6,0,0,0,2,2.41A14.89,14.89,0,0,0,201.58,113.91Zm6-2.69c.08-.14.17-.22.17-.31s-.09-.29-.27-.22-.12.18-.11.27S207.51,111.11,207.6,111.22Zm-12.12-1.69c-.06,0-.14-.1-.19-.08s-.06.12-.09.19.15.09.19.07S195.45,109.59,195.48,109.53Z"/><path class="cls-2" d="M164.62,107.7c.1.54-.4.94-.38,1.71,1.43-1,1.39-2.81,2.78-4-.47,2.17,1.12,2.79,2.36,3.33a6.13,6.13,0,0,0,5-.19,10.1,10.1,0,0,1,4.26-.94c-.94.52-2,.6-2.86,1.32-.63.57-1.25,1.11-.86,2.09a4,4,0,0,1-3.61,3.62,48.31,48.31,0,0,1-5.24.2q-1.67-.07-3.33-.24a1.51,1.51,0,0,1-1.13-1.91A20.7,20.7,0,0,1,164.62,107.7Z"/><path class="cls-2" d="M175.41,110.52a1,1,0,0,1,.93-.93A.9.9,0,0,1,175.41,110.52Z"/><path class="cls-12" d="M175.67,88.5l-.06-.25c2.27-4,4.57-8.1,6.81-12.17a4.36,4.36,0,0,1,4.33-2.53c3.59.11,7.19,0,10.79,0,1.79,0,2.43.43,3,2.17,1,3.28,1.57,6.65,2.27,10A54.18,54.18,0,0,1,204,92.05l0,.08-1,0c-2.63-.21-5.26-.55-7.91-.54-.43-.38-.94-.17-1.42-.2a1.55,1.55,0,0,1-.06-.23,23.16,23.16,0,0,0-.27-4.85,3.58,3.58,0,0,0-2.66-3.21A3.29,3.29,0,0,0,187,84.15a15.07,15.07,0,0,0-2.73,5.74l-.49.07c-1.37-.22-2.74-.43-4.11-.68S177,88.76,175.67,88.5Z"/><path class="cls-10" d="M175.67,88.5c1.35.26,2.69.54,4,.78s2.74.46,4.11.68c-.16,2-1.43,3.6-2,5.47a8,8,0,0,0-1.71,3c-1.4,3.38.6,5.46,3.11,6a17.58,17.58,0,0,0,8.85-.2,2.87,2.87,0,0,0,2.25-1.91,10.6,10.6,0,0,0-.19-6.16,23.41,23.41,0,0,1-.49-4.8c.48,0,1-.18,1.42.2a16.83,16.83,0,0,0,.43,5.29c.09.33,0,.61.62.6,2.44,0,4.89-.32,7.28.4.54.16,1,.14.72-.54-.61-1.69-.49-3.54-1.14-5.21l1,0Q205.31,98,206.59,104a3.82,3.82,0,0,1,0,.83c-.18,1.13.27,2.2.24,3.32-.05,1.84-.78,2.66-2.58,2.41-1.53-.21-3.16,0-4.57-1-.55-.39-1.46-.23-2.2-.31a4.61,4.61,0,0,1-2.31-.88,5.65,5.65,0,0,0-2.34-.81c-2.89-.62-5.86-.42-8.78-.73-1.2-.13-2.45.35-3.64,0a9.27,9.27,0,0,0-4.65,0,.76.76,0,0,1-.58-.09c-1.33-1.14-2.94-1-4.45-.8-2.29.22-2.78-2-2-3.54a26.41,26.41,0,0,0,1.16-3,24.46,24.46,0,0,1,2.41-4.76C173.38,92.47,174.54,90.5,175.67,88.5Z"/><path class="cls-12" d="M235.19,89.2l-.27.23a12.17,12.17,0,0,0-2.94.39c-3.08.58-6.18,1-9.29,1.29-.19-1.69.48-3.3.48-5,0-2.84-1.57-4.11-4.32-4.37-.95-.08-1.92,0-2.88,0-1.36,0-1.93-.66-1.92-2a17.67,17.67,0,0,1,.77-4.45,2.3,2.3,0,0,1,2.32-1.71q7-.39,14-.18c4.81.15,9.62.18,14.43.21a1.83,1.83,0,0,1,2.07,2.25,28.71,28.71,0,0,1-.8,4.33,2.16,2.16,0,0,1-2.26,1.6c-1.87.06-3.76-.27-5.61.2a4.21,4.21,0,0,0-2.87,2.47A9.75,9.75,0,0,0,235.19,89.2Z"/><path class="cls-2" d="M222.69,91.11c3.11-.33,6.21-.71,9.29-1.29a12.17,12.17,0,0,1,2.94-.39,11,11,0,0,0-.42,2.85l-.32,0-8.36.22a1.86,1.86,0,0,0-1.92,0h-1.43l-.08,0,0-1.18Z"/><path class="cls-10" d="M222.47,92.56h.95c-.65,2.05-.45,4.23-.93,6.32-.09.38.12.6.52.61,2.32.11,4.58.75,6.91.72,1,0,1.43.41,1.43,1.43,0,1.61-.64,3.18-.25,4.81-.24,1.43-.54,2.85-.71,4.29a2.8,2.8,0,0,1-2.41,2.67c-2.23,0-4.47,0-6.7,0-.95,0-1.41-.54-1.47-1.5a9.24,9.24,0,0,1,.32-2.23c.28-1.54.74-3.08.17-4.65.54-3.11,1.13-6.22,1.6-9.34A22.49,22.49,0,0,1,222.47,92.56Z"/><path class="cls-14" d="M231.1,106.46c-.39-1.63.24-3.2.25-4.81,0-1-.41-1.44-1.43-1.43-2.33,0-4.59-.61-6.91-.72-.4,0-.61-.23-.52-.61.48-2.09.28-4.27.93-6.32h.48a1.8,1.8,0,0,0,1.92,0l8.36-.22q-1.29,7.07-2.6,14.14Z"/><path class="cls-5" d="M231.1,106.46h.48c.5,1.52-.17,2.94-.4,4.39-.14,1-.13,2-1,2.69a3.25,3.25,0,0,1-2.4.71c-2.22-.15-4.46-.07-6.7-.09-1.75,0-2.41-.57-2.17-2.31.32-2.3.42-4.66,1.42-6.81.57,1.57.11,3.11-.17,4.65a9.24,9.24,0,0,0-.32,2.23c.06,1,.52,1.49,1.47,1.5,2.23,0,4.47,0,6.7,0a2.8,2.8,0,0,0,2.41-2.67C230.56,109.31,230.86,107.89,231.1,106.46Z"/><path class="cls-9" d="M135.27,108.23c-.44,0-.89,0-1.32,0-2.71.15-3.78-.57-3.07-3.6.45-1.94.73-3.9,1.09-5.85.32-1.77.92-2.37,2.69-2.38a25.9,25.9,0,0,1,6,.42c2.27.52,3.88,1.64,4.29,4.06a6.15,6.15,0,0,1-2.91,6A13.27,13.27,0,0,1,135.27,108.23Zm.25-2a10.12,10.12,0,0,0,5.64-1.12,4.11,4.11,0,0,0,1.84-4.1c-.27-1.46-1.36-2-2.68-2.33a26.5,26.5,0,0,0-5.82-.42c-.49,0-.56.23-.62.65-.27,1.73-.58,3.44-.91,5.15-.41,2.17-.42,2.17,1.83,2.17Z"/><path class="cls-1" d="M139.13,81.51a19.2,19.2,0,0,1,2.26.15c1.12.17,2.23.44,2.51,1.63A3.57,3.57,0,0,1,142.73,87a6.59,6.59,0,0,1-4.13,1.25c-2.83.21-2.83.17-2.34-2.6.12-.67.18-1.34.31-2C137,81.51,137,81.51,139.13,81.51Z"/><path class="cls-9" d="M96.08,54.41a1,1,0,0,1-.85-1c0-.4.23-.7.66-.64a1,1,0,0,1,.85,1A.58.58,0,0,1,96.08,54.41Z"/><path class="cls-13" d="M319.22,87.06a15.69,15.69,0,0,1-.81,2.72,8.49,8.49,0,0,1-7.24,4.69,10.45,10.45,0,0,1-3.53,0,4,4,0,0,1-3.34-3.93,17.6,17.6,0,0,1,.22-3.32l.49-.06,1.18.06c-.16,1.14-.36,2.27-.48,3.41s.42,2.17,1.57,2.28a12.55,12.55,0,0,0,7.63-1.28c1.81-1,2.34-2.82,2.83-4.63l1,0Z"/><path class="cls-15" d="M318.7,87l-1,0c0-3.12-1.05-4.74-3.45-5.43a15.31,15.31,0,0,0-5.09-.48,2.11,2.11,0,0,0-2.24,2c-.27,1.36-.52,2.73-.77,4.1L305,87.19c.43-1.56.41-3.23,1.18-4.71a3.74,3.74,0,0,1,3-2.31c2.88-.31,5.68-.19,7.91,2A6.06,6.06,0,0,1,318.7,87Z"/><path class="cls-14" d="M297.1,87.32a2,2,0,0,1-1.72.41C295.79,86.91,296.51,87.39,297.1,87.32Z"/><path class="cls-12" d="M397.41,78.4c.69.07.88.54,1,1.14.81,4.37,1.86,8.69,2.68,13,.44,2.37.94,4.75,1.44,7.11a27.73,27.73,0,0,1,.65,5.31v.06l-.68-.08c-1.35-.82-2.53-1.92-4.1-2.36h0l-.24-.14-.27-.09c-.08-.21-.26-.23-.45-.21a2.44,2.44,0,0,0-1.42-.83c0-.5.07-.84.67-.45.41.26.84.48,1.31.74.14-.76-.81-.65-.68-1.33.62,0,1.15.56,1.8.39a.87.87,0,0,0,.88.87.92.92,0,0,0-.89-.87c0-.35-.08-.74.21-1,1.41-1.36,1.07-3,1.08-4.74,0-5-2-9.6-2.51-14.48C397.79,79.78,397.29,79.15,397.41,78.4Z"/><path class="cls-12" d="M380.62,74.56c-.08-.61.31-.72.78-.79a29,29,0,0,1,6.9-.1c1.71.12,3.41.12,5.12.15,2.36,0,3.1.64,3.53,2.94a4,4,0,0,1,.22,1.41C395.5,78,394,77.24,392.34,77s-3-.69-4.51-1C385.43,75.51,383,75,380.62,74.56Z"/><path class="cls-15" d="M378.92,94.91c1.15-2.68,2.29-5.37,3.46-8a6.35,6.35,0,0,1,2.16-3.09,3.38,3.38,0,0,1,5.16,2.83c.05,2.78.39,5.54.56,8.31a34.08,34.08,0,0,1,.2,3.92l-1.09-.07a107.3,107.3,0,0,1-.82-12.28c0-1.53-.45-2.14-1.75-2.43a2.23,2.23,0,0,0-2.71,1.56c-.29.65-.53,1.33-.82,2-1.13,2.54-2,5.19-3.31,7.64Z"/><path class="cls-13" d="M378.92,94.91l1,.33a22.58,22.58,0,0,1-1.48,3.89c-.73,1.83,0,3.17,2,3.24,2.27.08,4.55.07,6.83,0a2.11,2.11,0,0,0,2.18-2.53c0-.36-.06-.72-.09-1.07l1.09.07c0,.13.05.26.08.39-.3,3.12-1.68,4.39-4.87,4.36a25,25,0,0,1-5.47-.18,3.6,3.6,0,0,1-2.86-4.56A15.83,15.83,0,0,1,378.43,96a1.43,1.43,0,0,0,.2-1Z"/><path class="cls-5" d="M375.1,93.91a.35.35,0,0,1-.47-.19C375,93.4,375,93.65,375.1,93.91Z"/><path class="cls-5" d="M372.45,93.23l-.26-.17Z"/><path class="cls-5" d="M373.89,93.68l-.22-.16Z"/><path class="cls-14" d="M397.42,102.19c.19,0,.37,0,.45.21Z"/><path class="cls-14" d="M398.14,102.49l.24.14Z"/><path class="cls-10" d="M402.48,105l.68.08c-.37,1.2.29,2.28.44,3.42s.5,2.24.53,3.39a1.37,1.37,0,0,1-1.54,1.55h-7a2.43,2.43,0,0,1-2.38-1.49,8.38,8.38,0,0,0-.54-.91c-.05-.5.2-.72.63-1,1.51-1,3.52-1.11,4.72-2.68.22-.28.81-.32,1.24-.36a1.28,1.28,0,0,0,1.18-.65c.22-.43.68-.36,1.07-.34C402.2,106,402.5,105.68,402.48,105Z"/><path class="cls-14" d="M257,90.64a.39.39,0,0,1,.51-.17C257.43,90.76,257.31,91,257,90.64Z"/><path class="cls-14" d="M255.33,90.69l.73,0A.45.45,0,0,1,255.33,90.69Z"/><path class="cls-2" d="M201.58,113.91a14.89,14.89,0,0,1-3.52-.21,2.6,2.6,0,0,1-2-2.41c0-.16,0-.34.18-.38a.35.35,0,0,1,.3.11c1.17,2.09,3.27,1.55,5,1.63,1.57.06,3.15.68,4.73.07a1.09,1.09,0,0,1,.35-.07c.37,0,.84-.75,1-.05.14.49-.45,1-1,1a29.54,29.54,0,0,1-3,.28C203.12,114,202.43,113.91,201.58,113.91Z"/><path class="cls-2" d="M207.6,111.22c-.09-.11-.2-.18-.21-.26s.05-.25.11-.27.28.06.27.22S207.68,111.08,207.6,111.22Z"/><path class="cls-2" d="M195.48,109.53c0,.06,0,.16-.09.18s-.13,0-.19-.07,0-.17.09-.19S195.42,109.5,195.48,109.53Z"/><path class="cls-14" d="M203,92.11c.65,1.67.53,3.52,1.14,5.21.24.68-.18.7-.72.54-2.39-.72-4.84-.42-7.28-.4-.58,0-.53-.27-.62-.6a16.83,16.83,0,0,1-.43-5.29C197.75,91.56,200.38,91.9,203,92.11Z"/><path class="cls-13" d="M193.68,91.37a23.41,23.41,0,0,0,.49,4.8.55.55,0,0,0-.21.74,7.4,7.4,0,0,1,.17,2.61,4.28,4.28,0,0,1-3.16,4,20.06,20.06,0,0,1-7.76-.14,4,4,0,0,1-2.55-3.24c-.19-1.75.94-3.09,1.2-4.69.53-1.87,1.8-3.47,2-5.47l.49-.07a2.34,2.34,0,0,0,1.18.47Q183.75,94.67,182,99c-.87,2.12,0,3.39,2.31,3.41,1.91,0,3.83,0,5.74,0,2.32,0,3.05-.9,2.81-3.18-.29-2.69-.63-5.38-.67-8.09l1.44,0A1.55,1.55,0,0,0,193.68,91.37Z"/><path class="cls-6" d="M193.62,91.14l-1.44,0a25.48,25.48,0,0,1-.17-4.54c0-1.6-.48-2.25-1.8-2.54a2.27,2.27,0,0,0-2.7,1.61c-.68,1.57-1.35,3.15-2,4.72a2.34,2.34,0,0,1-1.18-.47A15.07,15.07,0,0,1,187,84.15a3.29,3.29,0,0,1,3.65-1.07,3.58,3.58,0,0,1,2.66,3.21A23.16,23.16,0,0,1,193.62,91.14Z"/><path class="cls-5" d="M181.86,95.43c-.26,1.6-1.39,2.94-1.2,4.69a4,4,0,0,0,2.55,3.24,20.06,20.06,0,0,0,7.76.14,4.28,4.28,0,0,0,3.16-4,7.4,7.4,0,0,0-.17-2.61.55.55,0,0,1,.21-.74,10.6,10.6,0,0,1,.19,6.16,2.87,2.87,0,0,1-2.25,1.91,17.58,17.58,0,0,1-8.85.2c-2.51-.53-4.51-2.61-3.11-6A8,8,0,0,1,181.86,95.43Z"/><path class="cls-10" d="M225.82,92.54a1.8,1.8,0,0,1-1.92,0A1.86,1.86,0,0,1,225.82,92.54Z"/><path class="cls-1" d="M135.52,106.27h-.72c-2.25,0-2.24,0-1.83-2.17.33-1.71.64-3.42.91-5.15.06-.42.13-.65.62-.65a26.5,26.5,0,0,1,5.82.42c1.32.31,2.41.87,2.68,2.33a4.11,4.11,0,0,1-1.84,4.1A10.12,10.12,0,0,1,135.52,106.27Z"/><path class="cls-9" d="M306.19,87.25c.25-1.37.5-2.74.77-4.1a2.11,2.11,0,0,1,2.24-2,15.31,15.31,0,0,1,5.09.48c2.4.69,3.42,2.31,3.45,5.43-.49,1.81-1,3.6-2.83,4.63a12.55,12.55,0,0,1-7.63,1.28c-1.15-.11-1.69-1-1.57-2.28S306,88.39,306.19,87.25Zm4.88-4.17c-.52,0-1,0-1.55,0s-.62.09-.7.57c-.36,2.27-.77,4.53-1.17,6.79-.09.49,0,.69.58.7A16.18,16.18,0,0,0,312,90.8a4.46,4.46,0,0,0,3.78-4.51,2.73,2.73,0,0,0-2-2.86A12.35,12.35,0,0,0,311.07,83.08Z"/><path class="cls-2" d="M399.09,100.71a.92.92,0,0,1,.89.87.87.87,0,0,1-.88-.87Z"/><path class="cls-9" d="M389.37,98.77c0,.35.07.71.09,1.07a2.11,2.11,0,0,1-2.18,2.53c-2.28.07-4.56.08-6.83,0-1.95-.07-2.7-1.41-2-3.24A22.58,22.58,0,0,0,380,95.24c1.33-2.45,2.18-5.1,3.31-7.64.29-.65.53-1.33.82-2a2.23,2.23,0,0,1,2.71-1.56c1.3.29,1.78.9,1.75,2.43A107.3,107.3,0,0,0,389.37,98.77Zm-9.37,1.7c2.46,0,4.73,0,7,0,.63,0,.59-.29.54-.74a108.4,108.4,0,0,1-.92-13.1c0-.25.16-.62-.2-.72s-.5.28-.61.56Z"/><path class="cls-9" d="M185.49,90.36c.67-1.57,1.34-3.15,2-4.72a2.27,2.27,0,0,1,2.7-1.61c1.32.29,1.77.94,1.8,2.54a25.48,25.48,0,0,0,.17,4.54c0,2.71.38,5.4.67,8.09.24,2.28-.49,3.18-2.81,3.18-1.91,0-3.83,0-5.74,0-2.33,0-3.18-1.29-2.31-3.41Q183.76,94.67,185.49,90.36Zm-2.05,10.11c1.89,0,3.56,0,5.24,0,.75,0,1.71.22,2.2-.16s-.07-1.32-.11-2c-.23-3.94-.86-7.85-.71-11.81,0-.21.1-.53-.23-.58s-.42.14-.51.4c-.26.66-.54,1.32-.82,2Z"/><path class="cls-1" d="M311.07,83.08a12.35,12.35,0,0,1,2.71.35,2.73,2.73,0,0,1,2,2.86A4.46,4.46,0,0,1,312,90.8a16.18,16.18,0,0,1-3.81.33c-.56,0-.67-.21-.58-.7.4-2.26.81-4.52,1.17-6.79.08-.48.28-.59.7-.57S310.55,83.08,311.07,83.08Z"/><path class="cls-1" d="M380,100.47l5.81-14c.11-.28.19-.68.61-.56s.21.47.2.72a108.4,108.4,0,0,0,.92,13.1c0,.45.09.75-.54.74C384.73,100.45,382.46,100.47,380,100.47Z"/><path class="cls-1" d="M183.44,100.47l5.06-12.2c.28-.65.56-1.31.82-2,.09-.26.25-.44.51-.4s.24.37.23.58c-.15,4,.48,7.87.71,11.81,0,.7.59,1.65.11,2s-1.45.15-2.2.16C187,100.48,185.33,100.47,183.44,100.47Z"/></g></g></svg>