<svg xmlns="http://www.w3.org/2000/svg" viewBox="0 0 232.55 154.13"><defs><style>.cls-1,.cls-2{fill:#152239;}.cls-2,.cls-3,.cls-4,.cls-5,.cls-6,.cls-7,.cls-8{fill-rule:evenodd;}.cls-3{fill:#e73331;}.cls-4{fill:#f7a416;}.cls-5{fill:#8bbe34;}.cls-6{fill:#61b34b;}.cls-7{fill:#fdcf02;}.cls-8{fill:#093855;}.cls-9{fill:#f6a318;}</style></defs><g id="Camada_2" data-name="Camada 2"><g id="Camada_5" data-name="Camada 5"><path class="cls-1" d="M231.52,143.7q0-9.06-8.87-9-9.15,0-9.14,9.52,0,10,10.59,10a30.35,30.35,0,0,0,6.27-.56v-3.89a32.8,32.8,0,0,1-5.9.55c-4,0-6.05-1.37-6.05-4.12h12.93A17.75,17.75,0,0,0,231.52,143.7Zm-4.79-1h-8.31q.33-4.2,4.23-4.2,4.08,0,4.08,4.05Z"/><path class="cls-1" d="M206.16,131.5h-3.64v17.38q0,5.25,4.9,5.25h4.38v-3.9h-2c-1.57,0-2.36-.91-2.36-2.73v-9h4.36v-3.89h-4.9Z"/><polygon class="cls-2" points="140.54 51.91 79.75 74.54 89.07 74.54 140.54 51.91"/><path class="cls-3" d="M156.33,49.8a64.92,64.92,0,0,1,12.51,23.08h17A69.77,69.77,0,0,0,168,38.15l-9.69,9.69Z"/><path class="cls-4" d="M154.94,48.21l11.57-11.57A69.86,69.86,0,0,0,132.41,18l-3.62,13.5a60.33,60.33,0,0,1,26.15,16.71"/><path class="cls-5" d="M65.11,46.13a61.92,61.92,0,0,1,22.3-13.91c1.87-.67,3.75-1.25,5.66-1.74l0-.14-2.34-8.75A70.07,70.07,0,0,0,62.2,43.21Z"/><path class="cls-6" d="M63.63,47.62l-2.72-2.71a69.6,69.6,0,0,0-12.26,28,66.35,66.35,0,0,1,15-25.26"/><path class="cls-7" d="M95.12,30a64.48,64.48,0,0,1,31.65.9l3.57-13.31a70.39,70.39,0,0,0-37.68,3.23Z"/><path class="cls-4" d="M172.89,24a3.88,3.88,0,0,1-1.59,2L166,28.31a1.09,1.09,0,0,0-.66,1,1.11,1.11,0,0,0,.54,1l4.72,2.82A3.82,3.82,0,0,1,172.21,36h0l.54,5.19a1.09,1.09,0,0,0,.7.93,1.12,1.12,0,0,0,1.16-.2l4-3.51a3.88,3.88,0,0,1,2.84-.9l5.6,1.2a1.08,1.08,0,0,0,1.1-.39,1.11,1.11,0,0,0,.16-1.16l-2-4.68-.1-.25a3.83,3.83,0,0,1,.22-3.27l2.68-4.63a1.12,1.12,0,0,0,0-1.18,1.1,1.1,0,0,0-1.05-.51l-5.46.49a3.86,3.86,0,0,1-2.71-1l-3.79-4.21a1.13,1.13,0,0,0-1.94.5Z"/><path class="cls-8" d="M117.27,11.34a74.53,74.53,0,0,1,45.23,15.2l6-2.66a5.21,5.21,0,0,0,2-2.42l1.07-4.7A79.56,79.56,0,0,0,43.25,74.65a74.93,74.93,0,0,1,74-63.31"/><path class="cls-2" d="M44,67.54a71,71,0,0,1,118.49-41A74.92,74.92,0,0,0,43.25,74.65c.14-2.4.4-4.77.76-7.11"/><path class="cls-8" d="M53.08,73.11a62.4,62.4,0,0,1,97-24,58.43,58.43,0,0,0-97,24"/><path class="cls-1" d="M134.48,134.65a31.23,31.23,0,0,0-7.09.92v3.9a30.72,30.72,0,0,1,7.09-.93c2.5,0,3.76.88,3.76,2.62v1.47a21.27,21.27,0,0,0-4-.38q-8.46,0-8.46,5.81,0,6.08,7.15,6.07a9.69,9.69,0,0,0,5.59-1.75l1.75,1.75h2.86V141.06Q143.16,134.65,134.48,134.65Zm3.76,14.43a7.6,7.6,0,0,1-4.54,1.52c-2,0-3-.86-3-2.6s1.18-2.41,3.54-2.41a20.83,20.83,0,0,1,4,.37Z"/><path class="cls-1" d="M194.82,134.65H191v19.48h4.92V140.9a6.61,6.61,0,0,1,4.91-2.28v-4a7.71,7.71,0,0,0-5.41,2.48Z"/><polygon class="cls-1" points="163.74 127.61 163.74 146.93 149.74 127.61 144.83 127.61 144.83 154.13 149.56 154.13 149.56 134.4 163.55 154.13 168.47 154.13 168.47 127.61 163.74 127.61"/><polygon class="cls-1" points="89.48 127.6 78.21 154.13 83.26 154.13 92 132.66 96.17 142.63 90.82 142.63 89.14 146.89 97.95 146.89 100.98 154.13 106.26 154.13 94.76 127.6 89.48 127.6"/><path class="cls-1" d="M189.34,144.4q0-9.75-9.6-9.75t-9.6,9.75q0,9.72,9.6,9.73T189.34,144.4ZM175,144.32q0-5.92,4.71-5.92t4.71,5.92q0,6.08-4.71,6.08T175,144.32Z"/><path class="cls-1" d="M124.14,148.12c0-3.83-2.13-5.73-6.37-5.73h-3.1c-1.52,0-2.27-.64-2.27-1.92s1.3-2,3.91-2a18.24,18.24,0,0,1,6.92,1.28v-4a20.74,20.74,0,0,0-6.79-1.09q-8.5,0-8.5,6c0,3.83,1.93,5.74,5.82,5.74h3.46c1.39,0,2.1.64,2.1,1.91s-1,2-3.12,2a19.74,19.74,0,0,1-7.36-1.28v4a21.78,21.78,0,0,0,7.18,1.1Q124.15,154.13,124.14,148.12Z"/><polygon class="cls-9" points="174.93 79.94 174.93 112.32 151.47 79.94 143.24 79.94 143.24 124.37 151.16 124.37 151.16 91.32 174.6 124.37 182.85 124.37 182.85 79.94 174.93 79.94"/><polygon class="cls-9" points="204.45 79.97 185.6 124.37 194.04 124.37 208.67 88.45 215.65 105.13 206.71 105.13 203.89 112.26 218.63 112.26 223.7 124.37 232.54 124.37 213.3 79.97 204.45 79.97"/><path class="cls-9" d="M21.88,80Q0,80,0,102.19t21.88,22.18q21.89,0,21.89-22.18T21.88,80Zm0,35.9q-10.74,0-10.73-13.85,0-13.5,10.73-13.5T32.61,102Q32.61,115.88,21.88,115.87Z"/><path class="cls-9" d="M128.32,114.87a30.39,30.39,0,0,1-12.25,2.45q-15.76,0-15.77-15.77Q100.3,87,116.07,87a30.56,30.56,0,0,1,12.25,2.45V82.09a36.27,36.27,0,0,0-12.86-2.15q-23.58,0-23.59,21.61,0,22.83,23.59,22.82a36,36,0,0,0,12.86-2.14Z"/><polygon class="cls-9" points="76.95 86.39 76.95 79.97 46.57 79.97 46.57 124.37 55.89 124.37 55.89 105.11 72.4 105.11 72.41 98.68 55.89 98.68 55.89 86.39 76.95 86.39"/><rect class="cls-9" x="79.75" y="79.94" width="9.32" height="44.43"/><rect class="cls-9" x="131.12" y="79.97" width="9.32" height="44.4"/></g></g></svg>